<svg opacity=".122" xmlns="http://www.w3.org/2000/svg" width="307" height="387" viewBox="0 0 307 387"><path fill-rule="evenodd" clip-rule="evenodd" fill="#0B1F45" d="M167.74 290.971a3.369 3.369 0 0 0-.29 1.304c-.022 1.201.605 2.342 1.692 2.858 1.482.702 3.258-.021 3.965-1.615.189-.426.282-.869.291-1.306.019-1.016-.428-1.988-1.225-2.577l37.979-56.631c1.307.239 2.674-.486 3.273-1.841a3.36 3.36 0 0 0 .291-1.304c.022-1.202-.605-2.342-1.692-2.856-.842-.4-1.776-.34-2.558.079a3.227 3.227 0 0 0-1.366 1.445c-.015.03-.028.061-.041.09a3.021 3.021 0 0 0-.087.215l-86.623-37.595a3.328 3.328 0 0 0 .251-1.212 3.2 3.2 0 0 0-.685-2.059 2.671 2.671 0 0 0-.212-.237l32.637-36.573a2.863 2.863 0 0 0 1.3 1.239c.92.437 1.953.322 2.773-.206a3.257 3.257 0 0 0 1.192-1.41c.189-.424.283-.868.291-1.304.022-1.202-.605-2.342-1.692-2.858-1.458-.69-3.2-.002-3.93 1.54l-35.966-10.33a2.595 2.595 0 0 0-.864-1.062c-.886-.625-2.027-.593-2.929-.028l-27.149-7.797c.079-.28.12-.565.125-.847.022-1.202-.604-2.343-1.692-2.858-1.482-.703-3.257.02-3.965 1.615a3.397 3.397 0 0 0-.291 1.305c-.022 1.2.605 2.34 1.692 2.857a2.79 2.79 0 0 0 1.6.239 2.874 2.874 0 0 0 1.193-.459l10.375 18.3-57.369 30.988a2.592 2.592 0 0 0-.856-1.027c-1.22-.86-2.931-.489-3.822.83a3.086 3.086 0 0 0-.446 1.02c-.252 1.08.104 2.227.985 2.886L4.368 244.846c-1.177-.574-2.659-.156-3.465 1.039-.216.32-.365.667-.447 1.021-.258 1.103.12 2.273 1.043 2.926l.051.036a2.54 2.54 0 0 0 1.747.408 2.91 2.91 0 0 0 2.024-1.274 3.035 3.035 0 0 0 .481-1.188 2.925 2.925 0 0 0-.119-1.485l54.525-23.605a2.588 2.588 0 0 0 .957 1.276c.624.44 1.376.558 2.081.392a2.769 2.769 0 0 0 .603-.218 2.967 2.967 0 0 0 1.263-1.205c.055-.098.105-.198.149-.299.045-.103.083-.206.115-.312a2.963 2.963 0 0 0 .013-1.736 2.85 2.85 0 0 0-.111-.301 2.605 2.605 0 0 0-.888-1.099c-.023-.017-.047-.032-.071-.048l37.355-59.025 15.439 27.235a3.242 3.242 0 0 0-1.171 1.394 3.38 3.38 0 0 0-.291 1.306 3.26 3.26 0 0 0 .326 1.489l-29.641 17.03a2.878 2.878 0 0 0-1.367-1.367 2.737 2.737 0 0 0-1.289-.268c-1.106.039-2.168.734-2.676 1.882a3.398 3.398 0 0 0-.291 1.306c-.021 1.148.551 2.241 1.552 2.785.046.024.093.049.141.071a2.804 2.804 0 0 0 2.267.058c.099-.04.195-.085.289-.135l16.72 36.854c-.102.03-.203.065-.302.106a3.175 3.175 0 0 0-1.68 1.663 3.381 3.381 0 0 0-.29 1.305c-.02 1.07.476 2.094 1.354 2.668.097.063.198.122.303.174l.035.017c1.317.625 2.866.122 3.691-1.118l63.046 36.155c-.033.071-.068.14-.099.212zm-46.531-99.434l86.665 37.613a3.309 3.309 0 0 0-.104.771c-.023 1.201.604 2.342 1.692 2.859.121.057.244.104.368.144l-37.918 56.539c-.066-.038-.137-.073-.206-.108a2.808 2.808 0 0 0-2.39-.004l-49.03-96.73c.371-.276.69-.642.923-1.084zm-35.918-60.938a3.26 3.26 0 0 0 .911-1.202l.059-.141 26.921 7.732c-.206.174-.399.37-.56.607a3.1 3.1 0 0 0-.447 1.021c-.11.473-.104.96.012 1.411l-16.499 8.912-10.397-18.34zm-24.722 89.455c-.216.32-.365.667-.447 1.021-.104.448-.104.91-.005 1.342l-54.559 23.62a2.587 2.587 0 0 0-.834-.981l-.084-.057 29.52-61.04c.612.353 1.324.42 1.985.234l24.813 35.394a3.06 3.06 0 0 0-.389.467zm3.482-1.033c-.822-.404-1.792-.328-2.579.159l-24.708-35.243c.39-.218.74-.533 1.013-.937.216-.32.363-.667.446-1.021a2.964 2.964 0 0 0-.067-1.604l57.406-31.008 5.939 10.478-37.45 59.176zm31.794-69.806l16.44-8.88c.17.442.453.839.842 1.141l-11.431 18.062-5.851-10.323zm6.025 10.629l11.515-18.195c.09.056.183.103.277.144 1.164.512 2.591.086 3.378-1.08a3.245 3.245 0 0 0 .327-.629 2.955 2.955 0 0 0 .083-1.871l35.697 10.252a3.346 3.346 0 0 0-.198 1.07c-.009.456.077.905.245 1.311l-32.725 36.671a2.818 2.818 0 0 0-3.078-.293l-15.521-27.38zm2.227 90.355a2.767 2.767 0 0 0-2.095-.48L85.24 212.771a3.23 3.23 0 0 0 1.133-1.37 3.38 3.38 0 0 0 .291-1.306 3.268 3.268 0 0 0-.199-1.19l29.671-17.047a2.884 2.884 0 0 0 1.465 1.191l-13.504 57.15zm.869 4.125a3.379 3.379 0 0 0 .395-1.52 3.192 3.192 0 0 0-.739-2.124l13.583-57.487a2.867 2.867 0 0 0 1.53-.245l49.031 96.729a3.167 3.167 0 0 0-.756.802l-63.044-36.155zm-9.24-185.985c1.079.011 2.023-.597 2.542-1.513l63.291 41.209a3.353 3.353 0 0 0 .131.979c.373 1.296 1.499 2.245 2.83 2.258 1.35.014 2.489-.94 2.848-2.255l53.984-11.035c.02.107.045.214.074.316.373 1.295 1.499 2.244 2.829 2.257 1.637.017 2.964-1.388 2.966-3.137 0-.327-.047-.643-.132-.939a3.211 3.211 0 0 0-1.177-1.703 2.912 2.912 0 0 0-.268-.173 2.834 2.834 0 0 0-1.385-.382 2.845 2.845 0 0 0-2.154.969c-.07.08-.138.164-.201.25L195.57 73.644c.064-.087.123-.179.178-.271a3.308 3.308 0 0 0 .434-1.646c0-.327-.046-.643-.131-.939l-.039-.126a3.572 3.572 0 0 0-.12-.308c-.478-1.067-1.493-1.812-2.671-1.823-1.584-.016-2.879 1.3-2.961 2.968l-91.573-6.126a3.403 3.403 0 0 0-.127-1.109c-.374-1.294-1.499-2.243-2.83-2.257-1.637-.017-2.964 1.389-2.965 3.138 0 .327.046.643.132.938.373 1.293 1.499 2.244 2.829 2.256zm95.874 5.995a2.839 2.839 0 0 0 1.617.528 2.837 2.837 0 0 0 2.152-.967l26.359 21.818a3.289 3.289 0 0 0-.422 1.94l-53.864 11.01a3.4 3.4 0 0 0-.09-1.467 3.275 3.275 0 0 0-.343-.786L191.6 74.334zm-92.946-8.633l91.605 6.129a3.279 3.279 0 0 0 .858 2.08l-24.51 31.968a2.884 2.884 0 0 0-2.085-.939c-1.506-.015-2.75 1.173-2.94 2.727L98.415 66.533c.114-.259.195-.539.239-.832zm205.793 132.35a3.095 3.095 0 0 0-.15-.285 2.849 2.849 0 0 0-.728-.821 2.728 2.728 0 0 0-1.033-.485l-.053-.011a2.811 2.811 0 0 0-.566-.056 2.78 2.78 0 0 0-1.468.429 3.165 3.165 0 0 0-1.412 2.045 3.24 3.24 0 0 0-.045 1.104l-43.142 7.875a2.878 2.878 0 0 0-.062-.323c-.218-.9-.823-1.653-1.66-2.005a2.996 2.996 0 0 0-.293-.104 2.914 2.914 0 0 0-.205-.05c-1.553-.321-3.096.762-3.445 2.421a3.29 3.29 0 0 0-.071.618c-.026 1.422.89 2.686 2.247 2.966a2.731 2.731 0 0 0 1.713-.201l11.523 29.946.117.302 1.229 3.193.182.474.184.474 11.021 28.646 1.242 3.224 1.244 3.234 4.811 12.501a3.165 3.165 0 0 0-.912 1.269 3.378 3.378 0 0 0-.16.529l-.008.04a3.194 3.194 0 0 0 .229 1.966 2.823 2.823 0 0 0 .989 1.172c.286.194.611.336.968.409 1.552.322 3.095-.761 3.445-2.42.044-.207.066-.414.07-.617a3.054 3.054 0 0 0-.907-2.256 2.71 2.71 0 0 0-1.34-.713l-.02-.004a2.517 2.517 0 0 0-.307-.043l5.35-35.113.281.205.057-.366-.283-.204 8.307-54.531c.104.014.207.023.311.024 1.377.035 2.648-.988 2.962-2.475a3.29 3.29 0 0 0 .071-.617 3.152 3.152 0 0 0-.283-1.366zm-11.652 58.761l-.056.364-5.378 35.312a2.84 2.84 0 0 0-1.471.478l-6.021-15.652-1.245-3.232-1.241-3.224-9.926-25.794-.184-.475-.181-.473-1.095-2.845-.117-.304-11.524-29.946a3.168 3.168 0 0 0 1.45-2.07 3.3 3.3 0 0 0 .07-.774l43.177-7.879c.249 1.024 1.001 1.86 2.026 2.127l-8.284 54.387zm13.635 9.876l-.182.274.255.185.181-.275-.254-.184zm-71.914 95.344c-.137-.92-.697-1.737-1.557-2.126a2.1 2.1 0 0 0-.291-.109 2.517 2.517 0 0 0-1.217-.069c-.104.02-.207.045-.307.075l-21.752-86.474c.102-.031.2-.069.297-.112a2.911 2.911 0 0 0 1.496-1.582c.145-.358.217-.728.224-1.091a2.958 2.958 0 0 0-.245-1.248 2.669 2.669 0 0 0-1.388-1.397c-1.373-.586-2.969.136-3.563 1.612a3.066 3.066 0 0 0-.224 1.092 2.919 2.919 0 0 0 .634 1.885l-52.634 48.518a2.597 2.597 0 0 0-1-.759c-1.373-.587-2.969.135-3.563 1.611a3.088 3.088 0 0 0-.224 1.092c-.021 1.132.593 2.199 1.633 2.644.906.387 1.907.205 2.656-.388l39.335 56.955a3.066 3.066 0 0 0-.238 1.126c-.019.966.427 1.886 1.204 2.409a2.257 2.257 0 0 0 .429.234c1.015.434 2.149.153 2.915-.618a3.16 3.16 0 0 0 .451-.589 3.07 3.07 0 0 0 .319-2.331l31.527-18.426c.049.096.102.189.16.279a2.56 2.56 0 0 0 3.284.936 2.718 2.718 0 0 0 .545-.339c.384-.306.7-.72.901-1.219a3.14 3.14 0 0 0 .224-1.092 3.238 3.238 0 0 0-.031-.499zm-36.713 20.05a2.67 2.67 0 0 0-1.428-1.498c-1.254-.535-2.693.02-3.387 1.245l-39.254-56.839a3 3 0 0 0 .449-.574l75.105 37.252a3.033 3.033 0 0 0 .018 2.001l-31.503 18.413zm31.763-21.016l-75.105-37.251c.104-.307.156-.617.161-.925a2.942 2.942 0 0 0-.446-1.625l52.66-48.543c.225.218.488.396.787.524.479.204.984.249 1.464.16l21.761 86.511c-.515.23-.967.626-1.282 1.149zm60.268-289.09l-.146-.39-.199.372.146.389.199-.371zm-4.511-67.188a2.231 2.231 0 0 0 .313.01l.502 45.909-.304.65.007.717.306-.652.028 2.679a2.946 2.946 0 0 0-.316-.427l.045 4.1c.115-.141.217-.292.309-.453l.047 4.268-.322-.852.01.925.01.929.322.853.129 11.741a2.2 2.2 0 0 0-.313.053c-.932.234-1.643 1.125-1.662 2.179a2.177 2.177 0 0 0 .052.538c.21.96 1.016 1.663 1.992 1.652 1.151-.013 2.104-1.015 2.126-2.236a2.193 2.193 0 0 0-.738-1.712 1.93 1.93 0 0 0-1.147-.476l-.119-10.889-.01-.929-.011-.926-.064-5.868-.019-1.751-.045-4.047-.008-.717-.495-45.296c.646-.131 1.194-.575 1.497-1.177a2.435 2.435 0 0 0 .212-.629c.023-.127.036-.257.039-.391a2.199 2.199 0 0 0-.646-1.625 2.032 2.032 0 0 0-.51-.362 1.907 1.907 0 0 0-.888-.202c-.188.002-.37.029-.545.082a2.077 2.077 0 0 0-.576.271 2.321 2.321 0 0 0-1.005 1.883v.107c.003.111.014.221.031.327l-38.135 8.515c.033-.113.057-.229.072-.352.013-.087.02-.175.021-.266.018-.982-.571-1.811-1.402-2.09a2.013 2.013 0 0 0-.614-.101l-.029.001c-.987.011-1.829.751-2.063 1.733a2.506 2.506 0 0 0-.063.504c-.021 1.087.7 1.983 1.67 2.16a1.74 1.74 0 0 0 .373.03c.818-.009 1.537-.519 1.891-1.251l38.355-8.564c.1.305.26.576.467.8l-36.969 51.902-.237.332-7.79 10.938a1.918 1.918 0 0 0-.975-.249c-1.151.014-2.104 1.016-2.126 2.237-.022 1.224.892 2.204 2.043 2.191 1.022-.012 1.887-.802 2.085-1.834.021-.107.033-.218.039-.329l.003-.075a2.217 2.217 0 0 0-.577-1.553l8.072-11.331.236-.334L284.592 4.55c.224.126.471.208.731.238z"/></svg>