<svg xmlns="http://www.w3.org/2000/svg" width="153.333" height="153.333" viewBox="0 0 153.333 153.333"><path fill="#E8E9EE" d="M77.015 4.667c-39.488 0-71.5 32.012-71.5 71.5s32.012 71.5 71.5 71.5 71.5-32.012 71.5-71.5-32.012-71.5-71.5-71.5zm0 137c-36.175 0-65.5-29.325-65.5-65.5s29.325-65.5 65.5-65.5 65.5 29.325 65.5 65.5-29.325 65.5-65.5 65.5zM99.414 74.04L74.1 57.174a2.437 2.437 0 0 0-1.021-.383 2.448 2.448 0 0 0-.74-.125 2.486 2.486 0 0 0-2.488 2.486v5.407l-11.086-7.385a2.45 2.45 0 0 0-1.021-.383 2.484 2.484 0 0 0-.74-.124 2.486 2.486 0 0 0-2.489 2.486v34.022a2.487 2.487 0 0 0 2.489 2.487c.442 0 .85-.124 1.21-.325.189-.067.377-.15.551-.267l11.086-7.385v5.491a2.487 2.487 0 0 0 2.488 2.487c.441 0 .85-.124 1.21-.325.189-.067.377-.15.552-.267l25.313-16.872a2.475 2.475 0 0 0 1.104-2.083 2.475 2.475 0 0 0-1.104-2.076zM59.495 88.605V63.637L78.232 76.12 59.495 88.605zm15.334 0v-4.239l9.249-6.163a2.475 2.475 0 0 0 1.105-2.083 2.477 2.477 0 0 0-1.105-2.082l-9.249-6.163v-4.237L93.565 76.12 74.829 88.605z"/></svg>