<svg xmlns="http://www.w3.org/2000/svg" xmlns:xlink="http://www.w3.org/1999/xlink" width="32" height="226" viewBox="0 0 32 226"><svg width="32" height="31" viewBox="-5 -5 32 31" id="icon-check"><defs><style>.icon-check{fill:#48c703;fill-rule:evenodd}</style></defs><path id="Shape_31_copy_5" data-name="Shape 31 copy 5" class="icon-check" d="M10.315 0c-.142 0-.285 0-.428.008A10.093 10.093 0 0 0 7.61.359 10.546 10.546 0 0 0 .351 13.224a10.262 10.262 0 0 0 12.578 7.425 10.546 10.546 0 0 0 7.259-12.865.978.978 0 0 0-1.159-.772 1 1 0 0 0-.755 1.188 1.054 1.054 0 0 0 .027.1 8.514 8.514 0 0 1-5.876 10.418 8.285 8.285 0 0 1-10.186-6.01A8.514 8.514 0 0 1 8.115 2.289a8.168 8.168 0 0 1 7.053 1.345.965.965 0 0 0 1.368-.217 1.016 1.016 0 0 0-.212-1.4A10.112 10.112 0 0 0 10.315 0zm10.652.742a.969.969 0 0 0-.665.32c-2.578 2.759-7.73 8.46-10.59 11.544L6.273 9.5a.964.964 0 0 0-1.383.086A1.018 1.018 0 0 0 4.974 11l4.157 3.752a.963.963 0 0 0 1.36-.063c2.735-2.927 8.526-9.367 11.225-12.255a1.017 1.017 0 0 0-.016-1.411.965.965 0 0 0-.733-.281z"/></svg><svg width="22.32" height="17.35" viewBox="-5 -5 22.32 17.35" id="icon-chevron-down" y="31"><defs><style>.icon-chevron-down{fill:none;stroke:#203049;stroke-width:1px;fill-rule:evenodd}</style></defs><path id="Rectangle_25_copy" data-name="Rectangle 25 copy" class="icon-chevron-down" d="M1089.44 4073.83l-5.65 5.65-5.66-5.65" transform="translate(-1077.62 -4072.62)"/></svg><svg width="22.81" height="22.812" viewBox="-5 -5 22.810000000000002 22.811999999999998" id="icon-close" y="49"><defs><style>.icon-close{fill:#fff;fill-rule:evenodd}</style></defs><path class="icon-close" d="M.28 12.521a.883.883 0 0 0 .63.269.9.9 0 0 0 .63-.269L6.4 7.678l4.86 4.865a.9.9 0 0 0 .63.269.879.879 0 0 0 .63-.269.891.891 0 0 0 0-1.278L7.68 6.4l4.86-4.866A.904.904 0 1 0 11.26.256L6.4 5.122 1.54.279A.904.904 0 0 0 .26 1.557L5.12 6.4.28 11.265a.865.865 0 0 0 0 1.256z"/></svg><svg width="17.34" height="25.91" viewBox="-5 -5 17.34 25.91" id="icon-soc-fb" y="72"><defs><style>.icon-soc-fb{fill:#fff;fill-rule:evenodd}</style></defs><path class="icon-soc-fb" d="M1.62 15.91h3.26V7.95h2.17l.29-2.74H4.88V3.84c0-.72.07-1.1 1.09-1.1h1.35V-.01H5.15c-2.61 0-3.53 1.33-3.53 3.57v1.65H0v2.74h1.62v7.96z"/></svg><svg width="17.34" height="25.91" viewBox="-5 -5 17.34 25.91" id="icon-soc-fb-hover" y="98"><defs><style>.icon-soc-fb-hover{fill:#fec118;fill-rule:evenodd}</style></defs><path class="icon-soc-fb-hover" d="M1.62 15.91h3.26V7.95h2.17l.29-2.74H4.88V3.84c0-.72.07-1.1 1.09-1.1h1.35V-.01H5.15c-2.61 0-3.53 1.33-3.53 3.57v1.65H0v2.74h1.62v7.96z"/></svg><svg width="26.79" height="25.94" viewBox="-5 -5 26.79 25.939999999999998" id="icon-soc-in" y="124"><defs><style>.icon-soc-in{fill:#fff;fill-rule:evenodd}</style></defs><path class="icon-soc-in" d="M16.77 15.92V9.76c0-3.3-1.77-4.83-4.14-4.83A3.575 3.575 0 0 0 9.39 6.7V5.18h-3.6c.05 1.01 0 10.74 0 10.74h3.6v-6a2.32 2.32 0 0 1 .12-.87 1.961 1.961 0 0 1 1.84-1.3c1.31 0 1.83.98 1.83 2.42v5.75h3.59zM2 3.71a2.005 2.005 0 1 0-.02 0H2zm1.8 12.21V5.18H.2v10.74h3.6z"/></svg><svg width="26.79" height="25.94" viewBox="-5 -5 26.79 25.939999999999998" id="icon-soc-in-hover" y="150"><defs><style>.icon-soc-in-hover{fill:#fec118;fill-rule:evenodd}</style></defs><path class="icon-soc-in-hover" d="M16.77 15.92V9.76c0-3.3-1.77-4.83-4.14-4.83A3.575 3.575 0 0 0 9.39 6.7V5.18h-3.6c.05 1.01 0 10.74 0 10.74h3.6v-6a2.32 2.32 0 0 1 .12-.87 1.961 1.961 0 0 1 1.84-1.3c1.31 0 1.83.98 1.83 2.42v5.75h3.59zM2 3.71a2.005 2.005 0 1 0-.02 0H2zm1.8 12.21V5.18H.2v10.74h3.6z"/></svg><svg width="27.31" height="24.84" viewBox="-5 -5 27.31 24.84" id="icon-soc-tw" y="176"><defs><style>.icon-soc-tw{fill:#fff;fill-rule:evenodd}</style></defs><path class="icon-soc-tw" d="M17.2 1.79a.351.351 0 0 0-.43-.07 3.157 3.157 0 0 1-.54.2 3.731 3.731 0 0 0 .61-1.19.355.355 0 0 0-.55-.39 7.635 7.635 0 0 1-1.83.74 3.588 3.588 0 0 0-2.57-1.09 4.065 4.065 0 0 0-2.16.69c-1.37.79-1.61 2.63-1.51 3.77A9.3 9.3 0 0 1 1.73.91a.379.379 0 0 0-.29-.18.366.366 0 0 0-.29.19 4.074 4.074 0 0 0 .16 4.23 3.435 3.435 0 0 1-.34-.26.362.362 0 0 0-.51 0 .406.406 0 0 0-.1.3 4.291 4.291 0 0 0 1.8 3.45l-.28-.09a.373.373 0 0 0-.44.5 4.672 4.672 0 0 0 3.02 2.69 6.506 6.506 0 0 1-4.06.88.354.354 0 0 0-.4.32.364.364 0 0 0 .18.37 10.69 10.69 0 0 0 5.58 1.54 9.545 9.545 0 0 0 7.21-3.44 10.324 10.324 0 0 0 2.63-7.37 7.118 7.118 0 0 0 1.64-1.82.4.4 0 0 0-.04-.43z"/></svg><svg width="27.31" height="24.84" viewBox="-5 -5 27.31 24.84" id="icon-soc-tw-hover" y="201"><defs><style>.icon-soc-tw-hover{fill:#fec118;fill-rule:evenodd}</style></defs><path class="icon-soc-tw-hover" d="M17.2 1.79a.351.351 0 0 0-.43-.07 3.157 3.157 0 0 1-.54.2 3.731 3.731 0 0 0 .61-1.19.355.355 0 0 0-.55-.39 7.635 7.635 0 0 1-1.83.74 3.588 3.588 0 0 0-2.57-1.09 4.065 4.065 0 0 0-2.16.69c-1.37.79-1.61 2.63-1.51 3.77A9.3 9.3 0 0 1 1.73.91a.379.379 0 0 0-.29-.18.366.366 0 0 0-.29.19 4.074 4.074 0 0 0 .16 4.23 3.435 3.435 0 0 1-.34-.26.362.362 0 0 0-.51 0 .406.406 0 0 0-.1.3 4.291 4.291 0 0 0 1.8 3.45l-.28-.09a.373.373 0 0 0-.44.5 4.672 4.672 0 0 0 3.02 2.69 6.506 6.506 0 0 1-4.06.88.354.354 0 0 0-.4.32.364.364 0 0 0 .18.37 10.69 10.69 0 0 0 5.58 1.54 9.545 9.545 0 0 0 7.21-3.44 10.324 10.324 0 0 0 2.63-7.37 7.118 7.118 0 0 0 1.64-1.82.4.4 0 0 0-.04-.43z"/></svg></svg>