<svg xmlns="http://www.w3.org/2000/svg" width="217.99" height="182" viewBox="0 0 217.99 182"><path d="M23.44 58.861c-2.174-3.174-3.261-7.797-3.261-13.871 0-6.107 1.087-10.748 3.261-13.923 2.174-3.174 5.348-4.762 9.523-4.762 4.174 0 7.35 1.579 9.523 4.736s3.261 7.79 3.261 13.897-1.087 10.749-3.261 13.923c-2.174 3.175-5.349 4.762-9.523 4.762-4.175 0-7.349-1.587-9.523-4.762zm15.941-2.485c1.379-2.45 2.07-6.263 2.07-11.438 0-5.209-.682-9.023-2.044-11.438-1.364-2.415-3.512-3.623-6.444-3.623-2.898 0-5.039 1.216-6.418 3.649-1.38 2.433-2.07 6.237-2.07 11.413s.69 8.989 2.07 11.438c1.379 2.45 3.52 3.675 6.418 3.675s5.038-1.225 6.418-3.676zm12.991 6.289c-.552-.535-.828-1.233-.828-2.096 0-.862.276-1.57.828-2.122.552-.552 1.242-.828 2.07-.828.793 0 1.458.276 1.993.828.535.552.802 1.26.802 2.122 0 .863-.268 1.562-.802 2.096-.535.535-1.199.802-1.993.802-.828 0-1.518-.267-2.07-.802zm34.806-14.829c1.19 1.587 1.786 3.486 1.786 5.693 0 3.14-1.139 5.599-3.416 7.375-2.277 1.777-5.504 2.666-9.679 2.666-4.175 0-7.401-.888-9.679-2.666-2.277-1.777-3.416-4.235-3.416-7.375 0-2.243.604-4.158 1.812-5.745 1.208-1.586 2.881-2.691 5.021-3.313-1.829-.69-3.278-1.777-4.348-3.261-1.07-1.483-1.604-3.226-1.604-5.228 0-2.967 1.078-5.322 3.235-7.065 2.156-1.742 5.15-2.614 8.98-2.614s6.823.872 8.98 2.614c2.156 1.743 3.235 4.098 3.235 7.065 0 2.001-.536 3.752-1.604 5.253-1.07 1.501-2.502 2.58-4.296 3.235 2.138.658 3.803 1.78 4.993 3.366zm-2.407 5.435c0-4.52-2.968-6.78-8.902-6.78-5.935 0-8.902 2.26-8.902 6.78 0 4.521 2.967 6.78 8.902 6.78 5.934 0 8.902-2.259 8.902-6.78zm-14.88-12.06c1.363 1.139 3.355 1.708 5.978 1.708 2.622 0 4.614-.569 5.978-1.708 1.363-1.139 2.044-2.777 2.044-4.917 0-2.036-.682-3.623-2.044-4.762-1.364-1.139-3.356-1.708-5.978-1.708-2.623 0-4.615.569-5.978 1.708-1.364 1.139-2.044 2.726-2.044 4.762 0 2.141.68 3.779 2.044 4.917zm44.51.57c1.742.966 3.113 2.308 4.037 4.063 1.312 2.49.062 2.295.062 4.573-.909 2.622-1.965 4.223-3 6s-1.75 2.917-3.167 5.833c-1.846.983-2.32 1.321-4.737 1.321a17.77 17.77 0 0 1-6.263-1.139c-2.036-.759-3.761-1.794-5.176-3.105-.552-.518-.828-1.104-.828-1.76 0-.518.138-.949.414-1.294.276-.345.604-.518.983-.518.483 0 .966.19 1.449.569 1.518 1.242 3.036 2.166 4.555 2.769 1.518.604 3.105.906 4.762.906 2.552 0 4.554-.725 6.003-2.174 1.449-1.449 2.174-3.416 2.174-5.9 0-2.415-.725-4.365-2.174-5.849-1.449-1.483-3.398-2.226-5.848-2.226-3.14 0-5.693 1.208-7.66 3.623-.483.518-1.07.776-1.76.776-.483 0-.889-.146-1.216-.44-.328-.292-.492-.699-.492-1.216V28.738c0-.586.181-1.069.543-1.449.362-.379.871-.569 1.527-.569h18.219c.621 0 1.112.155 1.475.466.363.311.545.743.545 1.294 0 .552-.182.983-.545 1.294-.361.311-.854.466-1.475.466h-16.097v12.99a10.04 10.04 0 0 1 3.39-2.148c1.294-.5 2.699-.75 4.218-.75 2.314 0 4.341.483 6.082 1.449zm7.371 65.26c-2.174-3.174-3.26-7.797-3.26-13.871 0-6.107 1.086-10.748 3.26-13.923 2.174-3.174 5.349-4.762 9.523-4.762 4.174 0 7.35 1.579 9.523 4.736s3.261 7.79 3.261 13.897c0 6.106-1.087 10.749-3.261 13.923-2.174 3.175-5.351 4.762-9.523 4.762-4.174 0-7.349-1.587-9.523-4.762zm15.943-2.484c1.379-2.449 2.07-6.263 2.07-11.438 0-5.209-.683-9.023-2.045-11.438-1.363-2.415-3.513-3.623-6.443-3.623-2.897 0-5.039 1.216-6.418 3.649-1.381 2.433-2.069 6.237-2.069 11.413s.688 8.989 2.069 11.438c1.379 2.449 3.521 3.674 6.418 3.674s5.037-1.225 6.418-3.675zm12.99 6.289c-.552-.535-.828-1.234-.828-2.097s.276-1.569.828-2.122c.553-.552 1.241-.828 2.069-.828.795 0 1.459.276 1.994.828.533.553.801 1.26.801 2.122s-.268 1.562-.801 2.097c-.535.535-1.199.803-1.994.803-.828-.003-1.516-.268-2.069-.803zm30.978-20.885a10.062 10.062 0 0 1 4.036 4.063c.949 1.744 1.425 3.754 1.425 6.031 0 2.276-.519 4.305-1.554 6.08-1.034 1.777-2.478 3.158-4.321 4.141-1.847.984-3.979 1.477-6.394 1.477-2.14 0-4.228-.38-6.263-1.139-2.036-.76-3.762-1.795-5.176-3.105-.553-.518-.828-1.104-.828-1.76 0-.518.138-.948.414-1.294.275-.345.604-.519.982-.519.482 0 .967.189 1.449.569 1.52 1.242 3.036 2.165 4.555 2.769a12.77 12.77 0 0 0 4.762.906c2.555 0 4.556-.725 6.004-2.174 1.449-1.449 2.175-3.416 2.175-5.9 0-2.414-.726-4.364-2.175-5.849-1.448-1.483-3.397-2.226-5.848-2.226-3.141 0-5.693 1.209-7.66 3.623-.483.518-1.07.775-1.76.775-.484 0-.889-.146-1.217-.439-.328-.292-.492-.698-.492-1.217V76.918c0-.586.182-1.069.544-1.449.362-.379.871-.569 1.526-.569h18.219c.621 0 1.113.155 1.477.466.362.311.543.743.543 1.294 0 .552-.182.983-.543 1.294-.362.311-.854.466-1.477.466H167.99v12.99a10.04 10.04 0 0 1 3.39-2.148c1.294-.5 2.699-.75 4.218-.75 2.313 0 4.34.484 6.085 1.449zm35.791 18.322c.344.311.518.742.518 1.294 0 1.208-.656 1.812-1.967 1.812h-20.291c-.586 0-1.068-.182-1.448-.543a1.757 1.757 0 0 1-.569-1.32c0-.654.241-1.225.725-1.707l12.475-13.717c1.727-1.932 2.977-3.666 3.753-5.202.774-1.535 1.164-3.08 1.164-4.632 0-2-.578-3.537-1.733-4.606-1.156-1.069-2.787-1.604-4.892-1.604-1.656 0-3.244.303-4.763.906-1.52.604-3.036 1.527-4.555 2.769-.518.414-1 .621-1.449.621-.379 0-.707-.181-.982-.543s-.414-.802-.414-1.32c0-.725.275-1.311.828-1.76 1.415-1.311 3.141-2.346 5.176-3.105a17.812 17.812 0 0 1 6.264-1.139c3.276 0 5.893.863 7.842 2.588 1.949 1.726 2.924 4.055 2.924 6.987 0 2.105-.475 4.124-1.424 6.056-.949 1.933-2.51 4.089-4.685 6.47l-10.352 11.23h16.407c.62-.002 1.101.155 1.448.465z" opacity=".4" fill="#FFF"/><path fill="#48C703" d="M12.297 76.053a1.397 1.397 0 0 0-.537-.613 1.49 1.49 0 0 0-.805-.224c-.278 0-.536.07-.775.209-.238.14-.417.349-.537.628L1.119 95.064c-.08.161-.119.32-.119.479 0 .299.119.553.357.764.239.209.517.313.835.313.497 0 .844-.239 1.043-.72l2.146-4.841h11.237l2.117 4.841c.198.479.546.72 1.043.72.318 0 .591-.101.82-.3a.948.948 0 0 0 .343-.746c0-.182-.04-.35-.119-.51l-8.525-19.011zM6.275 89.026l4.709-10.731 4.74 10.731H6.275zm28.437-6.516c-.974-.638-2.097-.957-3.368-.957-1.133 0-2.122.25-2.966.748a4.798 4.798 0 0 0-1.923 2.122v-1.614c0-.358-.104-.647-.313-.867-.208-.219-.502-.328-.879-.328s-.676.109-.894.328c-.219.22-.328.509-.328.867v18.025c0 .339.109.617.328.837.218.22.517.329.894.329s.671-.104.879-.313c.208-.211.313-.494.313-.854v-7.022a4.795 4.795 0 0 0 1.923 2.121c.844.498 1.833.748 2.966.748 1.292 0 2.419-.311 3.383-.929.964-.617 1.714-1.487 2.25-2.614.537-1.127.805-2.447.805-3.962 0-1.515-.269-2.845-.805-3.991s-1.292-2.037-2.265-2.674zm-.566 10.731c-.775.957-1.868 1.435-3.279 1.435-1.411 0-2.499-.482-3.264-1.449s-1.147-2.335-1.147-4.108.382-3.139 1.147-4.096c.765-.956 1.853-1.435 3.264-1.435 1.411 0 2.504.493 3.279 1.479s1.163 2.357 1.163 4.11c-.001 1.753-.389 3.108-1.163 4.064zM52.06 82.51c-.974-.638-2.097-.957-3.368-.957-1.133 0-2.122.25-2.966.748a4.798 4.798 0 0 0-1.923 2.122v-1.614c0-.358-.104-.647-.313-.867-.208-.219-.502-.328-.879-.328s-.676.109-.894.328c-.219.22-.328.509-.328.867v18.025c0 .339.109.617.328.837.218.22.517.329.894.329s.671-.104.879-.313c.209-.211.313-.494.313-.854v-7.022a4.795 4.795 0 0 0 1.923 2.121c.844.498 1.833.748 2.966.748 1.292 0 2.419-.311 3.383-.929.963-.617 1.714-1.487 2.25-2.614.536-1.127.805-2.447.805-3.962 0-1.515-.269-2.845-.805-3.991-.536-1.145-1.292-2.037-2.265-2.674zm-.567 10.731c-.775.957-1.868 1.435-3.279 1.435-1.411 0-2.499-.482-3.264-1.449-.765-.967-1.147-2.335-1.147-4.108s.382-3.139 1.147-4.096c.765-.956 1.853-1.435 3.264-1.435 1.411 0 2.504.493 3.279 1.479.775.986 1.163 2.357 1.163 4.11 0 1.753-.388 3.108-1.163 4.064zM65.92 81.613l-.417.029c-.994.08-1.873.349-2.638.808-.766.458-1.356 1.126-1.774 2.003v-1.675c0-.358-.109-.643-.328-.852a1.121 1.121 0 0 0-.805-.313c-.338 0-.626.104-.865.313-.238.209-.357.504-.357.882v12.615c0 .379.114.673.343.882.228.209.521.313.879.313.357 0 .646-.101.864-.3.218-.198.328-.498.328-.896v-7.265c0-1.115.323-2.087.969-2.914.646-.827 1.634-1.301 2.966-1.42l.894-.09c.437-.04.745-.154.924-.344.179-.189.269-.443.269-.763 0-.733-.418-1.073-1.252-1.013zm12.698.866c-1.054-.617-2.266-.927-3.637-.927s-2.578.31-3.622.927c-1.043.618-1.848 1.5-2.415 2.646-.566 1.146-.85 2.477-.85 3.991 0 1.514.283 2.845.85 3.989.566 1.146 1.371 2.027 2.415 2.646 1.043.618 2.25.929 3.622.929s2.583-.311 3.637-.929c1.053-.617 1.863-1.499 2.429-2.646s.85-2.477.85-3.989c0-1.514-.283-2.845-.85-3.991-.566-1.146-1.376-2.027-2.429-2.646zm-.343 10.777c-.765.947-1.863 1.42-3.294 1.42s-2.529-.478-3.294-1.435c-.765-.956-1.147-2.332-1.147-4.125 0-1.773.388-3.144 1.163-4.11.775-.966 1.868-1.45 3.279-1.45s2.504.483 3.279 1.45c.775.967 1.163 2.337 1.163 4.11-.001 1.814-.384 3.195-1.149 4.14zm20.36-11.315a1.224 1.224 0 0 0-.805-.299c-.477 0-.825.239-1.043.718l-5.978 11.15-4.978-11.21c-.1-.22-.244-.389-.432-.509a1.08 1.08 0 0 0-.582-.179c-.318 0-.611.109-.879.328-.268.22-.402.479-.402.777 0 .16.04.31.119.448l5.783 12.556c.139.26.328.463.566.612a1.392 1.392 0 0 0 1.521 0c.238-.149.417-.354.537-.612l6.813-12.556a.952.952 0 0 0 .119-.478.939.939 0 0 0-.359-.746z"/><path fill="#FFF" d="M45.596 117.779a.823.823 0 0 0-.352-.391.985.985 0 0 0-.504-.137.986.986 0 0 0-.505.137.821.821 0 0 0-.351.391l-3.526 7.598a.79.79 0 0 0-.077.333c0 .196.081.362.243.499s.34.205.537.205a.761.761 0 0 0 .396-.107.742.742 0 0 0 .281-.341l.767-1.717h4.497l.767 1.717a.742.742 0 0 0 .281.341.736.736 0 0 0 .383.107.805.805 0 0 0 .543-.205.639.639 0 0 0 .236-.499.79.79 0 0 0-.077-.333l-3.539-7.598zm-2.53 5.189l1.687-3.805 1.686 3.805h-3.373zm12.27-2.614a2.6 2.6 0 0 0-1.437-.41c-.452 0-.854.099-1.207.289a1.958 1.958 0 0 0-.812.813v-.319a.728.728 0 0 0-.217-.552c-.145-.137-.337-.204-.575-.204-.238 0-.428.067-.568.204-.14.138-.211.32-.211.552v7.266c0 .222.075.4.224.537.149.138.343.205.582.205.238 0 .43-.063.575-.191s.217-.305.217-.525v-2.613c.187.335.456.596.805.781.349.188.745.282 1.188.282a2.64 2.64 0 0 0 1.443-.397c.417-.264.743-.641.978-1.127.234-.485.351-1.055.351-1.702 0-.649-.117-1.226-.351-1.726-.235-.501-.563-.889-.985-1.163zm-.683 4.35c-.281.346-.673.519-1.175.519-.511 0-.905-.175-1.182-.523-.277-.352-.416-.848-.416-1.486 0-.646.139-1.146.416-1.498.276-.351.67-.523 1.182-.523.502 0 .894.179 1.175.537.281.357.421.861.421 1.513.001.626-.14 1.114-.421 1.461zm8.361-4.35a2.6 2.6 0 0 0-1.437-.41c-.452 0-.854.099-1.207.289a1.958 1.958 0 0 0-.812.813v-.319a.728.728 0 0 0-.217-.552c-.145-.137-.336-.204-.575-.204-.239 0-.428.067-.568.204-.14.138-.211.32-.211.552v7.266c0 .222.075.4.224.537.149.138.343.205.581.205.239 0 .43-.063.575-.191s.217-.305.217-.525v-2.613c.187.335.455.596.805.781.349.188.745.282 1.188.282a2.64 2.64 0 0 0 1.443-.397c.417-.264.743-.641.978-1.127.234-.485.351-1.055.351-1.702 0-.649-.117-1.226-.351-1.726s-.562-.889-.984-1.163zm-.683 4.35c-.281.346-.673.519-1.175.519-.511 0-.905-.175-1.182-.523-.277-.352-.415-.848-.415-1.486 0-.646.138-1.146.415-1.498.277-.351.671-.523 1.182-.523.502 0 .894.179 1.175.537.281.357.421.861.421 1.513 0 .626-.14 1.114-.421 1.461zm4.126-7.436c-.23 0-.419.063-.568.191s-.224.316-.224.563v7.648c0 .248.074.438.224.57.149.133.338.197.568.197s.421-.064.575-.197c.153-.133.23-.322.23-.57v-7.648c0-.246-.077-.436-.23-.563a.87.87 0 0 0-.575-.191zm3.245-.142c-.29 0-.52.077-.689.229-.171.153-.256.357-.256.615 0 .256.085.463.256.62.17.158.4.237.689.237s.52-.079.69-.237a.805.805 0 0 0 .255-.62.774.774 0 0 0-.262-.615c-.175-.152-.402-.229-.683-.229zm0 2.845a.84.84 0 0 0-.568.191c-.149.128-.224.316-.224.563v4.945c0 .248.075.438.224.57.149.133.338.197.568.197s.422-.064.575-.197c.153-.133.23-.322.23-.57v-4.945c0-.246-.077-.436-.23-.563a.87.87 0 0 0-.575-.191zm5.314-.028c-.63 0-1.188.138-1.673.41a2.84 2.84 0 0 0-1.131 1.16c-.268.5-.402 1.072-.402 1.723 0 .647.128 1.218.383 1.705.255.484 1.339 2.199 2.807 2.059s1-2 1-2-2.495-.059-2.542-1.789c0-.648.143-1.146.428-1.492.285-.346 1.22-.519 1.22-.519l1.501.415c.705.196.393 1.385.393 1.385s.763.895 1-1-2.39-2.057-2.984-2.057zm-44.38-2.548c0-1.65-1.334-2.99-2.981-2.99s-2.98 1.34-2.98 2.99 1.334 2.988 2.98 2.988 2.981-1.338 2.981-2.988zm-2.981 2.988a4.689 4.689 0 0 0-4.684 4.691c0 3.979 9.368 3.979 9.368 0a4.687 4.687 0 0 0-4.684-4.691z" opacity=".4"/><path fill="#FEC118" d="M140.729 137.389c-.397-.639-.795-1.138-1.193-1.496a3.664 3.664 0 0 0-1.344-.775c1.791-.221 3.17-.838 4.135-1.854.965-1.018 1.447-2.361 1.447-4.035 0-1.976-.604-3.471-1.808-4.485-1.202-1.017-2.948-1.524-5.235-1.524h-7.402c-.379 0-.682.109-.91.329s-.344.509-.344.867v18.774c0 .379.109.684.328.912s.518.344.896.344c.356 0 .646-.114.865-.344.219-.229.328-.533.328-.912v-7.805h3.761c.955 0 1.711.155 2.27.465.558.311 1.095.873 1.61 1.688l3.999 6.338c.26.397.616.601 1.075.601.298 0 .562-.098.791-.285a.906.906 0 0 0 .343-.731c0-.239-.07-.469-.209-.688l-3.403-5.384zm-4.208-4.037h-6.028v-8.103h6.028c1.649 0 2.875.329 3.67.985.797.658 1.193 1.664 1.193 3.021 0 1.376-.402 2.402-1.208 3.08-.805.679-2.025 1.017-3.655 1.017zm23.727 8.52c0-.279-.08-.508-.238-.688a.733.733 0 0 0-.565-.27c-.18 0-.527.148-1.045.449a13.37 13.37 0 0 1-1.791.852c-.559.209-1.226.314-2 .314-3.063 0-4.687-1.715-4.864-5.145h9.61c.356 0 .615-.09.774-.27.159-.182.238-.469.238-.867 0-2.112-.558-3.786-1.673-5.021-1.112-1.234-2.614-1.854-4.506-1.854-1.334 0-2.521.317-3.565.956s-1.854 1.529-2.435 2.677c-.576 1.146-.864 2.468-.864 3.961 0 2.354.651 4.196 1.954 5.531 1.305 1.336 3.08 2.003 5.328 2.003.756 0 1.531-.104 2.328-.313a9.042 9.042 0 0 0 2.269-.941c.696-.417 1.045-.876 1.045-1.374zm-9.088-9.418c.766-.797 1.784-1.196 3.06-1.196 1.254 0 2.229.395 2.926 1.182.694.787 1.063 1.918 1.104 3.396h-8.443c.133-1.458.589-2.584 1.353-3.382zm13.984-9.179c-.479 0-.865.14-1.164.418-.299.279-.446.639-.446 1.076 0 .459.147.828.446 1.105s.688.418 1.164.418c.478 0 .864-.141 1.164-.418.299-.277.446-.646.446-1.105 0-.438-.147-.797-.446-1.076-.3-.278-.688-.418-1.164-.418zm0 6.161c-.356 0-.651.104-.881.313-.229.21-.344.504-.344.883v13.992c0 1.097-.214 1.883-.643 2.36-.428.479-1.09.748-1.983.809l-.836.061c-.694.08-1.045.39-1.045.928 0 .339.125.593.373.763.25.169.623.233 1.118.194l.837-.062c1.571-.118 2.729-.599 3.477-1.436.747-.839 1.119-2.095 1.119-3.769V130.63c0-.379-.108-.673-.328-.883-.219-.208-.507-.311-.864-.311zm17.637 7.682c.157-.181.237-.468.237-.867 0-2.112-.558-3.786-1.67-5.022-1.115-1.233-2.617-1.854-4.509-1.854-1.333 0-2.521.318-3.565.956-1.045.639-1.854 1.53-2.433 2.677-.577 1.146-.866 2.467-.866 3.961 0 2.354.651 4.196 1.955 5.531 1.303 1.336 3.079 2.003 5.327 2.003.757 0 1.532-.104 2.328-.313s1.554-.521 2.269-.94c.696-.418 1.045-.877 1.045-1.375 0-.279-.08-.508-.237-.688a.731.731 0 0 0-.565-.271c-.181 0-.527.149-1.046.448-.637.359-1.233.644-1.791.853-.557.209-1.224.313-2 .313-3.063 0-4.686-1.715-4.864-5.144h9.61c.356.003.616-.088.775-.268zm-10.326-1.285c.139-1.455.592-2.581 1.356-3.379.767-.797 1.785-1.196 3.061-1.196 1.253 0 2.229.395 2.925 1.182s1.063 1.918 1.104 3.396l-8.446-.003zm24.712 5.053c-.141 0-.311.05-.507.149-.199.1-.408.22-.627.357-.498.34-.99.607-1.479.809-.488.199-1.068.299-1.746.299-1.451 0-2.58-.479-3.388-1.436-.806-.957-1.209-2.313-1.209-4.065s.403-3.125 1.209-4.11c.808-.986 1.937-1.479 3.388-1.479.678 0 1.25.1 1.717.299.469.199.959.469 1.479.809.039.021.113.068.224.147.108.08.244.16.402.237.159.08.309.121.448.121.237 0 .432-.09.582-.271.147-.179.223-.408.223-.688 0-.276-.073-.531-.223-.763-.15-.229-.403-.463-.763-.702a6.272 6.272 0 0 0-1.955-.912 8.306 8.306 0 0 0-2.254-.313c-1.373 0-2.586.318-3.642.956-1.055.639-1.875 1.535-2.462 2.69s-.88 2.48-.88 3.978c0 1.494.282 2.812.851 3.946.566 1.136 1.373 2.014 2.418 2.631s2.242.927 3.596.927c.798 0 1.588-.114 2.373-.344s1.457-.533 2.017-.912c.377-.259.638-.493.774-.702.139-.209.209-.443.209-.703 0-.277-.073-.508-.226-.688a.69.69 0 0 0-.549-.267zm10.445 1.643l-.807-.062c-.896-.06-1.565-.333-2.015-.821-.448-.486-.672-1.279-.672-2.377v-7.623h3.313c.316 0 .57-.084.762-.254a.868.868 0 0 0 .283-.675c0-.299-.097-.536-.283-.717-.189-.181-.443-.271-.762-.271h-3.313v-3.379c0-.379-.109-.672-.328-.883-.22-.209-.508-.313-.866-.313-.378 0-.677.104-.896.313-.219.211-.326.504-.326.883v3.379h-2c-.338 0-.604.09-.791.271s-.283.418-.283.717c0 .279.096.505.283.675s.453.254.791.254h2v7.504c0 1.695.378 2.961 1.135 3.798.756.837 1.932 1.315 3.521 1.436l.807.06c.497.041.87-.023 1.119-.192s.373-.423.373-.765c0-.578-.347-.897-1.045-.958z"/><path fill="#FFF" d="M143.737 165.605a.83.83 0 0 0-.352-.392 1.005 1.005 0 0 0-.507-.135c-.18 0-.349.045-.506.135a.858.858 0 0 0-.353.392l-3.528 7.6a.78.78 0 0 0-.077.333c0 .196.081.362.243.5a.81.81 0 0 0 .536.205.74.74 0 0 0 .396-.109.715.715 0 0 0 .281-.339l.769-1.718h4.502l.769 1.718a.714.714 0 0 0 .28.339.725.725 0 0 0 .386.109.805.805 0 0 0 .543-.205.641.641 0 0 0 .235-.5.78.78 0 0 0-.076-.333l-3.541-7.6zm-2.532 5.191l1.688-3.806 1.688 3.806h-3.376zm12.286-2.612a2.602 2.602 0 0 0-1.438-.41c-.453 0-.854.097-1.21.287a1.978 1.978 0 0 0-.813.813v-.319c0-.229-.071-.414-.219-.552-.146-.137-.336-.205-.574-.205s-.43.068-.568.205c-.141.138-.212.32-.212.552v7.266c0 .223.075.4.226.537.147.139.344.205.582.205.237 0 .432-.063.575-.19s.218-.306.218-.524v-2.613c.188.332.457.594.807.781s.746.28 1.189.28c.545 0 1.026-.132 1.444-.396.417-.266.743-.642.979-1.127.233-.487.353-1.057.353-1.705s-.117-1.225-.353-1.725c-.236-.502-.564-.888-.986-1.16zm-.683 4.348c-.281.346-.675.52-1.178.52-.512 0-.904-.176-1.184-.524-.276-.352-.415-.846-.415-1.485 0-.647.139-1.147.415-1.5.275-.351.672-.524 1.184-.524.503 0 .896.18 1.178.539.28.357.422.861.422 1.512-.001.627-.142 1.118-.422 1.462zm8.373-4.348a2.606 2.606 0 0 0-1.438-.41c-.453 0-.854.097-1.209.287a1.978 1.978 0 0 0-.813.813v-.319a.725.725 0 0 0-.218-.552c-.146-.137-.337-.205-.575-.205s-.429.068-.568.205c-.143.138-.213.32-.213.552v7.266c0 .223.076.4.227.537.146.139.344.205.582.205.236 0 .43-.063.574-.19a.666.666 0 0 0 .219-.524v-2.613c.188.332.456.594.807.781.35.188.745.28 1.189.28.545 0 1.025-.132 1.443-.396s.744-.642.979-1.127c.233-.487.353-1.057.353-1.705s-.117-1.225-.353-1.725c-.236-.502-.564-.888-.986-1.16zm-.687 4.348c-.281.346-.675.52-1.179.52-.512 0-.904-.176-1.183-.524-.276-.352-.416-.846-.416-1.485 0-.647.14-1.147.416-1.5.276-.351.671-.524 1.183-.524.504 0 .896.18 1.179.539.28.357.422.861.422 1.512 0 .627-.142 1.118-.422 1.462zm4.131-7.438a.836.836 0 0 0-.567.192c-.148.128-.226.315-.226.563v7.648c0 .248.075.438.226.568.147.134.34.199.567.199a.845.845 0 0 0 .576-.199c.153-.133.229-.32.229-.568v-7.648c0-.248-.076-.438-.229-.563a.87.87 0 0 0-.576-.192zm3.25-.141c-.291 0-.521.076-.69.23a.783.783 0 0 0-.256.613c0 .258.086.464.256.621.172.158.399.236.69.236.289 0 .521-.078.688-.236a.798.798 0 0 0 .256-.621.775.775 0 0 0-.262-.613c-.172-.154-.401-.23-.682-.23zm0 2.845a.83.83 0 0 0-.567.192c-.149.128-.226.316-.226.563v4.946c0 .248.074.438.226.569.147.133.338.199.567.199s.422-.066.575-.199c.152-.133.229-.321.229-.569v-4.946c0-.246-.076-.436-.229-.563a.873.873 0 0 0-.575-.192zm7.149 4.651a.731.731 0 0 0-.28.058 2.4 2.4 0 0 0-.333.173 5.282 5.282 0 0 1-.559.264 1.585 1.585 0 0 1-.567.097c-.529 0-.937-.173-1.224-.521-.285-.346-.429-.838-.429-1.479 0-.648.144-1.146.429-1.493.287-.346.692-.519 1.224-.519.222 0 .418.031.588.096.171.064.351.15.538.264.104.061.204.11.307.152.104.043.2.064.295.064.146 0 .264-.06.353-.174a.72.72 0 0 0 .135-.455c0-.272-.138-.5-.409-.68a3.314 3.314 0 0 0-.89-.385 3.642 3.642 0 0 0-1.005-.143c-.631 0-1.188.139-1.676.41a2.857 2.857 0 0 0-1.131 1.159c-.271.5-.402 1.074-.402 1.724 0 .65.128 1.219.384 1.705s.62.862 1.094 1.127c.474.267 1.021.396 1.644.396.367 0 .727-.049 1.074-.146a3.36 3.36 0 0 0 .922-.402c.146-.085.25-.184.313-.288s.097-.231.097-.378a.696.696 0 0 0-.142-.448.444.444 0 0 0-.35-.178zm4.26-4.678c-.401 0-.809.047-1.223.142a4.166 4.166 0 0 0-1.067.385c-.17.095-.292.194-.364.302a.668.668 0 0 0-.107.377c0 .182.049.325.146.438a.493.493 0 0 0 .378.167c.104 0 .266-.058.485-.167.35-.139.651-.241.907-.313a2.79 2.79 0 0 1 .756-.108c.4 0 .688.097.869.288s.27.498.27.916v.295h-.318c-.931 0-1.658.061-2.188.18-.529.12-.91.313-1.146.577-.236.265-.353.627-.353 1.089 0 .367.098.7.293.999.196.3.465.534.808.705.34.171.721.256 1.139.256.408 0 .771-.094 1.08-.28.313-.188.539-.449.686-.783v.283c0 .224.068.4.211.537s.321.205.544.205c.238 0 .427-.066.563-.197.138-.134.205-.313.205-.545v-3.127c0-.88-.211-1.535-.633-1.968-.425-.436-1.072-.653-1.941-.653zm1.049 3.833c0 .453-.134.822-.402 1.108s-.615.429-1.041.429a1.01 1.01 0 0 1-.712-.263.87.87 0 0 1-.286-.672c0-.224.066-.397.203-.524.137-.13.362-.219.68-.271.313-.052.759-.077 1.33-.077h.229v.27h-.001zm6.396 1.473l-.347-.025c-.579-.043-.868-.381-.868-1.013v-2.908h1.088c.229 0 .405-.052.528-.154.124-.103.187-.252.187-.447s-.063-.346-.187-.447c-.123-.104-.3-.154-.528-.154h-1.088v-1.179c0-.229-.072-.414-.219-.551-.146-.138-.337-.205-.574-.205-.248 0-.443.067-.59.205-.146.137-.218.319-.218.551v1.179h-.64c-.229 0-.407.053-.53.154s-.187.252-.187.447.063.347.187.447c.123.104.301.154.53.154h.64v2.793c0 1.436.717 2.204 2.147 2.307l.347.025c.308.018.545-.027.711-.135s.249-.264.249-.469c.001-.357-.214-.548-.638-.575zm2.263-5.279a.835.835 0 0 0-.568.192c-.149.128-.225.316-.225.563v4.946c0 .248.073.438.225.569.148.133.339.199.568.199s.422-.066.575-.199c.152-.133.229-.321.229-.569v-4.946c0-.246-.077-.436-.229-.563a.857.857 0 0 0-.575-.192zm0-2.845c-.289 0-.521.076-.69.23-.171.152-.256.357-.256.613 0 .258.085.464.256.621.172.158.401.236.69.236.29 0 .521-.078.69-.236a.805.805 0 0 0 .256-.621.77.77 0 0 0-.264-.613c-.172-.154-.402-.23-.682-.23zm6.989 3.216c-.48-.265-1.043-.396-1.683-.396s-1.2.132-1.682.396a2.77 2.77 0 0 0-1.119 1.136c-.267.49-.396 1.064-.396 1.723 0 .66.131 1.234.396 1.729s.637.876 1.119 1.142c.481.266 1.042.396 1.682.396s1.2-.132 1.683-.396a2.713 2.713 0 0 0 1.113-1.142c.258-.495.391-1.071.391-1.729 0-.656-.131-1.23-.391-1.723s-.629-.869-1.113-1.136zm-.502 4.37c-.272.342-.67.513-1.189.513-.512 0-.904-.171-1.178-.513-.272-.342-.409-.846-.409-1.514 0-.656.139-1.158.416-1.504.276-.348.672-.521 1.185-.521.512 0 .903.174 1.176.521.273.346.41.848.41 1.504-.002.668-.14 1.172-.411 1.514zm6.958-4.768c-.451 0-.855.095-1.215.28a2.144 2.144 0 0 0-.856.81v-.346a.676.676 0 0 0-.212-.521.757.757 0 0 0-.543-.198c-.248 0-.442.068-.588.205a.703.703 0 0 0-.219.538v4.959c0 .238.069.427.211.563.141.137.336.205.582.205.247 0 .442-.067.59-.205.146-.138.217-.324.217-.563v-2.855c0-.487.14-.877.416-1.166.277-.291.646-.438 1.104-.438.394 0 .681.109.863.333s.274.576.274 1.063v3.063c0 .238.071.427.219.563.145.138.341.205.589.205.246 0 .438-.067.582-.205.141-.138.211-.324.211-.563v-3.15c0-.863-.185-1.51-.552-1.937-.366-.427-.923-.64-1.673-.64zm12.854 5.088h-3.377l2.213-2.357c.526-.564.904-1.074 1.125-1.531.224-.457.333-.945.333-1.468 0-.751-.264-1.351-.786-1.794-.524-.443-1.228-.666-2.104-.666a4.54 4.54 0 0 0-1.51.264 4.36 4.36 0 0 0-1.316.711.84.84 0 0 0-.225.271.736.736 0 0 0-.069.333.77.77 0 0 0 .157.484c.107.139.232.205.379.205a.618.618 0 0 0 .257-.058c.085-.038.171-.087.256-.147.333-.229.663-.41.989-.543a2.693 2.693 0 0 1 1.02-.199c.428 0 .754.106.984.32.229.213.346.521.346.922 0 .326-.084.651-.25.98s-.428.689-.787 1.083l-2.916 3.14a.991.991 0 0 0-.294.691c0 .195.063.359.192.493.127.133.303.198.521.198h4.861c.512 0 .768-.228.768-.681.002-.433-.255-.651-.767-.651zm-86.522-7.638c0-1.65-1.336-2.988-2.983-2.988s-2.984 1.338-2.984 2.988c0 1.651 1.337 2.99 2.984 2.99s2.983-1.339 2.983-2.99zm-2.986 2.99a4.69 4.69 0 0 0-4.69 4.693c0 3.979 9.381 3.979 9.381 0a4.693 4.693 0 0 0-4.691-4.693z" opacity=".4"/><path fill="#FFF" d="M145.649 2.131a1 1 0 0 0-1.354.405L44.699 179.684a1 1 0 1 0 1.76.949L146.058 3.485a1.001 1.001 0 0 0-.409-1.354z"/></svg>