<svg id="Слой_1" xmlns="http://www.w3.org/2000/svg" viewBox="0 0 298.2 26.5"><style>.st0{fill:#fff}</style><path class="st0" d="M23 11.7H12.5c-.8 0-1.5.7-1.5 1.5s.7 1.5 1.5 1.5h8.9c0 1.3 0 3.1-.1 4.1 0 .2-.1.4-.2.5-2.2 2.8-5.6 4.3-9.2 3.9-4.7-.5-8.5-4.2-9-8.9-.3-2.9.6-5.8 2.5-7.9C7.3 4.2 10.1 3 13 3c2.4 0 4.8.9 6.7 2.5.6.6 1.6.5 2.2-.2.6-.6.5-1.6-.2-2.2C19.4 1.2 16.3 0 13.1 0 9.4 0 5.8 1.6 3.3 4.4.8 7.2-.4 11 0 14.7c.7 6.1 5.6 11 11.7 11.6.5 0 .9.1 1.4.1 4.1 0 8-1.9 10.5-5.2.5-.6.8-1.4.8-2.3.1-1.7.1-5.6.1-5.7 0-.8-.7-1.5-1.5-1.5M37.1 0c-.8 0-1.5.7-1.5 1.5v23.4c0 .8.7 1.5 1.5 1.5s1.5-.7 1.5-1.5V1.5C38.7.7 38 0 37.1 0m108.7 1.2c-.2-.6-.8-.9-1.4-.9-.6 0-1.2.4-1.4 1l-9.5 23.1c-.3.8.1 1.7.8 2 .2.1.4.1.6.1.6 0 1.2-.4 1.4-1l8.1-19.7 8.4 19.7c.3.8 1.2 1.1 2 .8.8-.3 1.1-1.2.8-2l-9.8-23.1zM84.5 0c-.9 0-1.5.7-1.5 1.5v23.4c0 .8.7 1.5 1.5 1.5s1.5-.7 1.5-1.5V1.5c0-.8-.7-1.5-1.5-1.5m101.9 19.1c-.7-.5-1.6-.4-2.2.3-2.2 2.8-5.6 4.3-9.2 3.9-4.7-.5-8.5-4.2-9-8.9-.3-2.9.6-5.8 2.5-7.9 1.9-2.2 4.7-3.4 7.6-3.4 2.4 0 4.8.9 6.7 2.5.6.6 1.6.5 2.2-.2.6-.6.5-1.6-.2-2.2-2.4-2.1-5.5-3.2-8.7-3.2-3.8 0-7.4 1.6-9.9 4.4-2.5 2.8-3.7 6.6-3.3 10.3.7 6.1 5.6 11 11.7 11.6.5 0 .9.1 1.4.1 4.1 0 8-1.9 10.5-5.2.7-.6.6-1.6-.1-2.1M70 0c-.8 0-1.5.7-1.5 1.5V21L54.1 1.3s0-.1-.1-.1C53.3.4 52.3.1 51.3.5c-1 .4-1.6 1.2-1.6 2.3V25c0 .8.7 1.5 1.5 1.5s1.5-.7 1.5-1.5V4.7L67.6 25s0 .1.1.1c.6.7 1.6 1 2.5.6.9-.3 1.5-1.1 1.5-2.1V1.5C71.6.7 70.9 0 70 0m160.9 0c-.8 0-1.5.7-1.5 1.5v23.4c0 .8.7 1.5 1.5 1.5s1.5-.7 1.5-1.5V1.5c0-.8-.7-1.5-1.5-1.5m-15.4 0c-.8 0-1.5.7-1.5 1.5v9.8h-14.8V1.5c0-.8-.7-1.5-1.5-1.5s-1.5.7-1.5 1.5v23.4c0 .8.7 1.5 1.5 1.5s1.5-.7 1.5-1.5V14.5H214V25c0 .8.7 1.5 1.5 1.5s1.5-.7 1.5-1.5V1.5c.1-.8-.6-1.5-1.5-1.5m63.4 3.1h17.8c.8 0 1.5-.7 1.5-1.5s-.7-1.5-1.5-1.5h-17.8c-.8 0-1.5.7-1.5 1.5-.1.8.6 1.5 1.5 1.5m17.8 11.7c.8 0 1.5-.7 1.5-1.5s-.7-1.5-1.5-1.5h-17.8c-.8 0-1.5.7-1.5 1.5V25c0 .8.7 1.5 1.5 1.5h17.8c.8 0 1.5-.7 1.5-1.5s-.7-1.5-1.5-1.5h-16.3v-8.6h16.3zM265 0c-.8 0-1.5.7-1.5 1.5V21L249.1 1.3s0-.1-.1-.1c-.7-.8-1.7-1.1-2.7-.7-1 .4-1.6 1.2-1.6 2.3V25c0 .8.7 1.5 1.5 1.5s1.5-.7 1.5-1.5V4.7L262.6 25s0 .1.1.1c.6.7 1.6 1 2.5.6.9-.3 1.5-1.1 1.5-2.1V1.5c-.1-.8-.8-1.5-1.7-1.5M122.9.5c-1-.4-2.1-.1-2.8.7-.1.1-.1.1-.1.2l-8.8 13.4-9-13.4c0-.1-.1-.1-.1-.2-.7-.8-1.8-1-2.8-.7-1 .4-1.6 1.2-1.6 2.2v22.2c0 .8.7 1.5 1.5 1.5s1.5-.7 1.5-1.5V4.7l8.2 12.2v.1c.5.7 1.3 1.1 2.2 1.1.9 0 1.7-.4 2.2-1.1v-.1l8-12.1v20.1c0 .8.7 1.5 1.5 1.5s1.5-.7 1.5-1.5V2.7c.2-1-.4-1.9-1.4-2.2"/></svg>