<svg id="Фигура_574_1_" xmlns="http://www.w3.org/2000/svg" viewBox="0 0 16 17"><style>.st0{fill-rule:evenodd;clip-rule:evenodd;fill:#fec902}</style><path class="st0" d="M14.9 1.2C13.4-.4 11-.4 9.5 1.2c0 0-7.9 8.5-8.3 8.9-.2.3-.2.7 0 .9.2.3.6.3.9 0 .4-.4 8.3-8.9 8.3-8.9C11.3 1 13 1 14 2.1v.1c1 1.1 1 2.8 0 3.9L5.7 15c-.4.4-.8.7-1.3.7-.4 0-.8-.2-1.2-.5 0 0-.3-.4-.4-.9-.1-.5.1-1.1.6-1.6.2-.2 8.1-8.7 8.1-8.7.2-.2.5-.2.7 0 .2.2.2.6 0 .8l-8.1 8.7c-.2.3-.2.7 0 .9.2.3.6.3.9 0l8.1-8.7c.7-.7.7-1.9 0-2.7-.7-.7-1.8-.7-2.5 0 0 0-7.9 8.5-8.1 8.7-1 1.1-1.1 2.1-1 2.8.1.9.6 1.4.8 1.6.6.6 1.3.9 2 .9h.1c.8 0 1.5-.4 2.1-1.1L14.9 7c.7-.8 1.1-1.8 1.1-2.9 0-1.1-.4-2.1-1.1-2.9z" id="Фигура_574"/></svg>