<svg xmlns="http://www.w3.org/2000/svg" width="692" height="604" viewBox="0 0 692 604"><path fill-rule="evenodd" clip-rule="evenodd" fill="#FFF" d="M233.898 593.062l-3.563 9.623h2.097l.657-1.982h3.458l.664 1.982h2.097l-3.583-9.623h-1.827zm-.276 6.034l1.19-3.602 1.203 3.602h-2.393zm15.651-5.132a3.276 3.276 0 0 0-1.131-.664 4.51 4.51 0 0 0-1.515-.238h-3.733v9.623h1.972v-3.391h1.762c.565 0 1.07-.071 1.515-.215a3.247 3.247 0 0 0 1.131-.611c.309-.264.544-.583.707-.958.162-.374.243-.795.243-1.263 0-.458-.081-.882-.243-1.271a2.844 2.844 0 0 0-.708-1.012zm-1.134 2.872a1.141 1.141 0 0 1-.286.452 1.313 1.313 0 0 1-.5.294 2.217 2.217 0 0 1-.727.106h-1.762v-3.021h1.762c.28 0 .522.044.727.132.204.089.37.206.5.354.129.148.225.317.286.509a1.938 1.938 0 0 1 0 1.174zm12.51-2.872a3.28 3.28 0 0 0-1.13-.664 4.51 4.51 0 0 0-1.515-.238h-3.734v9.623h1.972v-3.391h1.762c.565 0 1.07-.071 1.515-.215a3.251 3.251 0 0 0 1.13-.611c.309-.264.544-.583.707-.958.162-.374.243-.795.243-1.263 0-.458-.081-.882-.243-1.271a2.841 2.841 0 0 0-.707-1.012zm-1.134 2.872a1.152 1.152 0 0 1-.286.452 1.313 1.313 0 0 1-.5.294 2.214 2.214 0 0 1-.726.106h-1.762v-3.021h1.762c.28 0 .522.044.726.132.204.089.37.206.5.354.129.148.225.317.286.509.061.192.092.392.092.599s-.031.398-.092.575zm8.102-3.774h-1.972v9.623h6.159v-1.593h-4.187v-8.03zm8.135 9.623h1.972v-9.623h-1.972v9.623zm8.691-7.399c.326-.487.823-.73 1.489-.73.324 0 .601.038.828.115.228.077.414.191.559.341.145.149.255.335.332.555.077.221.126.474.148.761h1.972c-.048-.489-.162-.942-.342-1.358s-.43-.775-.75-1.077-.709-.538-1.167-.707c-.458-.17-.985-.255-1.581-.255-.604 0-1.152.108-1.643.324a3.456 3.456 0 0 0-1.252.925c-.344.401-.61.888-.799 1.461-.188.572-.282 1.214-.282 1.923v.635c0 .709.091 1.35.272 1.92s.442 1.057.782 1.457c.34.401.754.708 1.242.922.489.214 1.04.32 1.653.32.592 0 1.119-.082 1.581-.247.462-.166.855-.395 1.18-.688s.579-.645.763-1.055c.184-.409.293-.858.329-1.348h-1.972a2.635 2.635 0 0 1-.158.753c-.083.216-.2.396-.352.539-.151.143-.34.25-.565.32s-.494.105-.805.105c-.351 0-.649-.063-.897-.188s-.449-.313-.605-.564-.27-.564-.342-.938a7.008 7.008 0 0 1-.108-1.309v-.647c0-1.024.163-1.779.49-2.265zm12.056-2.224l-3.563 9.623h2.097l.657-1.982h3.458l.664 1.982h2.097l-3.583-9.623h-1.827zm-.276 6.034l1.19-3.602 1.203 3.602h-2.393zm7.892-4.428h2.892v8.017h1.972v-8.017h2.932v-1.606h-7.796v1.606zm11.737 8.017h1.972v-9.623h-1.972v9.623zm13.216-8.487c-.359-.409-.789-.724-1.288-.941s-1.05-.327-1.65-.327c-.601 0-1.15.109-1.65.327s-.929.532-1.289.941c-.359.41-.639.908-.838 1.494-.2.586-.299 1.245-.299 1.976v.424c0 .735.101 1.396.302 1.979.202.584.483 1.079.845 1.484s.792.717 1.292.935c.5.219 1.049.327 1.65.327.6 0 1.15-.108 1.65-.327.5-.218.928-.529 1.285-.935.357-.405.634-.9.831-1.484.197-.583.296-1.243.296-1.979v-.424c0-.73-.1-1.39-.299-1.976a4.372 4.372 0 0 0-.838-1.494zm-.861 3.894c0 1.009-.178 1.777-.533 2.306-.355.529-.865.794-1.531.794-.333 0-.629-.067-.888-.202a1.774 1.774 0 0 1-.654-.595c-.178-.262-.313-.586-.408-.972s-.141-.829-.141-1.331v-.437c0-1.009.18-1.775.539-2.3.359-.524.872-.787 1.538-.787s1.179.263 1.538.787.539 1.291.539 2.3v.437zm11.941 1.314l-3.845-6.345h-1.972v9.623h1.972v-6.331l3.838 6.331h1.972v-9.623h-1.965v6.345zm16.631-6.357l-3.963 1.428v1.553l2.268-.707v7.362h1.899v-9.636h-.204z"/><path fill="none" stroke="#FFF" stroke-miterlimit="10" d="M221.233 594.094c0-1.456-1.175-2.637-2.624-2.637s-2.624 1.181-2.624 2.637c0 1.457 1.175 2.638 2.624 2.638s2.624-1.181 2.624-2.638zm-2.623 2.637c-2.277 0-4.123 1.854-4.123 4.141 0 3.51 8.245 3.51 8.245 0 0-2.287-1.845-4.141-4.122-4.141z"/><path fill-rule="evenodd" clip-rule="evenodd" fill="#FFF" d="M2 601v-35H0v37h37v-2zm567-35v35h-35v2h37v-37zm0-566h-35v2h35v35h2V0zM37 0H0v37h2V2h35zm210.115 558.35l-7.117 18.67h2.535l1.753-4.873h7.809l1.779 4.873h2.521l-7.13-18.67h-2.15zm-2.086 11.771l3.162-8.732 3.175 8.732h-6.337zm23.808-5.276a4.817 4.817 0 0 0-1.696-1.443c-.67-.342-1.44-.513-2.311-.513-.879 0-1.651.154-2.317.462s-1.233.752-1.703 1.333l-.115-1.538h-2.163v19.208h2.368v-6.681c.469.521 1.03.919 1.683 1.192s1.415.41 2.285.41c.853 0 1.613-.175 2.278-.525s1.227-.84 1.683-1.468c.457-.629.804-1.372 1.043-2.231.239-.859.358-1.797.358-2.814v-.27c0-1.06-.118-2.023-.352-2.892-.232-.867-.58-1.611-1.041-2.23zm-.972 5.391c0 .692-.073 1.349-.218 1.968a4.92 4.92 0 0 1-.678 1.622c-.307.462-.693.83-1.158 1.104-.465.273-1.018.41-1.658.41-.41 0-.781-.047-1.114-.142a3.386 3.386 0 0 1-.896-.391c-.265-.167-.5-.367-.704-.603s-.384-.489-.538-.764v-6.629c.154-.273.333-.527.538-.763a3.283 3.283 0 0 1 1.594-1.006 3.967 3.967 0 0 1 1.094-.141c.648 0 1.208.135 1.677.403.469.27.858.635 1.165 1.097s.533.998.678 1.609.218 1.263.218 1.955v.271zm15.68-5.391a4.826 4.826 0 0 0-1.696-1.443c-.67-.342-1.44-.513-2.311-.513-.879 0-1.651.154-2.317.462a4.694 4.694 0 0 0-1.702 1.333l-.115-1.538h-2.163v19.208h2.368v-6.681c.469.521 1.031.919 1.684 1.192s1.414.41 2.285.41c.854 0 1.613-.175 2.278-.525a4.87 4.87 0 0 0 1.684-1.468c.456-.629.804-1.372 1.043-2.231s.358-1.797.358-2.814v-.27c0-1.06-.117-2.023-.352-2.892-.235-.867-.583-1.611-1.044-2.23zm-.973 5.391c0 .692-.072 1.349-.217 1.968a4.922 4.922 0 0 1-.679 1.622c-.307.462-.693.83-1.158 1.104-.465.273-1.018.41-1.658.41-.41 0-.781-.047-1.114-.142-.333-.094-.631-.224-.896-.391s-.499-.367-.704-.603a4.508 4.508 0 0 1-.538-.764v-6.629c.154-.273.333-.527.538-.763a3.27 3.27 0 0 1 1.594-1.006 4.013 4.013 0 0 1 1.095-.141c.648 0 1.207.135 1.677.403.469.27.857.635 1.165 1.097.308.462.533.998.679 1.609a8.45 8.45 0 0 1 .217 1.955v.271zm11.022-7.347c-.768 0-1.421.167-1.958.5a4.177 4.177 0 0 0-1.344 1.359l-.038-1.603h-2.304v13.874h2.368v-9.848c.256-.607.642-1.09 1.158-1.449s1.184-.539 2.003-.539a6.78 6.78 0 0 1 1.165.09v-2.205c-.085-.043-.239-.083-.461-.122a3.556 3.556 0 0 0-.589-.057zm13.261 2.026a5.76 5.76 0 0 0-1.991-1.487c-.781-.359-1.662-.539-2.643-.539-.964 0-1.835.18-2.611.539a5.721 5.721 0 0 0-1.978 1.487c-.542.633-.96 1.378-1.254 2.237s-.442 1.793-.442 2.802v.282c0 1.009.147 1.942.442 2.802s.714 1.603 1.261 2.231a5.797 5.797 0 0 0 1.984 1.475c.776.354 1.651.531 2.624.531.973 0 1.848-.177 2.625-.531a5.784 5.784 0 0 0 1.984-1.475c.546-.629.964-1.372 1.254-2.231s.435-1.793.435-2.802v-.282c0-1.009-.145-1.942-.435-2.802s-.709-1.604-1.255-2.237zm-.679 5.321c0 .692-.083 1.347-.25 1.962s-.412 1.156-.736 1.622c-.325.466-.734.836-1.229 1.109s-1.067.41-1.715.41c-.657 0-1.231-.137-1.722-.41s-.9-.644-1.229-1.109c-.329-.466-.574-1.007-.736-1.622s-.243-1.27-.243-1.962v-.282c0-.684.081-1.336.243-1.955.162-.62.408-1.163.736-1.629a3.752 3.752 0 0 1 1.222-1.115c.486-.278 1.054-.417 1.703-.417.657 0 1.233.139 1.728.417.495.277.907.649 1.235 1.115a5.09 5.09 0 0 1 .742 1.629c.167.619.25 1.271.25 1.955v.282zm9.716 3.565l-3.52-10.655h-2.419l5.018 13.874h1.805l4.966-13.874h-2.419l-3.431 10.655zm19.111-4.104c0-.975-.111-1.876-.333-2.705-.222-.829-.565-1.547-1.031-2.154a4.868 4.868 0 0 0-1.772-1.43c-.717-.347-1.57-.52-2.561-.52-.785 0-1.54.16-2.266.481-.725.32-1.37.784-1.933 1.391s-1.014 1.355-1.351 2.244c-.337.89-.505 1.897-.505 3.026v.538c0 .975.149 1.872.448 2.693a6.18 6.18 0 0 0 1.28 2.122 5.838 5.838 0 0 0 2.003 1.391c.781.334 1.653.5 2.618.5.691 0 1.31-.074 1.856-.224.546-.149 1.03-.351 1.453-.603s.792-.539 1.107-.859c.315-.32.584-.652.806-.994l-1.446-1.128a5.345 5.345 0 0 1-1.523 1.359c-.58.342-1.289.513-2.125.513-.632 0-1.197-.12-1.696-.359s-.926-.564-1.28-.975a4.376 4.376 0 0 1-.819-1.449 5.94 5.94 0 0 1-.314-1.795h9.383v-1.063zm-2.368-.884h-6.938c.077-.641.22-1.209.429-1.705s.472-.91.787-1.244a3.301 3.301 0 0 1 1.075-.763 3.262 3.262 0 0 1 1.318-.263c.606 0 1.114.111 1.523.333.41.223.745.514 1.005.872.26.359.452.766.576 1.219.124.453.198.91.224 1.372v.179zm-63.583-39.845a6.393 6.393 0 0 0-2.535-1.813c-.983-.386-2.073-.579-3.268-.579s-2.282.193-3.26.579a6.39 6.39 0 0 0-2.526 1.813c-.707.822-1.252 1.873-1.638 3.151-.386 1.279-.579 2.812-.579 4.597v4.131c0 1.785.196 3.317.587 4.597s.939 2.332 1.646 3.159 1.551 1.435 2.535 1.82c.983.387 2.073.58 3.268.58s2.285-.193 3.268-.58a6.273 6.273 0 0 0 2.526-1.82c.701-.827 1.244-1.88 1.63-3.159.385-1.279.579-2.812.579-4.597v-4.131c0-1.785-.196-3.317-.587-4.597-.39-1.278-.939-2.329-1.646-3.151zm-2.477 12.499c0 1.067-.073 1.965-.22 2.694-.147.729-.359 1.32-.636 1.771-.277.452-.623.776-1.035.972-.413.196-.88.294-1.402.294s-.989-.098-1.402-.294c-.413-.195-.761-.52-1.043-.972-.283-.451-.5-1.042-.652-1.771-.152-.729-.229-1.627-.229-2.694v-5.421c0-1.056.073-1.942.22-2.661.146-.719.361-1.298.644-1.739.282-.44.627-.759 1.035-.955a3.192 3.192 0 0 1 1.394-.294c.522 0 .989.099 1.402.294.413.196.763.515 1.051.955.288.441.505 1.021.652 1.739.146.719.22 1.605.22 2.661v5.421zm12.934 5.087a2.584 2.584 0 0 0-.848-.531 2.99 2.99 0 0 0-1.1-.195c-.402 0-.766.065-1.092.195a2.6 2.6 0 0 0-.839.531c-.234.223-.413.489-.538.8s-.188.645-.188 1.004.063.691.188.996.304.569.538.792c.233.224.513.397.839.522s.69.188 1.092.188c.402 0 .769-.063 1.1-.188.331-.125.614-.299.848-.522.233-.223.413-.487.538-.792s.188-.637.188-.996-.063-.693-.188-1.004-.305-.578-.538-.8zm18.263-17.3c-.695-.85-1.541-1.508-2.535-1.976s-2.1-.702-3.317-.702-2.317.223-3.301.669-1.82 1.051-2.51 1.813c-.69.763-1.222 1.652-1.597 2.67s-.563 2.104-.563 3.258c0 1.143.149 2.201.448 3.176.299.974.742 1.817 1.329 2.53s1.312 1.273 2.176 1.682c.864.408 1.855.612 2.975.612.836 0 1.622-.163 2.355-.489a6.584 6.584 0 0 0 1.948-1.323c-.087.937-.296 1.764-.627 2.482s-.799 1.322-1.402 1.813c-.603.489-1.345.862-2.225 1.118-.88.256-1.918.384-3.113.384h-.326v3.935h.375c2.032 0 3.803-.31 5.313-.93 1.51-.621 2.769-1.5 3.773-2.638 1.005-1.137 1.758-2.503 2.258-4.099.5-1.594.75-3.365.75-5.314v-1.649c0-1.447-.19-2.768-.57-3.959-.38-1.194-.918-2.214-1.614-3.063zm-2.526 8.115a3.928 3.928 0 0 1-1.247 1.42c-.549.393-1.204.588-1.964.588-.576 0-1.076-.116-1.5-.351a3.03 3.03 0 0 1-1.051-.964c-.277-.408-.486-.879-.627-1.412s-.212-1.104-.212-1.715c0-.588.071-1.153.212-1.697a4.902 4.902 0 0 1 .627-1.454 3.386 3.386 0 0 1 1.019-1.021 2.531 2.531 0 0 1 1.385-.383c.478 0 .921.104 1.329.31.407.207.763.521 1.067.939s.541.944.709 1.575c.168.632.253 1.372.253 2.221v1.944zm23.031 3.356c-.674-.975-1.586-1.739-2.738-2.295 1.011-.533 1.804-1.246 2.38-2.139.576-.893.864-1.916.864-3.069 0-1.078-.185-2.027-.554-2.85a5.818 5.818 0 0 0-1.557-2.082c-.668-.565-1.461-.993-2.38-1.281-.918-.288-1.926-.433-3.023-.433s-2.105.145-3.023.433c-.918.288-1.709.716-2.372 1.281a5.948 5.948 0 0 0-1.557 2.082c-.375.822-.563 1.771-.563 2.85 0 1.153.285 2.177.856 3.069.57.893 1.361 1.605 2.372 2.139-1.141.545-2.048 1.307-2.722 2.286s-1.011 2.129-1.011 3.445c0 1.133.204 2.123.611 2.972.408.85.97 1.563 1.687 2.139.717.577 1.567 1.011 2.551 1.299s2.046.433 3.187.433c1.151 0 2.217-.145 3.194-.433.978-.288 1.823-.722 2.535-1.299a6.024 6.024 0 0 0 1.671-2.139c.402-.849.603-1.839.603-2.972 0-1.316-.337-2.463-1.011-3.436zm-9.062-9.528c.489-.545 1.174-.816 2.054-.816.891 0 1.581.28 2.07.841.489.561.733 1.304.733 2.229 0 .947-.242 1.709-.726 2.286s-1.171.865-2.062.865c-.892 0-1.581-.288-2.07-.865-.489-.577-.733-1.339-.733-2.286 0-.959.245-1.71.734-2.254zm4.474 15.104c-.582.599-1.383.897-2.404.897-.511 0-.97-.076-1.377-.229a2.823 2.823 0 0 1-1.043-.669 3.023 3.023 0 0 1-.668-1.07c-.158-.419-.236-.89-.236-1.412s.079-.996.236-1.421c.157-.424.38-.783.668-1.077s.633-.52 1.035-.678a3.693 3.693 0 0 1 1.353-.236c.5 0 .954.079 1.361.236.408.158.755.384 1.043.678.288.294.51.653.668 1.077.158.425.236.898.236 1.421 0 1.056-.29 1.884-.872 2.483z"/><path fill-rule="evenodd" clip-rule="evenodd" fill="#70AEF3" d="M567.826 181.212a.482.482 0 0 0-.207-.23.592.592 0 0 0-.299-.083.596.596 0 0 0-.3.083.49.49 0 0 0-.207.23l-2.595 5.677a.5.5 0 0 0-.046.185c0 .116.047.215.143.294.095.08.204.12.326.12.08 0 .157-.023.23-.069s.129-.111.165-.197l.607-1.381h3.368l.607 1.381c.037.086.091.151.161.197s.146.069.226.069c.116 0 .223-.04.317-.12a.367.367 0 0 0 .143-.294.505.505 0 0 0-.046-.185l-2.593-5.677zm-1.841 3.874l1.344-3.046 1.353 3.046h-2.697zm9.589 2.401c.135 0 .244-.045.327-.134s.124-.204.124-.345v-4.463l3.607 4.757a.423.423 0 0 0 .368.185c.135 0 .245-.045.331-.134s.129-.204.129-.345v-5.622a.488.488 0 0 0-.124-.346.424.424 0 0 0-.326-.133.408.408 0 0 0-.322.133.499.499 0 0 0-.12.346v4.472l-3.607-4.767a.423.423 0 0 0-.368-.184.44.44 0 0 0-.331.133.478.478 0 0 0-.129.346v5.622c0 .147.04.264.12.35a.414.414 0 0 0 .321.129zm10.023 0a.425.425 0 0 0 .229-.069.42.42 0 0 0 .166-.197l.607-1.381h3.368l.607 1.381a.421.421 0 0 0 .387.266.48.48 0 0 0 .317-.12.37.37 0 0 0 .143-.294.526.526 0 0 0-.046-.185l-2.596-5.677a.482.482 0 0 0-.207-.23.587.587 0 0 0-.598 0 .48.48 0 0 0-.207.23l-2.596 5.677a.521.521 0 0 0-.046.185.37.37 0 0 0 .143.294.5.5 0 0 0 .329.12zm2.686-5.447l1.354 3.046h-2.697l1.343-3.046zm8.265 5.401h3.285c.141 0 .25-.034.326-.102.077-.067.115-.166.115-.295 0-.128-.038-.227-.115-.294a.48.48 0 0 0-.326-.102h-2.798v-5.263c0-.147-.043-.264-.129-.35s-.202-.129-.35-.129a.451.451 0 0 0-.341.133.478.478 0 0 0-.129.346v5.612c0 .136.042.243.125.322a.459.459 0 0 0 .337.122zm8.715-3.101v2.669c0 .153.043.271.129.354a.472.472 0 0 0 .34.124.49.49 0 0 0 .346-.124c.089-.083.133-.201.133-.354v-2.669l2.172-2.705a.427.427 0 0 0-.023-.594.412.412 0 0 0-.299-.133.393.393 0 0 0-.322.165l-1.997 2.521-2.007-2.521a.41.41 0 0 0-.625-.036.415.415 0 0 0-.129.304c0 .116.036.215.11.294l2.172 2.705zm8.323 2.981c.421.129.864.193 1.33.193.484 0 .912-.078 1.284-.234a1.98 1.98 0 0 0 .864-.663c.206-.285.309-.611.309-.979 0-.362-.1-.658-.299-.888-.199-.23-.467-.411-.801-.543s-.771-.26-1.312-.382c-.515-.123-.89-.26-1.122-.41-.233-.149-.351-.372-.351-.667 0-.344.132-.611.396-.805.264-.193.632-.29 1.104-.29.35 0 .648.048.896.143.249.095.514.25.796.465.123.08.225.119.304.119.086 0 .161-.039.226-.119s.097-.172.097-.276a.482.482 0 0 0-.184-.377 2.55 2.55 0 0 0-.939-.543 3.778 3.778 0 0 0-1.205-.185 3.1 3.1 0 0 0-1.261.244c-.368.163-.655.39-.86.681-.206.292-.309.625-.309.999s.094.683.281.925c.187.242.446.434.777.575.331.141.755.267 1.27.377.54.123.933.252 1.179.387.245.135.368.337.368.607 0 .343-.133.606-.396.791-.264.184-.641.276-1.132.276a3.06 3.06 0 0 1-1.868-.607c-.123-.08-.227-.12-.313-.12s-.16.038-.221.115a.432.432 0 0 0-.093.28c0 .153.059.279.175.378.254.227.59.404 1.01.533zm9.106.166c.153 0 .271-.043.354-.129s.124-.202.124-.35v-5.622c0-.147-.043-.264-.129-.35s-.202-.129-.35-.129a.451.451 0 0 0-.341.133.478.478 0 0 0-.129.346v5.622c0 .147.043.264.129.35s.201.129.342.129zm6.484-.166c.42.129.863.193 1.33.193.484 0 .912-.078 1.283-.234s.659-.378.865-.663c.205-.285.309-.611.309-.979 0-.362-.1-.658-.3-.888a2.012 2.012 0 0 0-.8-.543 9.21 9.21 0 0 0-1.312-.382c-.516-.123-.89-.26-1.123-.41-.233-.149-.35-.372-.35-.667 0-.344.132-.611.396-.805s.632-.29 1.104-.29c.35 0 .648.048.897.143.248.095.514.25.796.465.122.08.224.119.304.119.086 0 .161-.039.226-.119s.097-.172.097-.276a.48.48 0 0 0-.185-.377c-.258-.239-.57-.42-.938-.543s-.77-.185-1.205-.185c-.473 0-.894.082-1.262.244-.367.163-.654.39-.86.681-.205.292-.308.625-.308.999s.093.683.28.925.446.434.777.575c.332.141.755.267 1.271.377.54.123.933.252 1.178.387s.368.337.368.607c0 .343-.132.606-.396.791-.264.184-.642.276-1.132.276-.7 0-1.322-.203-1.868-.607-.123-.08-.228-.12-.313-.12s-.159.038-.221.115-.092.17-.092.28c0 .153.059.279.175.378.253.227.589.404 1.009.533zm-64.916 13.398c-.059.067-.087.147-.087.239s.028.172.087.239.143.099.253.092l1.013-.046-.543.856a.316.316 0 0 0-.064.184c0 .092.037.169.11.23a.378.378 0 0 0 .249.092.283.283 0 0 0 .275-.175l.47-.902.46.893c.062.123.153.185.276.185a.346.346 0 0 0 .243-.097.304.304 0 0 0 .106-.234.358.358 0 0 0-.056-.185l-.543-.847 1.013.046c.11.007.196-.024.258-.092.061-.067.092-.147.092-.239s-.031-.172-.092-.239c-.062-.067-.147-.098-.258-.092l-1.013.046.543-.847a.39.39 0 0 0 .056-.184.305.305 0 0 0-.106-.235.354.354 0 0 0-.243-.096c-.123 0-.215.061-.276.184l-.46.901-.47-.901c-.062-.123-.156-.184-.285-.184-.092 0-.174.03-.244.092s-.105.138-.105.229c0 .068.021.132.064.193l.543.847-1.013-.046c-.111-.005-.195.025-.253.093zm9.594.809l.46.893c.062.123.153.185.276.185.092 0 .174-.032.244-.097s.105-.143.105-.234a.366.366 0 0 0-.055-.185l-.543-.847 1.012.046c.11.007.196-.024.258-.092s.092-.147.092-.239-.03-.172-.092-.239-.147-.098-.258-.092l-1.012.046.543-.847a.399.399 0 0 0 .055-.184.307.307 0 0 0-.105-.235.356.356 0 0 0-.244-.096c-.123 0-.215.061-.276.184l-.46.901-.469-.901c-.062-.123-.157-.184-.286-.184a.354.354 0 0 0-.243.092.291.291 0 0 0-.106.229c0 .068.021.132.064.193l.543.847-1.012-.046c-.11-.006-.195.024-.253.092-.059.067-.088.147-.088.239s.029.172.088.239c.058.067.143.099.253.092l1.012-.046-.543.856a.316.316 0 0 0-.064.184c0 .092.037.169.11.23a.382.382 0 0 0 .249.092.285.285 0 0 0 .276-.175l.469-.901zm7.334-.855l-1.013-.046c-.11-.006-.195.024-.253.092-.059.067-.088.147-.088.239s.029.172.088.239c.058.067.143.099.253.092l1.013-.046-.543.856a.316.316 0 0 0-.064.184c0 .092.036.169.11.23a.377.377 0 0 0 .248.092.285.285 0 0 0 .276-.175l.47-.902.46.893c.061.123.153.185.275.185.093 0 .174-.032.244-.097s.106-.143.106-.234a.358.358 0 0 0-.056-.185l-.543-.847 1.013.046c.11.007.196-.024.257-.092.062-.067.093-.147.093-.239s-.031-.172-.093-.239c-.061-.067-.146-.098-.257-.092l-1.013.046.543-.847a.39.39 0 0 0 .056-.184.308.308 0 0 0-.106-.235.354.354 0 0 0-.244-.096c-.122 0-.215.061-.275.184l-.46.901-.47-.901c-.062-.123-.156-.184-.285-.184-.092 0-.174.03-.244.092s-.105.138-.105.229c0 .068.021.132.064.193l.543.848zm7.224 1.61c0 .092.037.169.11.23a.378.378 0 0 0 .249.092.282.282 0 0 0 .275-.175l.47-.902.46.893c.062.123.153.185.276.185a.346.346 0 0 0 .243-.097.304.304 0 0 0 .106-.234.358.358 0 0 0-.056-.185l-.543-.847 1.013.046c.11.007.196-.024.258-.092s.092-.147.092-.239-.03-.172-.092-.239-.147-.098-.258-.092l-1.013.046.543-.847a.39.39 0 0 0 .056-.184.305.305 0 0 0-.106-.235.354.354 0 0 0-.243-.096c-.123 0-.215.061-.276.184l-.46.901-.47-.901c-.062-.123-.156-.184-.285-.184a.359.359 0 0 0-.244.092.294.294 0 0 0-.105.229c0 .068.021.132.064.193l.543.847-1.013-.046c-.11-.006-.194.024-.253.092s-.087.147-.087.239.028.172.087.239.143.099.253.092l1.013-.046-.543.856a.33.33 0 0 0-.064.185zm7.427-.994l1.012-.046-.543.856a.316.316 0 0 0-.064.184c0 .092.037.169.11.23a.382.382 0 0 0 .249.092.285.285 0 0 0 .276-.175l.469-.902.46.893c.062.123.153.185.276.185.092 0 .174-.032.244-.097s.105-.143.105-.234a.366.366 0 0 0-.055-.185l-.543-.847 1.012.046c.11.007.196-.024.258-.092s.092-.147.092-.239-.03-.172-.092-.239-.147-.098-.258-.092l-1.012.046.543-.847a.399.399 0 0 0 .055-.184.307.307 0 0 0-.105-.235.356.356 0 0 0-.244-.096c-.123 0-.215.061-.276.184l-.46.901-.469-.901c-.062-.123-.157-.184-.285-.184-.093 0-.174.03-.244.092s-.106.138-.106.229c0 .068.021.132.064.193l.543.847-1.012-.046c-.11-.006-.195.024-.253.092-.059.067-.088.147-.088.239s.029.172.088.239c.058.069.143.1.253.093zm7.578-.57c-.059.067-.088.147-.088.239s.029.172.088.239.143.099.253.092l1.013-.046-.543.856a.316.316 0 0 0-.064.184c0 .092.036.169.11.23a.377.377 0 0 0 .248.092.285.285 0 0 0 .276-.175l.47-.902.46.893c.062.123.153.185.275.185.093 0 .174-.032.244-.097s.106-.143.106-.234a.358.358 0 0 0-.056-.185l-.543-.847 1.013.046c.11.007.196-.024.258-.092.061-.067.092-.147.092-.239s-.031-.172-.092-.239c-.062-.067-.147-.098-.258-.092l-1.013.046.543-.847a.39.39 0 0 0 .056-.184.308.308 0 0 0-.106-.235.354.354 0 0 0-.244-.096c-.122 0-.214.061-.275.184l-.46.901-.47-.901c-.062-.123-.156-.184-.285-.184-.092 0-.174.03-.244.092s-.105.138-.105.229c0 .068.021.132.064.193l.543.847-1.013-.046c-.11-.005-.194.025-.253.093zm8.084.57l1.013-.046-.543.856a.316.316 0 0 0-.064.184c0 .092.037.169.11.23a.38.38 0 0 0 .249.092.282.282 0 0 0 .275-.175l.47-.902.46.893c.062.123.153.185.276.185a.346.346 0 0 0 .243-.097.304.304 0 0 0 .106-.234.358.358 0 0 0-.056-.185l-.543-.847 1.013.046c.11.007.196-.024.258-.092s.092-.147.092-.239-.03-.172-.092-.239-.147-.098-.258-.092l-1.013.046.543-.847a.39.39 0 0 0 .056-.184.305.305 0 0 0-.106-.235.354.354 0 0 0-.243-.096c-.123 0-.215.061-.276.184l-.46.901-.47-.901c-.062-.123-.156-.184-.285-.184a.359.359 0 0 0-.244.092.294.294 0 0 0-.105.229c0 .068.021.132.064.193l.543.847-1.013-.046c-.11-.006-.194.024-.253.092s-.087.147-.087.239.028.172.087.239.143.1.253.093zm7.832 0l1.012-.046-.543.856a.316.316 0 0 0-.064.184c0 .092.037.169.11.23a.382.382 0 0 0 .249.092.285.285 0 0 0 .276-.175l.469-.902.46.893c.062.123.153.185.276.185.092 0 .174-.032.244-.097s.105-.143.105-.234a.366.366 0 0 0-.055-.185l-.543-.847 1.012.046c.11.007.196-.024.258-.092s.092-.147.092-.239-.03-.172-.092-.239-.147-.098-.258-.092l-1.012.046.543-.847a.399.399 0 0 0 .055-.184.307.307 0 0 0-.105-.235.356.356 0 0 0-.244-.096c-.123 0-.215.061-.276.184l-.46.901-.469-.901c-.062-.123-.157-.184-.285-.184-.093 0-.174.03-.244.092s-.106.138-.106.229c0 .068.021.132.064.193l.543.847-1.012-.046c-.11-.006-.195.024-.253.092-.059.067-.088.147-.088.239s.029.172.088.239c.058.069.143.1.253.093zm7.831 0l1.013-.046-.543.856a.316.316 0 0 0-.064.184c0 .092.036.169.11.23a.377.377 0 0 0 .248.092.285.285 0 0 0 .276-.175l.47-.902.46.893c.062.123.153.185.276.185.092 0 .173-.032.243-.097s.106-.143.106-.234a.358.358 0 0 0-.056-.185l-.543-.847 1.013.046c.11.007.196-.024.258-.092.061-.067.092-.147.092-.239s-.031-.172-.092-.239c-.062-.067-.147-.098-.258-.092l-1.013.046.543-.847a.39.39 0 0 0 .056-.184.308.308 0 0 0-.106-.235.354.354 0 0 0-.243-.096c-.123 0-.215.061-.276.184l-.46.901-.47-.901c-.062-.123-.156-.184-.285-.184-.092 0-.174.03-.244.092s-.105.138-.105.229c0 .068.021.132.064.193l.543.847-1.013-.046c-.11-.006-.194.024-.253.092s-.088.147-.088.239.029.172.088.239.143.1.253.093zm-61.73 22.176c-.147 0-.26.034-.336.102a.357.357 0 0 0-.115.285c0 .264.15.396.451.396h3.073c.295 0 .442-.132.442-.396a.365.365 0 0 0-.111-.285c-.073-.067-.184-.102-.331-.102h-1.067v-5.272c0-.146-.043-.264-.129-.35s-.196-.129-.331-.129a.78.78 0 0 0-.405.129l-1.417.902a.373.373 0 0 0-.185.331.48.48 0 0 0 .115.313.345.345 0 0 0 .271.139.358.358 0 0 0 .185-.056l.947-.598v4.591h-1.057zm18.308.01c.396-.564.594-1.39.594-2.476s-.198-1.909-.594-2.471c-.396-.562-.971-.842-1.726-.842s-1.33.282-1.726.847-.594 1.39-.594 2.475c0 1.08.198 1.902.594 2.467s.971.847 1.726.847 1.33-.283 1.726-.847zm-2.765-.538c-.221-.415-.331-1.061-.331-1.938 0-.883.11-1.528.331-1.937s.567-.612 1.04-.612c.472 0 .819.204 1.04.612s.331 1.054.331 1.937c0 .884-.11 1.53-.331 1.941s-.568.617-1.04.617c-.473.001-.82-.206-1.04-.62zm8.516-4.404c-.396.564-.593 1.39-.593 2.475 0 1.08.197 1.902.593 2.467.396.564.972.847 1.726.847.755 0 1.33-.282 1.726-.847s.594-1.39.594-2.476-.198-1.909-.594-2.471-.971-.842-1.726-.842c-.754.001-1.329.283-1.726.847zm2.766.53c.221.408.331 1.054.331 1.937 0 .884-.11 1.53-.331 1.941s-.567.617-1.04.617-.818-.207-1.04-.621c-.221-.415-.331-1.061-.331-1.938 0-.883.11-1.528.331-1.937.222-.408.567-.612 1.04-.612s.819.204 1.04.613zm14.273-1.376c-.755 0-1.33.282-1.726.847s-.594 1.39-.594 2.475c0 1.08.198 1.902.594 2.467s.971.847 1.726.847 1.33-.282 1.726-.847.594-1.39.594-2.476-.198-1.909-.594-2.471-.971-.842-1.726-.842zm1.04 5.253c-.221.411-.567.617-1.04.617s-.819-.207-1.04-.621c-.221-.415-.331-1.061-.331-1.938 0-.883.11-1.528.331-1.937s.567-.612 1.04-.612.819.204 1.04.612.331 1.054.331 1.937c0 .885-.11 1.531-.331 1.942zm8.899-4.748c0-.146-.043-.264-.129-.35s-.196-.129-.331-.129a.78.78 0 0 0-.405.129l-1.417.902a.374.374 0 0 0-.184.331c0 .116.038.221.115.313a.344.344 0 0 0 .271.139.357.357 0 0 0 .184-.056l.948-.598v4.591h-1.059c-.147 0-.26.034-.336.102a.357.357 0 0 0-.115.285c0 .264.15.396.451.396h3.073c.295 0 .442-.132.442-.396a.368.368 0 0 0-.11-.285c-.074-.067-.185-.102-.332-.102h-1.067v-5.272zm6.741 5.283c.396.564.971.847 1.726.847s1.33-.282 1.726-.847.594-1.39.594-2.476-.198-1.909-.594-2.471-.971-.842-1.726-.842-1.33.282-1.726.847-.594 1.39-.594 2.475c0 1.08.198 1.902.594 2.467zm.685-4.412c.221-.408.567-.612 1.04-.612s.819.204 1.04.612.331 1.054.331 1.937c0 .884-.11 1.53-.331 1.941s-.567.617-1.04.617-.819-.207-1.04-.621c-.221-.415-.331-1.061-.331-1.938 0-.883.111-1.528.331-1.936zm8.513.013c0 .116.038.221.115.313a.344.344 0 0 0 .271.139.357.357 0 0 0 .184-.056l.948-.598v4.591h-1.059c-.147 0-.259.034-.336.102s-.115.162-.115.285c0 .264.15.396.451.396h3.073c.295 0 .442-.132.442-.396a.368.368 0 0 0-.11-.285c-.074-.067-.185-.102-.332-.102h-1.067v-5.272c0-.146-.043-.264-.129-.35s-.196-.129-.331-.129a.775.775 0 0 0-.404.129l-1.418.902a.374.374 0 0 0-.183.331zm10.933 5.245c.755 0 1.33-.282 1.726-.847s.594-1.39.594-2.476-.198-1.909-.594-2.471-.971-.842-1.726-.842-1.33.282-1.726.847-.594 1.39-.594 2.475c0 1.08.198 1.902.594 2.467s.971.847 1.726.847zm-1.04-5.258c.221-.408.567-.612 1.04-.612s.819.204 1.04.612.331 1.054.331 1.937c0 .884-.11 1.53-.331 1.941s-.567.617-1.04.617-.819-.207-1.04-.621c-.221-.415-.331-1.061-.331-1.938 0-.883.11-1.528.331-1.936zm8.898.464a.358.358 0 0 0 .185-.056l.948-.598v4.591h-1.059c-.147 0-.26.034-.336.102a.357.357 0 0 0-.115.285c0 .264.15.396.451.396h3.073c.295 0 .442-.132.442-.396a.368.368 0 0 0-.11-.285c-.074-.067-.185-.102-.332-.102h-1.067v-5.272c0-.146-.043-.264-.129-.35s-.196-.129-.331-.129a.78.78 0 0 0-.405.129l-1.417.902a.372.372 0 0 0-.184.331.48.48 0 0 0 .114.313.35.35 0 0 0 .272.139zm-84.921 22.691c0 .153.043.271.129.354a.467.467 0 0 0 .34.124c.142 0 .257-.041.346-.124s.133-.201.133-.354v-2.668l2.172-2.706a.423.423 0 0 0-.023-.593.415.415 0 0 0-.3-.134.394.394 0 0 0-.321.166l-1.997 2.521-2.007-2.521a.41.41 0 0 0-.322-.166c-.116 0-.217.043-.303.129s-.129.188-.129.304.036.215.11.294l2.172 2.706v2.668zm11.576-5.291a.49.49 0 0 0 .327-.097c.076-.064.115-.157.115-.28s-.039-.218-.115-.285a.483.483 0 0 0-.327-.102h-3.386a.473.473 0 0 0-.346.124.454.454 0 0 0-.124.336v5.567c0 .141.041.253.124.336s.198.124.346.124h3.386c.142 0 .25-.033.327-.102a.36.36 0 0 0 .115-.285c0-.251-.147-.377-.442-.377h-2.926v-2.145h2.742c.141 0 .25-.033.327-.101a.361.361 0 0 0 .114-.285.36.36 0 0 0-.114-.285.485.485 0 0 0-.327-.102h-2.742v-2.043h2.926zm9.419 3.032a2.012 2.012 0 0 0-.8-.543 9.343 9.343 0 0 0-1.312-.382c-.516-.123-.89-.259-1.123-.409s-.35-.373-.35-.667c0-.344.132-.612.396-.806s.632-.29 1.104-.29c.35 0 .648.048.897.143.248.096.514.25.796.465.123.08.224.12.304.12.086 0 .161-.04.226-.12a.428.428 0 0 0 .097-.276.481.481 0 0 0-.185-.377 2.546 2.546 0 0 0-.938-.543 3.81 3.81 0 0 0-1.205-.184 3.08 3.08 0 0 0-1.261.244 2.02 2.02 0 0 0-.861.681c-.205.291-.308.624-.308.998s.093.683.28.925.446.434.777.575a7.01 7.01 0 0 0 1.271.377c.54.123.933.252 1.178.387s.368.338.368.607c0 .344-.132.607-.396.791-.264.185-.642.276-1.132.276a3.055 3.055 0 0 1-1.868-.607c-.123-.08-.228-.119-.313-.119s-.159.038-.221.114a.434.434 0 0 0-.092.281c0 .153.059.279.175.377.252.227.587.405 1.008.534.42.128.863.192 1.33.192.484 0 .912-.078 1.283-.234s.659-.377.865-.662c.205-.285.309-.612.309-.98.001-.362-.099-.659-.299-.888zm4.901-4.178a.404.404 0 0 0-.496.037.335.335 0 0 0-.12.262c0 .043.009.093.027.147l2.153 6.745c.031.098.08.17.147.216s.142.069.221.069a.407.407 0 0 0 .276-.105.337.337 0 0 0 .12-.263.484.484 0 0 0-.028-.147l-2.153-6.744a.384.384 0 0 0-.147-.217zm11.09 5.286l-3.607-4.766a.423.423 0 0 0-.368-.185.438.438 0 0 0-.331.134.476.476 0 0 0-.129.345v5.622c0 .147.039.264.119.35s.188.129.322.129.244-.045.326-.134a.484.484 0 0 0 .125-.345v-4.463l3.607 4.758a.423.423 0 0 0 .368.184c.135 0 .245-.045.331-.134s.129-.203.129-.345v-5.622c0-.141-.041-.256-.124-.345s-.192-.134-.327-.134-.242.045-.322.134a.5.5 0 0 0-.119.345v4.472zm7.274 1.252c.451.27.983.404 1.597.404.62 0 1.156-.135 1.61-.404a2.665 2.665 0 0 0 1.045-1.155c.242-.5.363-1.087.363-1.762s-.121-1.262-.363-1.763a2.628 2.628 0 0 0-1.045-1.149c-.454-.268-.99-.4-1.61-.4-.613 0-1.147.133-1.602.4-.454.267-.802.65-1.044 1.149-.243.501-.363 1.091-.363 1.771 0 .675.122 1.261.368 1.758a2.69 2.69 0 0 0 1.044 1.151zm.092-4.798c.359-.438.86-.658 1.505-.658.656 0 1.164.22 1.523.658.358.438.538 1.065.538 1.882 0 .815-.181 1.444-.543 1.886-.362.442-.868.663-1.519.663-.645 0-1.146-.221-1.505-.663-.358-.441-.538-1.07-.538-1.886.001-.817.18-1.444.539-1.882zm-43.929 23.606c.755 0 1.33-.282 1.726-.847s.594-1.39.594-2.475c0-1.086-.198-1.909-.594-2.471s-.971-.842-1.726-.842-1.33.282-1.726.846c-.396.564-.594 1.39-.594 2.476 0 1.08.198 1.901.594 2.466s.971.847 1.726.847zm-1.04-5.259c.221-.407.567-.611 1.04-.611s.819.204 1.04.611c.221.408.331 1.054.331 1.938 0 .883-.11 1.53-.331 1.941s-.567.616-1.04.616-.819-.207-1.04-.621-.331-1.06-.331-1.937c0-.883.11-1.529.331-1.937zm12.378 4.505c-.073-.068-.185-.102-.331-.102h-1.067v-5.272c0-.147-.043-.264-.129-.35s-.197-.129-.332-.129a.775.775 0 0 0-.404.129l-1.418.901a.376.376 0 0 0-.184.331c0 .117.038.222.115.313a.343.343 0 0 0 .271.138.365.365 0 0 0 .184-.055l.948-.599v4.592h-1.059c-.147 0-.259.033-.336.102a.36.36 0 0 0-.115.285c0 .264.15.396.451.396h3.074c.294 0 .441-.132.441-.396a.363.363 0 0 0-.109-.284zm13.178.754c.755 0 1.33-.282 1.726-.847s.594-1.39.594-2.475c0-1.086-.198-1.909-.594-2.471s-.971-.842-1.726-.842c-.754 0-1.329.282-1.726.846-.396.564-.593 1.39-.593 2.476 0 1.08.197 1.901.593 2.466.397.565.972.847 1.726.847zm-1.04-5.259c.222-.407.567-.611 1.04-.611s.819.204 1.04.611c.221.408.331 1.054.331 1.938 0 .883-.11 1.53-.331 1.941s-.567.616-1.04.616-.818-.207-1.04-.621c-.221-.414-.331-1.06-.331-1.937 0-.883.11-1.529.331-1.937zm8.628.327a.343.343 0 0 0 .271.138.36.36 0 0 0 .184-.055l.948-.599v4.592h-1.059c-.146 0-.259.033-.336.102a.36.36 0 0 0-.114.285c0 .264.149.396.45.396h3.074c.294 0 .441-.132.441-.396a.368.368 0 0 0-.11-.285c-.073-.068-.184-.102-.331-.102h-1.067v-5.272c0-.147-.043-.264-.129-.35s-.196-.129-.332-.129a.777.777 0 0 0-.404.129l-1.417.901a.375.375 0 0 0-.185.331c0 .118.038.223.116.314zm11.424-1.546a.448.448 0 0 0-.331-.129.78.78 0 0 0-.405.129l-1.417.901a.374.374 0 0 0-.184.331c0 .117.038.222.114.313a.344.344 0 0 0 .271.138.366.366 0 0 0 .185-.055l.947-.599v4.592h-1.058c-.147 0-.26.033-.336.102a.357.357 0 0 0-.115.285c0 .264.15.396.451.396h3.073c.295 0 .442-.132.442-.396a.368.368 0 0 0-.11-.285c-.074-.068-.185-.102-.332-.102h-1.067v-5.272a.468.468 0 0 0-.128-.349zm6.866 1.233c0 .117.038.222.115.313a.343.343 0 0 0 .271.138.362.362 0 0 0 .184-.055l.948-.599v4.592h-1.059c-.146 0-.259.033-.336.102a.36.36 0 0 0-.114.285c0 .264.149.396.45.396h3.074c.294 0 .441-.132.441-.396a.368.368 0 0 0-.11-.285c-.073-.068-.184-.102-.331-.102h-1.067v-5.272c0-.147-.043-.264-.129-.35s-.196-.129-.332-.129a.777.777 0 0 0-.404.129l-1.417.901a.377.377 0 0 0-.184.332zm10.932 5.245c.755 0 1.33-.282 1.726-.847s.594-1.39.594-2.475c0-1.086-.198-1.909-.594-2.471s-.971-.842-1.726-.842c-.754 0-1.33.282-1.726.846-.396.564-.594 1.39-.594 2.476 0 1.08.198 1.901.594 2.466s.972.847 1.726.847zm-1.04-5.259c.222-.407.567-.611 1.04-.611s.819.204 1.04.611c.221.408.331 1.054.331 1.938 0 .883-.11 1.53-.331 1.941s-.567.616-1.04.616-.818-.207-1.04-.621c-.221-.414-.331-1.06-.331-1.937 0-.883.111-1.529.331-1.937zm8.513.014c0 .117.038.222.115.313a.343.343 0 0 0 .271.138.362.362 0 0 0 .184-.055l.948-.599v4.592h-1.059c-.147 0-.259.033-.336.102a.36.36 0 0 0-.114.285c0 .264.149.396.45.396h3.074c.294 0 .441-.132.441-.396a.368.368 0 0 0-.11-.285c-.073-.068-.184-.102-.331-.102h-1.067v-5.272c0-.147-.043-.264-.129-.35s-.197-.129-.332-.129a.775.775 0 0 0-.404.129l-1.418.901a.378.378 0 0 0-.183.332zm9.207-.543c-.396.564-.594 1.39-.594 2.476 0 1.08.198 1.901.594 2.466.396.564.971.847 1.726.847s1.33-.282 1.726-.847.594-1.39.594-2.475c0-1.086-.198-1.909-.594-2.471s-.971-.842-1.726-.842-1.33.282-1.726.846zm.686.529c.221-.407.567-.611 1.04-.611s.819.204 1.04.611c.221.408.331 1.054.331 1.938 0 .883-.11 1.53-.331 1.941s-.567.616-1.04.616-.819-.207-1.04-.621-.331-1.06-.331-1.937c-.001-.883.11-1.529.331-1.937zm8.512.014c0 .117.038.222.115.313a.343.343 0 0 0 .271.138.362.362 0 0 0 .184-.055l.948-.599v4.592h-1.059c-.147 0-.259.033-.336.102a.36.36 0 0 0-.115.285c0 .264.15.396.451.396h3.074c.294 0 .441-.132.441-.396a.368.368 0 0 0-.11-.285c-.073-.068-.185-.102-.331-.102h-1.067v-5.272a.477.477 0 0 0-.129-.35.448.448 0 0 0-.332-.129.775.775 0 0 0-.404.129l-1.417.901a.38.38 0 0 0-.184.332zm10.933 5.245c.755 0 1.33-.282 1.726-.847s.594-1.39.594-2.475c0-1.086-.198-1.909-.594-2.471s-.971-.842-1.726-.842-1.33.282-1.726.846c-.396.564-.594 1.39-.594 2.476 0 1.08.198 1.901.594 2.466s.971.847 1.726.847zm-1.04-5.259c.221-.407.567-.611 1.04-.611s.819.204 1.04.611c.221.408.331 1.054.331 1.938 0 .883-.11 1.53-.331 1.941s-.567.616-1.04.616-.819-.207-1.04-.621-.331-1.06-.331-1.937c0-.883.11-1.529.331-1.937zm12.047 4.403h-1.067v-5.272c0-.147-.043-.264-.129-.35s-.197-.129-.332-.129a.775.775 0 0 0-.404.129l-1.418.901a.376.376 0 0 0-.184.331c0 .117.038.222.115.313a.343.343 0 0 0 .271.138.365.365 0 0 0 .184-.055l.948-.599v4.592h-1.059c-.147 0-.259.033-.336.102a.36.36 0 0 0-.115.285c0 .264.15.396.451.396h3.074c.294 0 .441-.132.441-.396a.368.368 0 0 0-.11-.285c-.073-.067-.184-.101-.33-.101zm-110.869 18.413c.396.564.971.847 1.726.847s1.33-.282 1.726-.847.594-1.39.594-2.476c0-1.085-.198-1.909-.594-2.47-.396-.562-.971-.843-1.726-.843s-1.33.282-1.726.847-.594 1.39-.594 2.476c0 1.079.198 1.901.594 2.466zm.685-4.413c.221-.408.567-.612 1.04-.612s.819.204 1.04.612.331 1.054.331 1.937c0 .884-.11 1.531-.331 1.942-.221.41-.567.616-1.04.616s-.819-.207-1.04-.621-.331-1.06-.331-1.938c0-.882.11-1.527.331-1.936zm12.378 4.504c-.073-.067-.185-.101-.331-.101h-1.067v-5.272c0-.147-.043-.264-.129-.35s-.197-.129-.332-.129a.775.775 0 0 0-.404.129l-1.418.901a.376.376 0 0 0-.184.331c0 .117.038.221.115.313a.341.341 0 0 0 .271.139.357.357 0 0 0 .184-.056l.948-.598v4.592h-1.059c-.147 0-.259.033-.336.101a.362.362 0 0 0-.115.285c0 .264.15.396.451.396h3.074c.294 0 .441-.133.441-.396a.367.367 0 0 0-.109-.285zm8.793-.091c.396-.564.594-1.39.594-2.476 0-1.085-.198-1.909-.594-2.47-.396-.562-.971-.843-1.726-.843s-1.33.282-1.726.847-.594 1.39-.594 2.476c0 1.079.198 1.901.594 2.466s.971.847 1.726.847 1.33-.283 1.726-.847zm-2.766-.538c-.221-.414-.331-1.06-.331-1.938 0-.883.11-1.528.331-1.937s.567-.612 1.04-.612.819.204 1.04.612.331 1.054.331 1.937c0 .884-.11 1.531-.331 1.942-.221.41-.567.616-1.04.616s-.819-.206-1.04-.62zm8.697-4.192a.376.376 0 0 0-.184.331c0 .117.038.221.115.313a.341.341 0 0 0 .271.139.357.357 0 0 0 .184-.056l.948-.598v4.592h-1.059c-.147 0-.259.033-.336.101a.362.362 0 0 0-.115.285c0 .264.15.396.451.396h3.074c.294 0 .441-.133.441-.396 0-.122-.037-.218-.11-.285s-.185-.101-.331-.101h-1.068v-5.272a.477.477 0 0 0-.128-.35.451.451 0 0 0-.332-.129.775.775 0 0 0-.404.129l-1.417.901zm12.474 4.73c.396-.564.594-1.39.594-2.476 0-1.085-.198-1.909-.594-2.47-.396-.562-.971-.843-1.726-.843s-1.33.282-1.726.847-.594 1.39-.594 2.476c0 1.079.198 1.901.594 2.466s.971.847 1.726.847 1.331-.283 1.726-.847zm-2.765-.538c-.221-.414-.331-1.06-.331-1.938 0-.883.11-1.528.331-1.937s.567-.612 1.04-.612.819.204 1.04.612.331 1.054.331 1.937c0 .884-.11 1.531-.331 1.942-.221.41-.567.616-1.04.616s-.82-.206-1.04-.62zm10.85-5.093a.451.451 0 0 0-.332-.129.775.775 0 0 0-.404.129l-1.418.901a.376.376 0 0 0-.184.331c0 .117.038.221.115.313a.341.341 0 0 0 .271.139.357.357 0 0 0 .184-.056l.948-.598v4.592h-1.059c-.147 0-.259.033-.336.101s-.115.163-.115.285c0 .264.15.396.451.396h3.074c.294 0 .441-.133.441-.396a.37.37 0 0 0-.11-.285c-.074-.067-.185-.101-.331-.101h-1.068v-5.272a.47.47 0 0 0-.127-.35zm8.595-.157c-.755 0-1.33.282-1.726.847s-.594 1.39-.594 2.476c0 1.079.198 1.901.594 2.466s.971.847 1.726.847 1.33-.282 1.726-.847.594-1.39.594-2.476c0-1.085-.198-1.909-.594-2.47-.396-.562-.971-.843-1.726-.843zm1.04 5.254c-.221.41-.567.616-1.04.616s-.819-.207-1.04-.621-.331-1.06-.331-1.938c0-.883.11-1.528.331-1.937s.567-.612 1.04-.612.819.204 1.04.612.331 1.054.331 1.937c0 .885-.11 1.532-.331 1.943zm9.888.534c.396-.564.594-1.39.594-2.476 0-1.085-.197-1.909-.594-2.47-.396-.562-.971-.843-1.726-.843-.754 0-1.329.282-1.725.847-.396.564-.594 1.39-.594 2.476 0 1.079.197 1.901.594 2.466.396.564.971.847 1.725.847.755-.001 1.33-.283 1.726-.847zm-2.765-.538c-.221-.414-.332-1.06-.332-1.938 0-.883.111-1.528.332-1.937s.567-.612 1.039-.612c.473 0 .819.204 1.04.612.222.408.332 1.054.332 1.937 0 .884-.11 1.531-.332 1.942-.221.41-.567.616-1.04.616-.472.001-.818-.206-1.039-.62zm8.517-4.404c-.396.564-.594 1.39-.594 2.476 0 1.079.198 1.901.594 2.466s.971.847 1.726.847 1.33-.282 1.726-.847.594-1.39.594-2.476c0-1.085-.198-1.909-.594-2.47-.396-.562-.971-.843-1.726-.843s-1.331.283-1.726.847zm.685.529c.221-.408.567-.612 1.04-.612s.819.204 1.04.612.331 1.054.331 1.937c0 .884-.11 1.531-.331 1.942-.221.41-.567.616-1.04.616s-.819-.207-1.04-.621-.331-1.06-.331-1.938c0-.882.11-1.527.331-1.936zm18.079-.533c-.396-.562-.972-.843-1.726-.843-.755 0-1.33.282-1.726.847s-.594 1.39-.594 2.476c0 1.079.198 1.901.594 2.466s.971.847 1.726.847c.754 0 1.329-.282 1.726-.847.396-.564.593-1.39.593-2.476 0-1.085-.197-1.909-.593-2.47zm-.685 4.412c-.222.41-.568.616-1.04.616-.473 0-.819-.207-1.04-.621s-.331-1.06-.331-1.938c0-.883.11-1.528.331-1.937s.567-.612 1.04-.612c.472 0 .818.204 1.04.612.221.408.331 1.054.331 1.937 0 .885-.111 1.532-.331 1.943zm9.887-4.412c-.396-.562-.971-.843-1.726-.843s-1.33.282-1.726.847-.594 1.39-.594 2.476c0 1.079.198 1.901.594 2.466s.971.847 1.726.847 1.33-.282 1.726-.847.594-1.39.594-2.476c0-1.085-.198-1.909-.594-2.47zm-.685 4.412c-.221.41-.567.616-1.04.616s-.819-.207-1.04-.621-.331-1.06-.331-1.938c0-.883.11-1.528.331-1.937s.567-.612 1.04-.612.819.204 1.04.612.331 1.054.331 1.937c0 .885-.11 1.532-.331 1.943zm-100.902 18.937c.396.564.971.847 1.726.847s1.33-.282 1.726-.847.594-1.39.594-2.476-.198-1.909-.594-2.471c-.396-.561-.971-.842-1.726-.842s-1.33.282-1.726.847-.594 1.39-.594 2.476c0 1.079.198 1.901.594 2.466zm.685-4.412c.221-.408.567-.612 1.04-.612s.819.204 1.04.612.331 1.054.331 1.937c0 .884-.11 1.531-.331 1.941-.221.411-.567.617-1.04.617s-.819-.207-1.04-.621-.331-1.06-.331-1.938c0-.882.11-1.528.331-1.936zm8.973 4.402c-.147 0-.259.034-.336.102a.362.362 0 0 0-.115.285c0 .264.15.396.451.396h3.074c.294 0 .441-.132.441-.396 0-.122-.037-.218-.11-.285s-.185-.102-.331-.102h-1.067v-5.272c0-.146-.043-.264-.129-.35s-.197-.129-.332-.129a.775.775 0 0 0-.404.129l-1.418.902a.374.374 0 0 0-.184.331c0 .116.038.221.115.313a.341.341 0 0 0 .271.139.357.357 0 0 0 .184-.056l.948-.598v4.591h-1.058zm16.583.857c.755 0 1.33-.282 1.726-.847s.594-1.39.594-2.476-.198-1.909-.594-2.471c-.396-.561-.971-.842-1.726-.842-.754 0-1.329.282-1.726.847-.396.564-.593 1.39-.593 2.476 0 1.079.197 1.901.593 2.466.397.564.972.847 1.726.847zm-1.04-5.259c.222-.408.567-.612 1.04-.612s.819.204 1.04.612.331 1.054.331 1.937c0 .884-.11 1.531-.331 1.941-.221.411-.567.617-1.04.617s-.818-.207-1.04-.621c-.221-.414-.331-1.06-.331-1.938 0-.882.11-1.528.331-1.936zm8.972 4.402c-.146 0-.259.034-.336.102a.361.361 0 0 0-.114.285c0 .264.149.396.45.396h3.074c.294 0 .441-.132.441-.396 0-.122-.037-.218-.11-.285s-.184-.102-.331-.102h-1.067v-5.272c0-.146-.043-.264-.129-.35s-.196-.129-.332-.129a.777.777 0 0 0-.404.129l-1.417.902a.373.373 0 0 0-.185.331c0 .116.038.221.115.313a.341.341 0 0 0 .271.139.352.352 0 0 0 .184-.056l.948-.598v4.591h-1.058zm8.747.01c.396.564.972.847 1.726.847.755 0 1.33-.282 1.726-.847s.594-1.39.594-2.476-.198-1.909-.594-2.471c-.396-.561-.971-.842-1.726-.842-.754 0-1.329.282-1.726.847-.396.564-.594 1.39-.594 2.476.001 1.079.199 1.901.594 2.466zm.686-4.412c.222-.408.567-.612 1.04-.612s.819.204 1.04.612.331 1.054.331 1.937c0 .884-.11 1.531-.331 1.941-.221.411-.567.617-1.04.617s-.818-.207-1.04-.621c-.221-.414-.331-1.06-.331-1.938 0-.882.11-1.528.331-1.936zm10.851-1.22a.448.448 0 0 0-.332-.129.777.777 0 0 0-.404.129l-1.417.902a.373.373 0 0 0-.185.331c0 .116.038.221.115.313a.341.341 0 0 0 .271.139.354.354 0 0 0 .184-.056l.948-.598v4.591h-1.059c-.146 0-.259.034-.336.102a.361.361 0 0 0-.114.285c0 .264.149.396.45.396h3.074c.294 0 .441-.132.441-.396 0-.122-.037-.218-.11-.285s-.184-.102-.331-.102h-1.067v-5.272a.473.473 0 0 0-.128-.35zm6.869 5.632c.396.564.972.847 1.726.847.755 0 1.33-.282 1.726-.847s.594-1.39.594-2.476-.198-1.909-.594-2.471c-.396-.561-.971-.842-1.726-.842-.754 0-1.33.282-1.726.847s-.594 1.39-.594 2.476c0 1.079.198 1.901.594 2.466zm.685-4.412c.222-.408.567-.612 1.04-.612s.819.204 1.04.612.331 1.054.331 1.937c0 .884-.11 1.531-.331 1.941-.221.411-.567.617-1.04.617s-.818-.207-1.04-.621c-.221-.414-.331-1.06-.331-1.938 0-.882.111-1.528.331-1.936zm12.489 4.789c0-.122-.037-.218-.11-.285s-.184-.102-.331-.102h-1.067v-5.272c0-.146-.043-.264-.129-.35s-.197-.129-.332-.129a.775.775 0 0 0-.404.129l-1.418.902a.374.374 0 0 0-.184.331c0 .116.038.221.115.313a.341.341 0 0 0 .271.139.354.354 0 0 0 .184-.056l.948-.598v4.591h-1.059c-.147 0-.259.034-.336.102a.361.361 0 0 0-.114.285c0 .264.149.396.45.396h3.074c.294-.001.442-.132.442-.396zm6.957-6.165c-.755 0-1.329.282-1.726.847-.396.564-.594 1.39-.594 2.476 0 1.079.198 1.901.594 2.466.396.564.971.847 1.726.847s1.33-.282 1.726-.847.594-1.39.594-2.476-.198-1.909-.594-2.471c-.396-.561-.972-.842-1.726-.842zm1.04 5.254c-.221.411-.567.617-1.04.617s-.819-.207-1.04-.621-.331-1.06-.331-1.938c0-.883.11-1.528.331-1.937s.567-.612 1.04-.612.819.204 1.04.612.331 1.054.331 1.937c0 .884-.111 1.532-.331 1.942zm10.408.911c0-.122-.037-.218-.11-.285s-.185-.102-.331-.102h-1.067v-5.272a.48.48 0 0 0-.129-.35.448.448 0 0 0-.332-.129.775.775 0 0 0-.404.129l-1.417.902a.373.373 0 0 0-.185.331c0 .116.038.221.115.313a.341.341 0 0 0 .271.139.354.354 0 0 0 .184-.056l.948-.598v4.591h-1.059c-.147 0-.259.034-.336.102a.362.362 0 0 0-.115.285c0 .264.15.396.451.396h3.074c.294-.001.442-.132.442-.396zm-90.333 13.02c.307 0 .581.044.824.133.242.09.511.244.805.465.099.08.199.12.304.12a.275.275 0 0 0 .221-.115.43.43 0 0 0 .092-.28.444.444 0 0 0-.175-.368 2.81 2.81 0 0 0-.947-.548 3.471 3.471 0 0 0-1.15-.188c-.62 0-1.159.134-1.62.4-.46.267-.813.65-1.058 1.15-.246.5-.368 1.087-.368 1.762 0 .681.122 1.271.368 1.771.245.5.598.883 1.058 1.15.461.267 1 .399 1.62.399.405 0 .788-.063 1.15-.188.361-.125.678-.308.947-.547a.446.446 0 0 0 .175-.368c0-.11-.03-.204-.092-.281a.277.277 0 0 0-.221-.114c-.08 0-.181.04-.304.119a3.897 3.897 0 0 1-.823.46 2.257 2.257 0 0 1-.806.139c-.675 0-1.193-.218-1.555-.653-.362-.436-.543-1.064-.543-1.887 0-.815.181-1.441.543-1.877.361-.436.88-.654 1.555-.654zm7.518 5.779h3.285c.142 0 .25-.033.327-.102.076-.067.115-.165.115-.294s-.039-.227-.115-.295a.483.483 0 0 0-.327-.101h-2.797v-5.264c0-.147-.043-.264-.129-.35s-.203-.129-.351-.129c-.141 0-.254.045-.34.134s-.129.204-.129.345v5.613c0 .135.041.242.124.322a.464.464 0 0 0 .337.121zm8.725-6.534c-.142 0-.255.045-.341.134s-.129.204-.129.345v5.622c0 .147.043.264.129.35s.199.129.341.129c.152 0 .271-.043.354-.129a.482.482 0 0 0 .125-.35v-5.622c0-.147-.043-.264-.129-.35s-.204-.129-.35-.129zm9.851 6.432a.357.357 0 0 0 .115-.285c0-.251-.147-.377-.441-.377h-2.927v-2.144h2.742c.142 0 .25-.034.327-.102s.115-.162.115-.285-.038-.218-.115-.285-.186-.102-.327-.102h-2.742v-2.043h2.927c.141 0 .25-.032.326-.097.077-.064.115-.157.115-.28s-.038-.218-.115-.285a.48.48 0 0 0-.326-.102h-3.387a.465.465 0 0 0-.345.125.45.45 0 0 0-.125.335v5.567c0 .142.042.253.125.336a.463.463 0 0 0 .345.124h3.387a.467.467 0 0 0 .326-.1zm9.751.148c.135 0 .245-.044.331-.133s.129-.204.129-.346v-5.622a.49.49 0 0 0-.124-.345c-.083-.089-.192-.134-.327-.134s-.242.045-.322.134a.5.5 0 0 0-.119.345v4.472l-3.607-4.766a.423.423 0 0 0-.368-.185.438.438 0 0 0-.331.134.472.472 0 0 0-.129.345v5.622c0 .147.039.264.119.35s.188.129.322.129.244-.044.326-.133a.487.487 0 0 0 .125-.346v-4.463l3.607 4.758a.42.42 0 0 0 .368.184zm7.196-5.742v5.263c0 .142.044.257.134.346a.463.463 0 0 0 .345.133c.147 0 .264-.044.35-.133s.129-.204.129-.346v-5.263h1.841c.294 0 .441-.132.441-.396 0-.128-.038-.227-.115-.294a.48.48 0 0 0-.326-.102h-4.639c-.141 0-.25.034-.326.102-.077.067-.115.166-.115.294 0 .265.147.396.441.396h1.84zm14.282-.838c-.141 0-.255.045-.341.134s-.128.204-.128.345v5.622c0 .147.042.264.128.35s.2.129.341.129c.153 0 .271-.043.354-.129s.124-.202.124-.35v-5.622c0-.147-.043-.264-.129-.35s-.201-.129-.349-.129zm6.139 6.534h1.804c1.049 0 1.861-.283 2.438-.852.576-.566.865-1.366.865-2.396s-.289-1.828-.865-2.393c-.577-.564-1.39-.847-2.438-.847h-1.804a.469.469 0 0 0-.346.125.45.45 0 0 0-.124.335v5.567c0 .142.041.253.124.336s.198.125.346.125zm.478-5.696h1.27c1.596 0 2.393.815 2.393 2.447 0 1.638-.797 2.457-2.393 2.457h-1.27v-4.904zm10.353 1.284c-.11-.113-.248-.17-.414-.17s-.306.057-.419.17-.17.256-.17.428a.569.569 0 0 0 .589.589c.166 0 .304-.055.414-.165s.166-.252.166-.424-.056-.315-.166-.428zm-.884 5.267c0 .074.028.137.083.188a.282.282 0 0 0 .202.079.338.338 0 0 0 .24-.11c.35-.381.524-.832.524-1.354 0-.264-.054-.463-.161-.598s-.253-.202-.438-.202a.543.543 0 0 0-.404.17.586.586 0 0 0-.166.428c0 .16.051.292.151.396a.58.58 0 0 0 .382.175 1.243 1.243 0 0 1-.331.635.318.318 0 0 0-.082.193zm11.743-2.585c0 .564.207 1.004.621 1.32.414.315.998.474 1.753.474s1.339-.158 1.753-.474c.414-.316.621-.756.621-1.32 0-.393-.104-.73-.313-1.013-.209-.282-.503-.479-.884-.589.319-.116.572-.308.76-.575.187-.267.28-.575.28-.925 0-.533-.196-.955-.589-1.265s-.936-.465-1.629-.465-1.236.155-1.629.465-.589.731-.589 1.265c0 .35.094.657.28.921.188.264.443.457.769.579-.38.104-.676.298-.888.58s-.316.623-.316 1.022zm1.068-3.018c0-.337.11-.597.331-.777s.546-.271.976-.271.755.091.976.271.331.44.331.777c0 .35-.11.616-.331.801-.221.184-.546.276-.976.276s-.755-.093-.976-.276c-.221-.185-.331-.452-.331-.801zm1.306 1.849c.976 0 1.463.368 1.463 1.104 0 .729-.487 1.095-1.463 1.095s-1.463-.365-1.463-1.095c0-.736.488-1.104 1.463-1.104zm-87.25 15.073a.482.482 0 0 0-.207-.23.591.591 0 0 0-.599 0 .49.49 0 0 0-.207.23l-2.595 5.677a.5.5 0 0 0-.046.185c0 .116.047.215.143.294.095.08.204.12.326.12.08 0 .157-.023.23-.069s.129-.111.165-.197l.607-1.381h3.368l.607 1.381c.037.086.091.151.161.197s.146.069.226.069c.116 0 .223-.04.317-.12a.367.367 0 0 0 .143-.294.505.505 0 0 0-.046-.185l-2.593-5.677zm-1.841 3.874l1.344-3.046 1.353 3.046h-2.697zm11.789-3.423c.307 0 .581.044.823.133s.511.244.806.465c.098.08.199.12.304.12a.278.278 0 0 0 .221-.115.434.434 0 0 0 .092-.281.449.449 0 0 0-.175-.368 2.812 2.812 0 0 0-.948-.547 3.467 3.467 0 0 0-1.15-.188c-.619 0-1.159.133-1.619.4-.46.267-.813.649-1.059 1.149s-.368 1.088-.368 1.763c0 .681.123 1.271.368 1.771s.599.883 1.059 1.149c.46.268 1 .4 1.619.4.405 0 .789-.063 1.15-.188.362-.126.678-.309.948-.548a.445.445 0 0 0 .175-.367.432.432 0 0 0-.092-.281.278.278 0 0 0-.221-.115c-.08 0-.182.04-.304.12-.308.215-.582.368-.824.46s-.511.138-.805.138c-.675 0-1.193-.218-1.556-.653s-.543-1.063-.543-1.886c0-.816.181-1.441.543-1.877s.882-.654 1.556-.654zm9.801 0c.307 0 .581.044.823.133s.511.244.806.465c.098.08.199.12.304.12a.278.278 0 0 0 .221-.115.434.434 0 0 0 .092-.281.449.449 0 0 0-.175-.368 2.812 2.812 0 0 0-.948-.547 3.467 3.467 0 0 0-1.15-.188c-.619 0-1.159.133-1.619.4-.46.267-.813.649-1.059 1.149s-.368 1.088-.368 1.763c0 .681.123 1.271.368 1.771s.599.883 1.059 1.149c.46.268 1 .4 1.619.4.405 0 .789-.063 1.15-.188.362-.126.678-.309.948-.548a.445.445 0 0 0 .175-.367.432.432 0 0 0-.092-.281.278.278 0 0 0-.221-.115c-.08 0-.182.04-.304.12-.308.215-.582.368-.824.46s-.511.138-.805.138c-.675 0-1.193-.218-1.556-.653s-.543-1.063-.543-1.886c0-.816.181-1.441.543-1.877s.881-.654 1.556-.654zm10.914.054c.141 0 .25-.032.327-.097.076-.064.114-.157.114-.28s-.038-.218-.114-.285a.485.485 0 0 0-.327-.102h-3.387a.464.464 0 0 0-.345.124.454.454 0 0 0-.125.336v5.567c0 .141.042.253.125.336a.467.467 0 0 0 .345.124h3.387c.141 0 .25-.034.327-.102a.36.36 0 0 0 .114-.285c0-.251-.147-.377-.441-.377h-2.927v-2.145h2.742c.142 0 .25-.033.327-.101s.115-.163.115-.285a.357.357 0 0 0-.115-.285.478.478 0 0 0-.327-.102h-2.742v-2.043h2.927zm5.209-.303v5.595a.47.47 0 0 0 .129.35.458.458 0 0 0 .34.129c.153 0 .271-.043.354-.129s.124-.202.124-.35v-2.162h1.739c.688 0 1.221-.172 1.602-.516.38-.344.57-.822.57-1.436 0-.619-.19-1.098-.57-1.436-.381-.337-.914-.506-1.602-.506h-2.218c-.147 0-.262.041-.345.124s-.123.196-.123.337zm.948.303h1.639c.907 0 1.361.393 1.361 1.178 0 .792-.454 1.188-1.361 1.188h-1.639v-2.366zm13.353-.368c0-.129-.038-.227-.115-.294s-.186-.102-.327-.102h-4.638c-.142 0-.25.034-.326.102-.077.067-.115.165-.115.294 0 .264.147.396.441.396h1.841v5.264c0 .142.044.256.133.345s.204.134.346.134c.147 0 .264-.045.35-.134s.129-.203.129-.345v-5.264h1.84c.294 0 .441-.132.441-.396zm-50.688 18.091a.448.448 0 0 0-.331-.129.78.78 0 0 0-.405.129l-1.417.901a.375.375 0 0 0-.185.331c0 .117.039.221.115.313a.344.344 0 0 0 .271.138.358.358 0 0 0 .185-.056l.947-.598v4.592h-1.058c-.147 0-.26.033-.336.101a.36.36 0 0 0-.115.285c0 .265.15.396.451.396h3.073c.295 0 .442-.132.442-.396a.368.368 0 0 0-.111-.285c-.073-.067-.184-.101-.331-.101h-1.067v-5.272a.474.474 0 0 0-.128-.349zm9.203 0a.45.45 0 0 0-.332-.129.775.775 0 0 0-.404.129l-1.418.901a.376.376 0 0 0-.184.331c0 .117.038.221.115.313a.343.343 0 0 0 .271.138.357.357 0 0 0 .184-.056l.948-.598v4.592h-1.059c-.147 0-.259.033-.336.101a.363.363 0 0 0-.115.285c0 .265.15.396.451.396h3.074c.294 0 .441-.132.441-.396a.37.37 0 0 0-.11-.285c-.073-.067-.185-.101-.331-.101h-1.067v-5.272a.467.467 0 0 0-.128-.349zm10.32.686c-.396-.562-.971-.843-1.726-.843s-1.33.282-1.726.847-.594 1.39-.594 2.476c0 1.08.198 1.901.594 2.466s.971.847 1.726.847 1.33-.282 1.726-.847.594-1.39.594-2.475c0-1.087-.199-1.911-.594-2.471zm-.686 4.412c-.221.411-.567.616-1.04.616s-.819-.207-1.04-.621-.331-1.06-.331-1.937c0-.884.11-1.529.331-1.938s.567-.612 1.04-.612.819.204 1.04.612.331 1.054.331 1.938c0 .883-.11 1.531-.331 1.942zm9.889-4.412c-.396-.562-.972-.843-1.726-.843-.755 0-1.33.282-1.726.847-.396.564-.594 1.39-.594 2.476 0 1.08.197 1.901.594 2.466.396.564.971.847 1.726.847.754 0 1.329-.282 1.726-.847.396-.564.593-1.39.593-2.475 0-1.087-.197-1.911-.593-2.471zm-.686 4.412c-.221.411-.567.616-1.039.616-.473 0-.819-.207-1.04-.621s-.332-1.06-.332-1.937c0-.884.111-1.529.332-1.938s.567-.612 1.04-.612c.472 0 .818.204 1.039.612.222.408.332 1.054.332 1.938 0 .883-.111 1.531-.332 1.942zm-30.373 18.936c.396.564.971.847 1.726.847s1.33-.282 1.726-.847.594-1.39.594-2.476-.198-1.909-.594-2.471c-.396-.561-.971-.842-1.726-.842s-1.33.282-1.726.847-.594 1.39-.594 2.476c0 1.08.198 1.902.594 2.466zm.685-4.412c.221-.408.567-.612 1.04-.612s.819.204 1.04.612.331 1.054.331 1.937c0 .884-.11 1.531-.331 1.941-.221.411-.567.617-1.04.617s-.819-.207-1.04-.621-.331-1.06-.331-1.938c0-.882.11-1.528.331-1.936zm11.969 4.412c.396-.564.593-1.39.593-2.476s-.197-1.909-.593-2.471c-.396-.561-.972-.842-1.726-.842-.755 0-1.33.282-1.726.847s-.594 1.39-.594 2.476c0 1.079.198 1.901.594 2.466s.971.847 1.726.847c.754 0 1.329-.282 1.726-.847zm-2.766-.538c-.221-.414-.331-1.06-.331-1.938 0-.883.11-1.528.331-1.937s.567-.612 1.04-.612c.472 0 .818.204 1.039.612.222.408.332 1.054.332 1.937 0 .884-.11 1.531-.332 1.941-.221.411-.567.617-1.039.617-.472.001-.819-.206-1.04-.62zm8.973.528c-.147 0-.26.034-.336.102a.359.359 0 0 0-.115.285c0 .264.15.396.451.396h3.073c.295 0 .441-.132.441-.396 0-.122-.036-.218-.11-.285-.073-.067-.184-.102-.331-.102h-1.067v-5.272a.475.475 0 0 0-.129-.35.45.45 0 0 0-.331-.128.788.788 0 0 0-.405.128l-1.417.902a.374.374 0 0 0-.184.331.48.48 0 0 0 .114.313.342.342 0 0 0 .271.139.358.358 0 0 0 .185-.056l.947-.598v4.591h-1.057zm12.718.387c0-.122-.037-.218-.11-.285s-.185-.102-.331-.102h-1.068v-5.272a.478.478 0 0 0-.128-.35.455.455 0 0 0-.332-.128.782.782 0 0 0-.404.128l-1.418.902a.376.376 0 0 0-.184.331c0 .116.038.221.115.313a.341.341 0 0 0 .271.139.357.357 0 0 0 .184-.056l.948-.598v4.591h-1.059c-.147 0-.259.034-.336.102a.362.362 0 0 0-.115.285c0 .264.15.396.451.396h3.074c.294 0 .442-.132.442-.396zm-27.746 16.72c-.123-.196-.248-.35-.377-.46s-.273-.188-.433-.23c.533-.086.944-.287 1.233-.603.288-.316.433-.729.433-1.237 0-.613-.189-1.08-.566-1.399-.377-.318-.925-.479-1.643-.479h-2.292a.468.468 0 0 0-.345.125.45.45 0 0 0-.124.335v5.595c0 .147.043.264.129.35s.199.129.34.129c.147 0 .263-.043.346-.129s.124-.202.124-.35v-2.245h1.04c.258 0 .466.045.626.134.159.089.31.244.45.465l1.233 1.914a.478.478 0 0 0 .414.229.46.46 0 0 0 .309-.115.356.356 0 0 0 .134-.28.447.447 0 0 0-.083-.258l-.948-1.491zm-1.463-1.362h-1.721v-2.282h1.721c.484 0 .84.091 1.067.271.227.182.341.468.341.86s-.115.683-.346.87c-.229.187-.584.281-1.062.281zm11.236-2.283c.141 0 .25-.032.326-.097.077-.063.115-.157.115-.28a.359.359 0 0 0-.115-.285.48.48 0 0 0-.326-.102h-3.387a.465.465 0 0 0-.345.125.45.45 0 0 0-.125.335v5.567c0 .142.042.253.125.336a.463.463 0 0 0 .345.124h3.387c.141 0 .25-.033.326-.101a.36.36 0 0 0 .115-.286c0-.251-.147-.377-.441-.377h-2.927v-2.144h2.742c.142 0 .25-.034.327-.102.076-.067.115-.162.115-.285s-.039-.218-.115-.285a.483.483 0 0 0-.327-.102h-2.742v-2.043h2.927zm8.618 2.49a9.303 9.303 0 0 0-1.312-.382c-.516-.122-.89-.259-1.123-.409-.232-.15-.35-.373-.35-.667 0-.344.132-.612.396-.806.264-.193.632-.289 1.104-.289.35 0 .649.047.897.143.249.095.514.25.796.464.123.08.225.12.304.12.086 0 .161-.04.226-.12a.426.426 0 0 0 .097-.275.484.484 0 0 0-.184-.378 2.554 2.554 0 0 0-.938-.543 3.817 3.817 0 0 0-1.206-.184c-.473 0-.893.081-1.261.244-.368.162-.655.39-.86.681-.206.291-.309.624-.309.998s.094.683.281.925c.187.242.446.435.777.575.331.142.755.267 1.27.377.54.123.933.252 1.179.387a.653.653 0 0 1 .367.607c0 .344-.132.607-.396.791-.264.185-.641.276-1.132.276a3.055 3.055 0 0 1-1.868-.607c-.123-.079-.227-.119-.313-.119s-.16.038-.221.114a.434.434 0 0 0-.093.281c0 .153.059.279.175.377.252.228.588.405 1.008.534.421.129.864.193 1.33.193.484 0 .912-.079 1.284-.235.371-.156.659-.377.864-.662a1.63 1.63 0 0 0 .309-.98c0-.361-.1-.657-.299-.888a1.984 1.984 0 0 0-.799-.543zm10.717-3.299c-.142 0-.255.045-.341.134s-.129.204-.129.345v3.543c0 .595-.145 1.046-.433 1.353s-.712.46-1.27.46c-.564 0-.989-.153-1.274-.46-.286-.307-.429-.758-.429-1.353v-3.543a.477.477 0 0 0-.128-.35.463.463 0 0 0-.341-.129c-.142 0-.255.043-.341.129s-.129.202-.129.35v3.479c0 .871.224 1.53.672 1.979.448.447 1.104.672 1.97.672.858 0 1.514-.226 1.965-.677.45-.451.676-1.108.676-1.974v-3.479c0-.147-.043-.264-.129-.35s-.198-.129-.339-.129zm9.801 6.137c0-.129-.038-.227-.115-.294a.478.478 0 0 0-.327-.102h-2.797v-5.264c0-.147-.043-.264-.129-.35s-.203-.129-.35-.129c-.142 0-.255.045-.341.134s-.129.204-.129.345v5.613a.43.43 0 0 0 .124.322.467.467 0 0 0 .336.119h3.285c.142 0 .25-.033.327-.101.078-.066.116-.164.116-.293zm5.056.309a.467.467 0 0 0 .345.133c.147 0 .264-.044.35-.133s.129-.204.129-.346v-5.263h1.841c.295 0 .442-.132.442-.396 0-.129-.039-.228-.115-.295a.483.483 0 0 0-.327-.102h-4.638c-.142 0-.25.034-.327.102s-.115.166-.115.295c0 .264.147.396.442.396h1.84v5.263c0 .142.045.257.133.346zm8.154-.851a.528.528 0 0 0-.437-.202c-.16 0-.295.057-.405.17s-.166.256-.166.428c0 .16.051.292.152.396a.58.58 0 0 0 .382.175 1.25 1.25 0 0 1-.331.636.306.306 0 0 0-.083.192c0 .074.027.137.083.189a.282.282 0 0 0 .202.078.334.334 0 0 0 .239-.11c.35-.381.524-.832.524-1.353.001-.265-.053-.465-.16-.599zm-.004-3.474a.557.557 0 0 0-.414-.17.57.57 0 0 0-.419.17c-.114.113-.171.256-.171.428s.057.313.171.424c.113.11.253.165.419.165a.565.565 0 0 0 .579-.589.59.59 0 0 0-.165-.428zm7.122 4.486c.755 0 1.33-.282 1.726-.847s.594-1.39.594-2.476-.198-1.909-.594-2.471-.971-.842-1.726-.842c-.754 0-1.329.282-1.726.847-.396.564-.593 1.39-.593 2.475 0 1.08.197 1.902.593 2.467.397.565.972.847 1.726.847zm-1.04-5.259c.222-.408.568-.612 1.04-.612.473 0 .819.204 1.04.612.221.407.331 1.054.331 1.937 0 .884-.11 1.53-.331 1.941s-.567.617-1.04.617c-.472 0-.818-.207-1.04-.622-.221-.414-.331-1.06-.331-1.937 0-.882.11-1.528.331-1.936zm8.991 5.066c.11-.11.166-.252.166-.424s-.056-.314-.166-.428-.248-.17-.414-.17a.581.581 0 0 0-.589.598.569.569 0 0 0 .589.589.562.562 0 0 0 .414-.165zm9.424-3.267c0-1.019-.217-1.802-.649-2.352-.432-.549-1.05-.823-1.854-.823-.411 0-.778.091-1.1.271a1.983 1.983 0 0 0-.76.755 2.157 2.157 0 0 0-.276 1.09c0 .405.085.764.253 1.077.169.313.407.557.714.731s.653.262 1.04.262c.38 0 .722-.09 1.025-.271.304-.181.523-.428.658-.74v.019c0 .84-.141 1.495-.423 1.964-.282.47-.679.704-1.188.704-.466 0-.957-.199-1.473-.598a.861.861 0 0 0-.161-.093.41.41 0 0 0-.151-.027c-.086 0-.159.038-.221.115s-.092.17-.092.28c0 .142.061.264.184.368.245.228.543.405.893.534s.699.193 1.049.193c.521 0 .973-.139 1.354-.414.38-.276.672-.674.874-1.192.202-.517.304-1.135.304-1.853zm-1.514-.124c-.243.242-.557.363-.943.363-.381 0-.686-.121-.916-.363-.229-.243-.345-.561-.345-.953 0-.398.115-.719.345-.961.23-.242.535-.363.916-.363.393 0 .708.121.947.363s.359.563.359.961c0 .393-.121.71-.363.953zm10.79 1.781c0-.393-.104-.73-.313-1.013-.208-.282-.503-.479-.883-.589.318-.116.571-.308.759-.575.188-.267.281-.575.281-.925 0-.533-.197-.955-.59-1.265s-.936-.465-1.629-.465-1.236.155-1.629.465-.589.731-.589 1.265c0 .35.094.657.281.921.187.264.443.457.769.579a1.6 1.6 0 0 0-.889.58c-.211.282-.317.622-.317 1.021 0 .564.207 1.004.621 1.32.414.315.999.474 1.753.474.755 0 1.34-.158 1.754-.474.414-.316.621-.755.621-1.319zm-3.681-3.019c0-.337.11-.597.332-.777.221-.181.546-.271.975-.271.43 0 .755.091.976.271.222.181.332.44.332.777 0 .35-.11.617-.332.801-.221.184-.546.276-.976.276-.429 0-.754-.093-.975-.276-.222-.184-.332-.451-.332-.801zm1.306 4.049c-.975 0-1.463-.365-1.463-1.095 0-.736.488-1.104 1.463-1.104.976 0 1.464.368 1.464 1.104 0 .73-.488 1.095-1.464 1.095zm-85.621 19.176c.755 0 1.33-.282 1.726-.847.396-.563.594-1.389.594-2.475s-.198-1.909-.594-2.471-.971-.842-1.726-.842-1.33.282-1.726.847-.594 1.389-.594 2.475c0 1.08.198 1.902.594 2.466.396.564.971.847 1.726.847zm-1.04-5.259c.221-.407.567-.611 1.04-.611s.819.204 1.04.611c.221.408.331 1.054.331 1.938 0 .883-.11 1.53-.331 1.941s-.567.616-1.04.616-.819-.207-1.04-.621-.331-1.06-.331-1.937c0-.884.11-1.529.331-1.937zm10.851-1.219a.45.45 0 0 0-.332-.129.775.775 0 0 0-.404.129l-1.418.901a.377.377 0 0 0-.184.332c0 .116.038.221.115.313a.343.343 0 0 0 .271.138.365.365 0 0 0 .184-.055l.948-.599v4.592h-1.059c-.147 0-.259.034-.336.102a.36.36 0 0 0-.115.285c0 .264.15.396.451.396h3.074c.294 0 .441-.132.441-.396 0-.123-.037-.218-.11-.285s-.185-.102-.331-.102h-1.067v-5.272a.467.467 0 0 0-.128-.35zm8.594 6.478c.755 0 1.33-.282 1.726-.847.396-.563.594-1.389.594-2.475s-.198-1.909-.594-2.471-.971-.842-1.726-.842-1.33.282-1.726.847-.594 1.389-.594 2.475c0 1.08.198 1.902.594 2.466.396.564.972.847 1.726.847zm-1.04-5.259c.221-.407.567-.611 1.04-.611s.819.204 1.04.611c.221.408.331 1.054.331 1.938 0 .883-.11 1.53-.331 1.941s-.567.616-1.04.616-.819-.207-1.04-.621-.331-1.06-.331-1.937c0-.884.111-1.529.331-1.937zm10.851-1.219a.451.451 0 0 0-.332-.129.775.775 0 0 0-.404.129l-1.418.901a.377.377 0 0 0-.184.332c0 .116.038.221.115.313a.343.343 0 0 0 .271.138.365.365 0 0 0 .184-.055l.948-.599v4.592h-1.059c-.147 0-.259.034-.336.102a.36.36 0 0 0-.115.285c0 .264.15.396.451.396h3.074c.294 0 .441-.132.441-.396 0-.123-.037-.218-.11-.285s-.185-.102-.331-.102h-1.068v-5.272a.47.47 0 0 0-.127-.35zm14.705 6.478c.755 0 1.33-.282 1.726-.847.396-.563.594-1.389.594-2.475s-.198-1.909-.594-2.471-.971-.842-1.726-.842c-.754 0-1.329.282-1.726.847-.396.564-.594 1.389-.594 2.475 0 1.08.198 1.902.594 2.466.397.564.972.847 1.726.847zm-1.04-5.259c.222-.407.567-.611 1.04-.611s.819.204 1.04.611c.221.408.331 1.054.331 1.938 0 .883-.11 1.53-.331 1.941s-.567.616-1.04.616-.818-.207-1.04-.621c-.221-.414-.331-1.06-.331-1.937 0-.884.11-1.529.331-1.937zm8.973 4.403c-.146 0-.259.034-.336.102a.36.36 0 0 0-.114.285c0 .264.149.396.45.396h3.074c.294 0 .441-.132.441-.396 0-.123-.037-.218-.11-.285s-.184-.102-.331-.102h-1.067v-5.272c0-.147-.043-.264-.129-.35s-.196-.129-.332-.129a.777.777 0 0 0-.404.129l-1.417.901a.376.376 0 0 0-.185.332c0 .116.038.221.115.313a.343.343 0 0 0 .271.138.362.362 0 0 0 .184-.055l.948-.599v4.592h-1.058zm10.472.856c.755 0 1.33-.282 1.726-.847.396-.563.594-1.389.594-2.475s-.198-1.909-.594-2.471-.971-.842-1.726-.842c-.754 0-1.33.282-1.726.847s-.594 1.389-.594 2.475c0 1.08.198 1.902.594 2.466.396.564.972.847 1.726.847zm-1.04-5.259c.222-.407.567-.611 1.04-.611s.819.204 1.04.611c.221.408.331 1.054.331 1.938 0 .883-.11 1.53-.331 1.941s-.567.616-1.04.616-.818-.207-1.04-.621c-.221-.414-.331-1.06-.331-1.937 0-.884.111-1.529.331-1.937zm12.489 4.79c0-.123-.037-.218-.11-.285s-.184-.102-.331-.102h-1.067v-5.272c0-.147-.043-.264-.129-.35s-.197-.129-.332-.129a.775.775 0 0 0-.404.129l-1.418.901a.377.377 0 0 0-.184.332c0 .116.038.221.115.313a.343.343 0 0 0 .271.138.362.362 0 0 0 .184-.055l.948-.599v4.592h-1.059c-.147 0-.259.034-.336.102a.36.36 0 0 0-.114.285c0 .264.149.396.45.396h3.074c.294-.001.442-.133.442-.396zm9.203 0a.368.368 0 0 0-.11-.285c-.074-.067-.185-.102-.332-.102h-1.067v-5.272c0-.147-.043-.264-.129-.35s-.196-.129-.331-.129a.78.78 0 0 0-.405.129l-1.417.901a.375.375 0 0 0-.184.332.48.48 0 0 0 .114.313.344.344 0 0 0 .271.138.366.366 0 0 0 .185-.055l.947-.599v4.592h-1.058c-.147 0-.26.034-.336.102a.357.357 0 0 0-.115.285c0 .264.15.396.451.396h3.073c.295-.001.443-.133.443-.396zm9.202 0c0-.123-.037-.218-.11-.285s-.185-.102-.331-.102h-1.067v-5.272a.477.477 0 0 0-.129-.35.448.448 0 0 0-.332-.129.775.775 0 0 0-.404.129l-1.417.901a.376.376 0 0 0-.185.332c0 .116.038.221.115.313a.343.343 0 0 0 .271.138.362.362 0 0 0 .184-.055l.948-.599v4.592h-1.059c-.147 0-.259.034-.336.102a.36.36 0 0 0-.115.285c0 .264.15.396.451.396h3.074c.294-.001.442-.133.442-.396zm-89.684 15.564a9.21 9.21 0 0 0-1.312-.382c-.516-.123-.89-.26-1.123-.41-.233-.149-.35-.372-.35-.667 0-.343.132-.611.396-.805s.632-.29 1.104-.29c.35 0 .648.048.897.143.248.096.514.25.796.465.122.08.224.119.304.119.086 0 .161-.039.226-.119s.097-.172.097-.276a.481.481 0 0 0-.185-.377c-.258-.239-.57-.42-.938-.543s-.77-.184-1.206-.184c-.472 0-.893.081-1.261.243-.367.163-.654.39-.86.681-.205.292-.308.625-.308.999s.093.683.28.925.446.434.777.575c.332.141.755.267 1.271.377.54.123.933.252 1.178.387s.368.337.368.607c0 .343-.132.606-.396.791-.264.184-.642.276-1.132.276-.7 0-1.322-.203-1.868-.607-.123-.08-.228-.12-.313-.12s-.159.039-.221.115a.431.431 0 0 0-.092.28c0 .154.058.279.175.378.251.227.587.404 1.008.533.42.129.863.193 1.33.193.484 0 .912-.078 1.283-.234s.659-.378.865-.663c.205-.285.309-.611.309-.979 0-.362-.101-.658-.3-.888a2 2 0 0 0-.799-.543zm10.155-3.253h-4.638a.476.476 0 0 0-.327.102c-.076.067-.114.165-.114.294 0 .264.146.396.441.396h1.841v5.264c0 .141.044.256.133.345s.204.134.346.134c.146 0 .264-.045.35-.134s.129-.204.129-.345v-5.264h1.84c.295 0 .442-.132.442-.396 0-.129-.039-.227-.115-.294a.488.488 0 0 0-.328-.102zm7.251.258a.477.477 0 0 0-.207-.23.587.587 0 0 0-.598 0 .486.486 0 0 0-.207.23l-2.596 5.677a.521.521 0 0 0-.046.185.37.37 0 0 0 .143.294c.095.08.204.12.327.12a.425.425 0 0 0 .229-.069.42.42 0 0 0 .166-.197l.607-1.381h3.368l.607 1.381a.427.427 0 0 0 .387.266.48.48 0 0 0 .317-.12.37.37 0 0 0 .143-.294.526.526 0 0 0-.046-.185l-2.594-5.677zm-1.839 3.874l1.343-3.046 1.354 3.046h-2.697zm12.708-4.132h-4.638a.476.476 0 0 0-.327.102c-.076.067-.114.165-.114.294 0 .264.146.396.441.396h1.841v5.264c0 .141.044.256.133.345s.204.134.346.134c.147 0 .264-.045.35-.134s.129-.204.129-.345v-5.264h1.84c.295 0 .442-.132.442-.396 0-.129-.039-.227-.115-.294a.488.488 0 0 0-.328-.102zm9.672-.046a.451.451 0 0 0-.341.133.478.478 0 0 0-.129.346v3.542c0 .596-.145 1.046-.433 1.353-.288.308-.712.461-1.27.461-.564 0-.989-.153-1.275-.461-.285-.307-.428-.757-.428-1.353v-3.542c0-.147-.043-.264-.129-.35s-.199-.129-.34-.129c-.142 0-.255.043-.341.129s-.129.202-.129.35v3.478c0 .871.224 1.531.672 1.979.448.448 1.104.672 1.97.672.858 0 1.514-.226 1.965-.676.45-.451.676-1.109.676-1.975v-3.478c0-.147-.043-.264-.129-.35s-.198-.129-.339-.129zm9.116 3.299a9.17 9.17 0 0 0-1.312-.382c-.516-.123-.89-.26-1.123-.41-.233-.149-.35-.372-.35-.667 0-.343.132-.611.396-.805s.632-.29 1.104-.29c.35 0 .648.048.897.143.248.096.514.25.796.465.123.08.224.119.304.119.086 0 .161-.039.226-.119s.097-.172.097-.276a.481.481 0 0 0-.185-.377c-.258-.239-.57-.42-.938-.543s-.77-.184-1.205-.184a3.1 3.1 0 0 0-1.261.243c-.368.163-.655.39-.861.681-.205.292-.308.625-.308.999s.094.683.28.925c.188.242.446.434.778.575.331.141.754.267 1.27.377.54.123.933.252 1.178.387s.368.337.368.607c0 .343-.132.606-.396.791-.264.184-.642.276-1.132.276a3.06 3.06 0 0 1-1.868-.607c-.123-.08-.228-.12-.313-.12s-.159.039-.221.115a.431.431 0 0 0-.092.28c0 .154.059.279.175.378.252.227.588.404 1.008.533s.863.193 1.33.193c.484 0 .912-.078 1.283-.234s.659-.378.865-.663c.205-.285.309-.611.309-.979 0-.362-.1-.658-.3-.888a2.008 2.008 0 0 0-.799-.543zm6.29 2.093a.581.581 0 0 0-.589.599c0 .172.057.313.17.423s.253.166.419.166a.564.564 0 0 0 .579-.589.59.59 0 0 0-.165-.428.554.554 0 0 0-.414-.171zm0-3.441a.581.581 0 0 0-.589.599c0 .172.057.313.17.423s.253.166.419.166a.564.564 0 0 0 .579-.589c0-.172-.055-.314-.165-.428s-.249-.171-.414-.171zm8.659-1.647a.482.482 0 0 0-.207-.23.59.59 0 0 0-.299-.083.59.59 0 0 0-.299.083.48.48 0 0 0-.207.23l-2.596 5.677a.521.521 0 0 0-.046.185.37.37 0 0 0 .143.294c.095.08.204.12.327.12.079 0 .156-.023.229-.069s.129-.111.166-.197l.607-1.381h3.368l.607 1.381a.421.421 0 0 0 .386.266c.117 0 .223-.04.318-.12a.37.37 0 0 0 .143-.294.526.526 0 0 0-.046-.185l-2.594-5.677zm-1.841 3.874l1.344-3.046 1.353 3.046h-2.697zm11.835-4.132h-2.218a.464.464 0 0 0-.345.124.454.454 0 0 0-.125.336v5.595c0 .147.043.264.129.35s.199.129.341.129c.153 0 .271-.043.354-.129s.124-.202.124-.35v-2.162h1.739c.688 0 1.221-.172 1.602-.516.38-.344.57-.822.57-1.436 0-.619-.19-1.098-.57-1.436-.38-.336-.913-.505-1.601-.505zm-.101 3.129h-1.638v-2.365h1.638c.908 0 1.362.393 1.362 1.178 0 .791-.454 1.187-1.362 1.187zm9.783-3.129h-2.219c-.146 0-.262.041-.345.124s-.124.195-.124.336v5.595c0 .147.043.264.129.35s.199.129.34.129c.153 0 .271-.043.354-.129s.124-.202.124-.35v-2.162h1.74c.687 0 1.221-.172 1.601-.516.381-.344.571-.822.571-1.436 0-.619-.19-1.098-.571-1.436-.38-.336-.914-.505-1.6-.505zm-.102 3.129h-1.639v-2.365h1.639c.908 0 1.362.393 1.362 1.178 0 .791-.454 1.187-1.362 1.187zm11.209 1.279c-.123-.196-.249-.35-.378-.46s-.272-.187-.433-.229c.534-.086.945-.287 1.233-.604.288-.315.433-.728.433-1.237 0-.613-.188-1.079-.565-1.398-.378-.319-.925-.479-1.644-.479h-2.291a.464.464 0 0 0-.345.124.454.454 0 0 0-.125.336v5.595c0 .147.043.264.129.35s.199.129.341.129a.455.455 0 0 0 .345-.129.482.482 0 0 0 .125-.35v-2.245h1.039c.258 0 .467.044.626.133.16.09.31.244.451.465l1.233 1.914a.48.48 0 0 0 .723.115.357.357 0 0 0 .133-.281.435.435 0 0 0-.083-.257l-.947-1.492zm-1.464-1.362h-1.721v-2.282h1.721c.485 0 .841.091 1.067.271.228.181.341.468.341.86s-.115.683-.345.869c-.23.188-.584.282-1.063.282zm11.734-2.719c-.454-.267-.99-.399-1.61-.399-.613 0-1.147.133-1.601.399-.454.268-.803.65-1.045 1.15s-.363 1.091-.363 1.771c0 .675.122 1.261.368 1.758.245.497.594.88 1.044 1.149.451.271.983.405 1.597.405.62 0 1.156-.135 1.61-.405.454-.27.803-.654 1.045-1.154s.363-1.087.363-1.762-.121-1.263-.363-1.763-.591-.882-1.045-1.149zm-.092 4.798c-.362.441-.868.663-1.519.663-.644 0-1.146-.222-1.505-.663-.358-.441-.538-1.07-.538-1.886 0-.816.18-1.443.538-1.882.359-.438.861-.658 1.505-.658.656 0 1.164.22 1.523.658.358.438.538 1.065.538 1.882.001.816-.18 1.445-.542 1.886zm11.448-5.18a.408.408 0 0 0-.396.258l-2.255 5.052-2.255-5.052a.413.413 0 0 0-.404-.258.528.528 0 0 0-.336.12.37.37 0 0 0-.152.304c0 .043.016.101.046.175l2.586 5.687a.48.48 0 0 0 .207.229.583.583 0 0 0 .3.083.555.555 0 0 0 .294-.083.501.501 0 0 0 .203-.229l2.595-5.687a.508.508 0 0 0 .046-.175.378.378 0 0 0-.147-.299.501.501 0 0 0-.332-.125zm8.853 5.779h-2.926v-2.145h2.742c.141 0 .25-.033.326-.101.077-.067.115-.163.115-.286a.36.36 0 0 0-.115-.285.48.48 0 0 0-.326-.101h-2.742v-2.043h2.926a.49.49 0 0 0 .327-.097c.076-.064.115-.158.115-.28a.36.36 0 0 0-.115-.285.483.483 0 0 0-.327-.102h-3.386c-.147 0-.263.041-.346.124s-.124.195-.124.336v5.567a.45.45 0 0 0 .124.335.467.467 0 0 0 .346.125h3.386c.142 0 .25-.034.327-.102a.36.36 0 0 0 .115-.285c0-.25-.147-.375-.442-.375zm-124.77 12.605c-.755 0-1.33.282-1.726.847s-.594 1.39-.594 2.476c0 1.08.198 1.901.594 2.466s.971.847 1.726.847 1.33-.282 1.726-.847.594-1.39.594-2.476c0-1.085-.198-1.909-.594-2.471-.396-.56-.971-.842-1.726-.842zm1.04 5.254c-.221.411-.567.617-1.04.617s-.819-.207-1.04-.621-.331-1.06-.331-1.938c0-.883.11-1.528.331-1.937s.567-.612 1.04-.612.819.204 1.04.612.331 1.054.331 1.937c0 .885-.11 1.532-.331 1.942zm8.163-5.254c-.755 0-1.33.282-1.726.847s-.594 1.39-.594 2.476c0 1.08.198 1.901.594 2.466s.971.847 1.726.847c.754 0 1.329-.282 1.726-.847.396-.564.593-1.39.593-2.476 0-1.085-.197-1.909-.593-2.471-.397-.56-.972-.842-1.726-.842zm1.039 5.254c-.221.411-.567.617-1.039.617-.473 0-.819-.207-1.04-.621s-.331-1.06-.331-1.938c0-.883.11-1.528.331-1.937s.567-.612 1.04-.612c.472 0 .818.204 1.039.612.222.408.332 1.054.332 1.937 0 .885-.11 1.532-.332 1.942zm8.163-5.254c-.755 0-1.33.282-1.726.847s-.594 1.39-.594 2.476c0 1.08.198 1.901.594 2.466s.971.847 1.726.847 1.33-.282 1.726-.847.594-1.39.594-2.476c0-1.085-.198-1.909-.594-2.471-.396-.56-.971-.842-1.726-.842zm1.04 5.254c-.221.411-.567.617-1.04.617s-.819-.207-1.04-.621-.331-1.06-.331-1.938c0-.883.11-1.528.331-1.937s.567-.612 1.04-.612.819.204 1.04.612.331 1.054.331 1.937c0 .885-.11 1.532-.331 1.942zm9.967.526h-1.068v-5.272a.477.477 0 0 0-.128-.35.451.451 0 0 0-.332-.129.775.775 0 0 0-.404.129l-1.418.901a.376.376 0 0 0-.184.331c0 .116.038.221.115.313a.341.341 0 0 0 .271.139.357.357 0 0 0 .184-.056l.948-.598v4.592h-1.059c-.147 0-.259.033-.336.101a.362.362 0 0 0-.115.285c0 .264.15.396.451.396h3.074c.294 0 .441-.132.441-.396 0-.122-.037-.218-.11-.285s-.183-.101-.33-.101zm15.313 0h-1.067v-5.272c0-.147-.043-.264-.129-.35s-.196-.129-.331-.129a.78.78 0 0 0-.405.129l-1.417.901a.374.374 0 0 0-.184.331.48.48 0 0 0 .114.313.342.342 0 0 0 .271.139.358.358 0 0 0 .185-.056l.947-.598v4.592h-1.058c-.147 0-.26.033-.336.101a.359.359 0 0 0-.115.285c0 .264.15.396.451.396h3.073c.295 0 .442-.132.442-.396a.37.37 0 0 0-.11-.285c-.073-.068-.184-.101-.331-.101zm9.203 0h-1.067v-5.272c0-.147-.043-.264-.129-.35s-.196-.129-.332-.129a.777.777 0 0 0-.404.129l-1.417.901a.375.375 0 0 0-.185.331c0 .116.038.221.115.313a.341.341 0 0 0 .271.139.354.354 0 0 0 .184-.056l.948-.598v4.592h-1.059c-.146 0-.259.033-.336.101a.361.361 0 0 0-.114.285c0 .264.149.396.45.396h3.074c.294 0 .441-.132.441-.396 0-.122-.037-.218-.11-.285s-.183-.101-.33-.101z"/><path fill="#70AEF3" d="M635.257 437.723h7.362v8.281h-7.362zm-9.202 6.441h5.521v.92h-5.521z"/></svg>