<svg opacity=".122" xmlns="http://www.w3.org/2000/svg" width="326" height="430" viewBox="0 0 326 430"><path fill-rule="evenodd" clip-rule="evenodd" fill="#0B1F45" d="M193.969 309.429a2.818 2.818 0 0 0-2.457.716l-68.903-59.769a3.26 3.26 0 0 0 .596-1.412 3.36 3.36 0 0 0-.045-1.336c-.278-1.169-1.17-2.116-2.352-2.345-1.584-.305-3.099.798-3.421 2.473L47.8 245.86a3.355 3.355 0 0 0-.09-.853c-.278-1.169-1.17-2.116-2.352-2.344-1.611-.312-3.149.832-3.436 2.554-.077.458-.056.912.044 1.336.278 1.167 1.17 2.115 2.353 2.345.452.086.899.059 1.314-.063l19.059 73.254c-1.062.314-1.916 1.253-2.122 2.491-.077.458-.056.912.044 1.336.267 1.118 1.093 2.032 2.199 2.31l-20.846 95.417a4.177 4.177 0 0 0-.153-.033c-1.611-.311-3.149.832-3.436 2.553-.077.459-.057.913.044 1.337.278 1.169 1.17 2.115 2.353 2.344 1.611.312 3.149-.832 3.436-2.555a3.355 3.355 0 0 0-.044-1.335 3.224 3.224 0 0 0-.927-1.612l48.461-59.402a.424.424 0 0 1 .038.008c1.432.276 2.806-.598 3.295-2.005l70.078 19.263a3.392 3.392 0 0 0-.002 1.562c.279 1.169 1.172 2.116 2.354 2.345 1.611.31 3.148-.833 3.436-2.555a3.36 3.36 0 0 0-.045-1.336c-.234-.989-.91-1.818-1.828-2.189l22.63-64.323c1.324-.094 2.468-1.139 2.71-2.6a3.336 3.336 0 0 0-.045-1.335c-.279-1.172-1.172-2.119-2.353-2.346zm-75.53-58.557c.375.321.826.55 1.33.646 1 .192 1.972-.175 2.634-.893l68.883 59.75a3.23 3.23 0 0 0-.735 1.51l-93.288-14.772a3.318 3.318 0 0 0-.088-.905 3.192 3.192 0 0 0-1.178-1.822l22.442-43.514zm-70.685-4.529c.008-.051.016-.101.022-.15l69.564 1.895a3.325 3.325 0 0 0 .641 2.295l-22.528 43.682a2.816 2.816 0 0 0-3.053.486l-45.227-46.813c.289-.395.494-.869.581-1.395zm-1.826 2.386a2.91 2.91 0 0 0 .814-.517l45.227 46.813a3.228 3.228 0 0 0-.581 1.393 3.36 3.36 0 0 0 .044 1.336c.095.399.263.775.49 1.104L67.45 322.774a2.88 2.88 0 0 0-1.443-.748 2.752 2.752 0 0 0-1.011-.009l-19.068-73.288zm-.933 175.406a2.879 2.879 0 0 0-.729-.398l20.853-95.452a2.8 2.8 0 0 0 2.058-.535l25.376 31.486a3.174 3.174 0 0 0-1.211 2.03c-.076.459-.056.911.045 1.335.248 1.042.984 1.908 1.978 2.245l-48.37 59.289zm49.782-65.424a2.764 2.764 0 0 0-1.669.195l-25.46-31.591c.38-.432.651-.981.755-1.609a3.36 3.36 0 0 0-.045-1.336 3.282 3.282 0 0 0-.49-1.104l24.473-23.917a2.884 2.884 0 0 0 1.716.787l1.199 58.711a2.83 2.83 0 0 0-.479-.136zm72.426 23.176l-70.076-19.262a3.36 3.36 0 0 0 .002-1.57 3.183 3.183 0 0 0-1.246-1.871l-1.206-59.059a2.874 2.874 0 0 0 1.421-.619l71.636 81.417c-.224.28-.406.604-.531.964zm3.526-1.958a2.809 2.809 0 0 0-2.541.539l-71.637-81.417c.29-.36.507-.794.623-1.28l93.313 14.775c.001.265.031.524.091.771.278 1.169 1.171 2.116 2.353 2.346.133.024.264.041.393.048l-22.595 64.218zM67.627 196.314c-.016.327.016.645.087.944.312 1.312 1.392 2.313 2.72 2.389 1.348.077 2.531-.822 2.952-2.119l54.443-8.48c.015.108.035.216.06.32.312 1.311 1.392 2.312 2.72 2.387 1.634.094 3.026-1.246 3.11-2.993a3.388 3.388 0 0 0-.087-.945 3.21 3.21 0 0 0-1.096-1.756l14.573-20.773.193-.274 2.867-4.087.204-.291.204-.29 13.498-19.24.296-.42 5.831-8.313a2.836 2.836 0 0 0 1.624.631c1.634.094 3.026-1.246 3.11-2.993a3.388 3.388 0 0 0-.088-.945c-.313-1.311-1.391-2.312-2.72-2.387-1.634-.093-3.026 1.246-3.11 2.993a3.362 3.362 0 0 0 .226 1.386l-46.248 20.599-1.674.744-5.135 2.287-12.487 5.562c-.427-1.088-1.406-1.879-2.582-1.945-1.582-.091-2.937 1.162-3.098 2.824L6.837 150.696a3.416 3.416 0 0 0-.074-1.113c-.312-1.311-1.391-2.312-2.72-2.389-1.634-.093-3.026 1.248-3.11 2.995-.016.327.016.644.087.944.312 1.311 1.391 2.313 2.72 2.389 1.077.061 2.049-.501 2.61-1.392l61.279 44.144-.002.04zm36.297-34.679a3.378 3.378 0 0 0-.12-1.072l12.592-5.608 4.955-2.207 1.738-.774 1.904-.847 44.386-19.769c.153.298.351.569.583.801l-6.07 8.651-.295.422-13.352 19.032-.203.29-.204.291-2.833 4.038-.193.275-14.534 20.717a2.813 2.813 0 0 0-1.366-.446 2.84 2.84 0 0 0-2.196.866l-25.302-23.036a3.295 3.295 0 0 0 .51-1.624zm-4.699 2.389c.449.351.994.571 1.59.604a2.836 2.836 0 0 0 2.195-.865l25.303 23.035a3.303 3.303 0 0 0-.513 1.918l-54.322 8.461a3.374 3.374 0 0 0-.021-1.468 3.262 3.262 0 0 0-.306-.803l26.074-30.882zM6.51 151.845c.126-.253.221-.529.279-.82l91.214 10.437c0 .269.032.53.092.781.119.502.352.96.668 1.337l-25.988 30.777a2.89 2.89 0 0 0-2.039-1.036c-1.503-.086-2.802 1.042-3.065 2.585L6.51 151.845zm319.365-27.043c-.33-1.383-1.532-2.378-2.916-2.313l-.093.007a2.736 2.736 0 0 0-1.718.799c-.077.077-.15.156-.219.239a3.194 3.194 0 0 0-.703 2.16c.01.212.038.418.085.616a3.145 3.145 0 0 0 .767 1.427L266.85 186.39a2.813 2.813 0 0 0-.231-.22 2.742 2.742 0 0 0-2.27-.627 2.805 2.805 0 0 0-1.479.785 3.112 3.112 0 0 0-.887 1.886 3.252 3.252 0 0 0 .064 1.082l-27.912 10.8-.004-.093a3.254 3.254 0 0 0-.085-.617c-.329-1.384-1.532-2.379-2.917-2.312-1.572.074-2.789 1.488-2.732 3.166l.001.037a3.354 3.354 0 0 0 .085.616c.289 1.209 1.241 2.12 2.399 2.287l-1.82 74.901a2.964 2.964 0 0 0-.211.002c-1.583.076-2.808 1.512-2.732 3.205.01.212.038.418.086.616.329 1.384 1.532 2.378 2.917 2.312a2.739 2.739 0 0 0 1.607-.623c.083-.068.161-.14.236-.215.582-.592.93-1.439.888-2.366a3.243 3.243 0 0 0-.233-1.078l39.809-18.401c.042.103.088.202.14.298.497.931 1.435 1.552 2.493 1.554.045 0 .09 0 .136-.003a2.577 2.577 0 0 0 .482-.068c1.344-.31 2.318-1.618 2.25-3.136a3.165 3.165 0 0 0-.698-1.869 2.89 2.89 0 0 0-.217-.238 2.834 2.834 0 0 0-.911-.615l46.951-129.043a2.687 2.687 0 0 0 1.174.207c.043-.002.086-.004.128-.009.104-.01.208-.025.31-.047 1.365-.292 2.363-1.613 2.295-3.147a3.452 3.452 0 0 0-.087-.615zm-54.679 135.652c.009.212.038.419.085.616.013.052.025.102.04.151l-39.84 18.415c-.437-.816-1.21-1.395-2.108-1.526l1.821-74.9a3.268 3.268 0 0 0 .429-.023l40.43 54.933a3.17 3.17 0 0 0-.857 2.334zm1.344-2.743l-40.255-54.698c.894-.36 1.568-1.181 1.78-2.182l28.195-10.91c.481 1.047 1.501 1.751 2.657 1.718l8.449 65.699a2.742 2.742 0 0 0-.826.373zm2.269-.357a2.704 2.704 0 0 0-.826-.106l-8.449-65.697c1.301-.343 2.236-1.63 2.17-3.117a3.141 3.141 0 0 0-.643-1.796l54.25-58.681c.143.123.297.229.459.321l-46.961 129.076zm47.66 75.084c-1.135-.173-2.204.435-2.731 1.44l-24.151-9.488-.292-.114-15.019-5.902-.325-.127-.325-.128-25.018-9.83a3.121 3.121 0 0 0 .081-1.703c-.263-1.102-1.124-1.98-2.241-2.151-1.477-.226-2.842.871-3.049 2.449-.05.384-.027.76.057 1.114a3.005 3.005 0 0 0 .762 1.388 2.63 2.63 0 0 0 1.742.789 2.544 2.544 0 0 0 1.544-.432c.087-.058.174-.123.255-.191.3-.256.551-.583.728-.958l25.178 9.893.326.128.324.128 14.875 5.845.292.115 24.122 9.479a3.083 3.083 0 0 0-.125 1.82c.262 1.102 1.124 1.982 2.241 2.152l.055.008c.104.013.208.02.311.021 1.33.01 2.494-1.033 2.683-2.479a3.06 3.06 0 0 0-.056-1.113c-.266-1.103-1.127-1.982-2.244-2.153zm-144.52-195.356l-.301.08.054.328.303-.08-.056-.328zm49.836 6.891c-.844.459-1.309 1.499-1.064 2.524a2.163 2.163 0 0 0 .184.508c.443.877 1.4 1.357 2.343 1.103 1.11-.3 1.782-1.508 1.5-2.697a2.196 2.196 0 0 0-1.143-1.472l.887-3.648.101-.409.1-.41 14.557-59.814c.324.088.672.094 1.02 0 .262-.071.5-.192.705-.352a2.127 2.127 0 0 0 .533-.604 2.353 2.353 0 0 0 .262-1.742 2.23 2.23 0 0 0-.734-1.203 2.056 2.056 0 0 0-.692-.383 1.933 1.933 0 0 0-1.047-.037l-10.086-25.356-.215-.542-8.823-22.182c.929-.418 1.457-1.512 1.2-2.59-.283-1.19-1.414-1.91-2.526-1.609a2.009 2.009 0 0 0-.887.507 2.255 2.255 0 0 0-.656 1.321 2.392 2.392 0 0 0 .043.867c.15.629.537 1.127 1.031 1.411.092.054.188.099.285.137l-14.791 44.354a1.925 1.925 0 0 0-1.211-.063 1.917 1.917 0 0 0-.506.216 1.969 1.969 0 0 0-.26.184L168.379 17.77a2.226 2.226 0 0 0 .709-1.107 2.235 2.235 0 0 0 .09-.656 2.416 2.416 0 0 0-.065-.536c-.251-1.057-1.173-1.745-2.155-1.674a1.946 1.946 0 0 0-.308.047l-.063.016a1.967 1.967 0 0 0-.235.08c-.549.225-.966.68-1.177 1.232-.039.104-.07.21-.096.318L117.054 3.017a2.36 2.36 0 0 0-.007-1.068 2.239 2.239 0 0 0-.701-1.176 1.926 1.926 0 0 0-.256-.19 1.95 1.95 0 0 0-1.568-.244c-1.112.301-1.784 1.508-1.5 2.697.099.415.301.772.569 1.051L68.908 53.441c-.501-.519-1.233-.756-1.957-.561-1.112.3-1.784 1.508-1.5 2.698.283 1.188 1.414 1.91 2.526 1.61.701-.189 1.228-.739 1.449-1.42a2.36 2.36 0 0 0 .073-1.176l-.022-.101a2.648 2.648 0 0 0-.063-.22l95.737-37.495c.037.105.08.207.129.303.329.64.932 1.066 1.604 1.144.102.013.207.015.312.011l3.051 71.947a1.75 1.75 0 0 0-.309.052l-.028.008c-.953.257-1.584 1.184-1.564 2.193a2.52 2.52 0 0 0 .064.503c.252 1.059 1.174 1.747 2.156 1.676a1.843 1.843 0 0 0 .37-.065c.791-.213 1.359-.886 1.52-1.684l35-17.873a2.151 2.151 0 0 0 .93.807l-22.739 59.242-.373.1-.146.381.373-.1-4.889 12.74a1.987 1.987 0 0 0-.843-.168 1.936 1.936 0 0 0-.458.068c-1.112.3-1.783 1.508-1.5 2.696.283 1.19 1.414 1.912 2.525 1.612.986-.267 1.627-1.248 1.561-2.297a2.288 2.288 0 0 0-.061-.401 2.22 2.22 0 0 0-.945-1.36l4.985-12.988.146-.382 22.659-59.039a1.972 1.972 0 0 0 1.005-.003c.021-.006.043-.012.064-.02l11.953 44.328-.133.706.187.692.133-.707.697 2.586a2.988 2.988 0 0 0-.413-.334l1.066 3.959c.076-.165.139-.338.186-.517l1.111 4.121-.523-.745.239.895.243.896.523.745 3.058 11.338a2.49 2.49 0 0 0-.292.131zM69.284 53.969a2.143 2.143 0 0 0-.169-.278L113.83 4.3a1.972 1.972 0 0 0 1.716.346c.664-.179 1.172-.682 1.412-1.312l48.073 12.484c-.017.209-.005.424.036.639L69.284 53.969zm137.874 20.32l.027.104-34.704 17.72a2.445 2.445 0 0 0-.047-.262c-.228-.956-1.005-1.611-1.878-1.674l-3.054-71.982.11-.027c.181-.049.352-.122.506-.215l39.543 54.262a2.33 2.33 0 0 0-.503 2.074zM224.96 27.39c.293.062.603.058.909-.026l.007-.001 9.009 22.651.217.541 9.895 24.878a2.117 2.117 0 0 0-1.049.968l-13.482-1.158-.313-.025-18.908-1.626a2.404 2.404 0 0 0-.061-.388 2.201 2.201 0 0 0-1.03-1.413L224.96 27.39zm.581 105.861l-.242-.896-.241-.895-1.528-5.666c.002-.059 0-.116-.002-.175a3.35 3.35 0 0 0-.086-.616 3.161 3.161 0 0 0-.367-.9l-1.054-3.907-.187-.691-11.794-43.738c.593-.289 1.013-.856 1.155-1.514l18.834 1.619.311.025 13.379 1.151c-.063.319-.059.659.021.997a2.186 2.186 0 0 0 1.215 1.505l-14.502 59.58-.1.409-.101.41-.942 3.871a1.927 1.927 0 0 0-.936-.058l-2.833-10.511z"/></svg>