<svg xmlns="http://www.w3.org/2000/svg" width="153.333" height="153.333" viewBox="0 0 153.333 153.333"><path fill-rule="evenodd" clip-rule="evenodd" fill="#E8E9EE" d="M79.875 24.667h-5.72v7h5.72v-7zm0 15h-5.72v7h5.72v-7zm0 68.645V69.667h-5.72v38.635L57.819 90.729l-4.188 3.901 23.39 25.156L100.41 94.63l-4.187-3.901-16.348 17.583zm0-53.645h-5.72v7h5.72v-7zm-2.86-50c-39.488 0-71.5 32.012-71.5 71.5s32.012 71.5 71.5 71.5 71.5-32.012 71.5-71.5-32.012-71.5-71.5-71.5zm0 137c-36.175 0-65.5-29.325-65.5-65.5 0-35.216 27.793-63.929 62.64-65.428v5.928h5.72v-5.928c34.847 1.498 62.641 30.212 62.641 65.428-.001 36.174-29.326 65.5-65.501 65.5z"/></svg>