<svg xmlns="http://www.w3.org/2000/svg" width="153.333" height="153.333" viewBox="0 0 153.333 153.333"><path fill-rule="evenodd" clip-rule="evenodd" fill="#E8E9EE" d="M77.015 4.667c-39.488 0-71.5 32.012-71.5 71.5s32.012 71.5 71.5 71.5 71.5-32.012 71.5-71.5-32.012-71.5-71.5-71.5zm-39.5 123.723v-19.724h15v28.219a65.522 65.522 0 0 1-15-8.495zm48 12.709a66.018 66.018 0 0 1-8.5.567c-2.194 0-4.361-.112-6.5-.323V68.667h15v72.432zm6-1.063V62.667h-27v77.794a64.962 64.962 0 0 1-6-1.485v-36.309h-27v20.586c-12.325-11.906-20-28.594-20-47.086 0-36.175 29.325-65.5 65.5-65.5s65.5 29.325 65.5 65.5c0 31.189-21.807 57.268-51 63.869z"/></svg>