<svg data-v-423bf9ae="" xmlns="http://www.w3.org/2000/svg" viewBox="0 0 291 91" class="iconLeft"><!----><!----><!----><g data-v-423bf9ae="" id="88c1a88b-887c-4d21-ae09-ad67fa9ac883" fill="#012F41" transform="matrix(6.054490506946714,0,0,6.054490506946714,100.47893010738876,-30.287590537953136)"><path d="M4.55 12.50L6.85 12.50L6.85 16.95L6.85 16.95Q6.17 17.19 5.47 17.29L5.47 17.29L5.47 17.29Q4.76 17.39 3.81 17.39L3.81 17.39L3.81 17.39Q2.60 17.39 2.05 17.06L2.05 17.06L2.05 17.06Q1.50 16.73 1.29 15.79L1.29 15.79L1.29 15.79Q1.08 14.85 1.08 12.81L1.08 12.81L1.08 12.81Q1.08 10.91 1.33 9.95L1.33 9.95L1.33 9.95Q1.58 8.99 2.25 8.60L2.25 8.60L2.25 8.60Q2.91 8.22 4.27 8.22L4.27 8.22L4.27 8.22Q4.75 8.22 5.41 8.29L5.41 8.29L5.41 8.29Q6.08 8.36 6.54 8.48L6.54 8.48L6.41 9.27L6.41 9.27Q5.84 9.14 5.04 9.08L5.04 9.08L5.04 9.08Q4.24 9.02 3.72 9.02L3.72 9.02L3.72 9.02Q3.08 9.02 2.73 9.09L2.73 9.09L2.73 9.09Q2.38 9.17 2.21 9.40L2.21 9.40L2.21 9.40Q2.03 9.63 2.03 10.11L2.03 10.11L2.03 16.66L6.09 16.66L6.09 13.29L4.55 13.29L4.55 12.50ZM11.75 10.07L11.75 10.07Q12.66 10.07 13.16 10.23L13.16 10.23L13.16 10.23Q13.66 10.40 13.87 10.78L13.87 10.78L13.87 10.78Q14.08 11.16 14.08 11.84L14.08 11.84L14.08 17.18L13.71 17.18L13.44 16.48L13.44 16.48Q12.95 16.90 12.34 17.09L12.34 17.09L12.34 17.09Q11.73 17.29 10.89 17.29L10.89 17.29L10.89 17.29Q9.77 17.29 9.32 16.84L9.32 16.84L9.32 16.84Q8.86 16.39 8.86 15.29L8.86 15.29L8.86 15.29Q8.86 14.21 9.11 13.78L9.11 13.78L9.11 13.78Q9.37 13.36 10.18 13.22L10.18 13.22L10.18 13.22Q10.99 13.09 13.05 13.09L13.05 13.09L13.19 13.09L13.19 11.03L13.19 11.03Q12.54 10.84 11.52 10.84L11.52 10.84L11.52 10.84Q10.43 10.84 9.30 11.17L9.30 11.17L9.17 10.46L9.17 10.46Q9.58 10.29 10.32 10.18L10.32 10.18L10.32 10.18Q11.07 10.07 11.75 10.07L11.75 10.07ZM12.01 16.51L12.01 16.51Q12.70 16.51 12.94 16.32L12.94 16.32L12.94 16.32Q13.19 16.13 13.19 15.60L13.19 15.60L13.19 13.83L10.88 13.83L10.88 13.83Q10.18 13.83 9.93 14.02L9.93 14.02L9.93 14.02Q9.67 14.21 9.67 14.73L9.67 14.73L9.67 16.51L12.01 16.51ZM16.94 17.18L16.94 10.18L17.32 10.18L17.58 10.88L17.58 10.88Q18.09 10.46 18.68 10.26L18.68 10.26L18.68 10.26Q19.28 10.07 20.12 10.07L20.12 10.07L20.12 10.07Q22.06 10.07 22.06 11.10L22.06 11.10L22.06 17.18L21.15 17.18L21.15 10.81L19.26 10.81L19.26 10.81Q18.69 10.81 18.40 10.89L18.40 10.89L18.40 10.89Q18.10 10.98 17.98 11.17L17.98 11.17L17.98 11.17Q17.85 11.37 17.85 11.76L17.85 11.76L17.85 17.18L16.94 17.18ZM24.74 17.18L24.74 17.18ZM24.91 10.19L25.82 10.02L25.82 17.18L24.91 17.18L24.91 10.19ZM25.40 8.74L25.40 8.74Q25.00 8.74 24.87 8.61L24.87 8.61L24.87 8.61Q24.74 8.48 24.74 8.12L24.74 8.12L24.74 8.12Q24.74 7.74 24.87 7.61L24.87 7.61L24.87 7.61Q25.00 7.48 25.40 7.48L25.40 7.48L25.40 7.48Q25.76 7.48 25.89 7.61L25.89 7.61L25.89 7.61Q26.01 7.74 26.01 8.12L26.01 8.12L26.01 8.12Q26.01 8.48 25.89 8.61L25.89 8.61L25.89 8.61Q25.77 8.74 25.40 8.74L25.40 8.74ZM31.44 10.85L30.10 10.85L30.10 16.48L30.10 16.48Q30.98 16.53 31.15 16.53L31.15 16.53L31.08 17.16L31.08 17.16Q30.38 17.29 29.96 17.29L29.96 17.29L29.96 17.29Q29.19 17.29 29.19 16.41L29.19 16.41L29.19 10.85L28.11 10.85L28.11 10.18L29.19 10.18L29.19 8.55L30.10 8.32L30.10 10.18L31.44 10.18L31.44 10.85Z"></path></g><defs data-v-423bf9ae=""><linearGradient data-v-423bf9ae="" gradientTransform="rotate(25)" id="ac7919cd-cb7e-4044-8cc5-82e82165db05" x1="0%" y1="0%" x2="100%" y2="0%"><stop data-v-423bf9ae="" offset="0%" style="stop-color: rgb(8, 199, 214); stop-opacity: 1;"></stop><stop data-v-423bf9ae="" offset="100%" style="stop-color: rgb(2, 2, 62); stop-opacity: 1;"></stop></linearGradient></defs><g data-v-423bf9ae="" id="103241da-843d-4c55-bcc8-bbc4798cfc91" transform="matrix(1.082232169904638,0,0,1.082232169904638,-10.314380380578562,-8.692312533027028)" stroke="none" fill="url(#ac7919cd-cb7e-4044-8cc5-82e82165db05)"><path d="M82.322 29.618a.803.803 0 0 1 .566 1.368.791.791 0 0 1-.563.233.818.818 0 0 1-.26-.042l-.374-.126-.126-.374a.798.798 0 0 1 .757-1.059m-43.77 59.019l.354.175a.801.801 0 1 1-1.155.717c0-.305.171-.58.447-.717l.354-.175m43.77-60.269a2.049 2.049 0 0 0-1.942 2.707L65.494 45.962H46.056l-8.414 8.414v33.317a2.05 2.05 0 1 0 1.818 0V55.129l7.348-7.348h19.437l15.42-15.42a2.06 2.06 0 0 0 2.107-.491 2.051 2.051 0 0 0-1.45-3.502z"></path><path d="M61.778 14.362a.801.801 0 0 1 .354 1.518l-.354.175-.354-.175a.797.797 0 0 1-.447-.717c0-.441.36-.801.801-.801M32.906 75.869l.354.175a.801.801 0 1 1-1.155.717c0-.305.171-.58.447-.717l.354-.175m28.872-62.757A2.051 2.051 0 0 0 60.869 17v16.186l-5.823 5.615H42.987l-10.99 10.99v25.133a2.05 2.05 0 0 0 .909 3.888 2.05 2.05 0 1 0 .909-3.888v-24.38l9.925-9.925h12.04l6.908-6.661V17a2.05 2.05 0 0 0-.91-3.888zM11.851 34.222a.795.795 0 0 1 .756 1.057l-.126.374-.374.126a.818.818 0 0 1-.26.042.796.796 0 0 1-.563-1.365.799.799 0 0 1 .567-.234m15.258 51.991l.354.175a.801.801 0 1 1-1.155.717c0-.305.171-.58.447-.717l.354-.175M11.851 32.971a2.051 2.051 0 1 0 .656 3.993l7.101 7.101v12.276l6.593 6.593v22.334a2.05 2.05 0 0 0 .909 3.888 2.051 2.051 0 0 0 .909-3.888V62.181l-6.593-6.593V43.312l-7.634-7.634a2.049 2.049 0 0 0-1.941-2.707zM74.423 19.9a.803.803 0 0 1 .566 1.368.791.791 0 0 1-.563.233.818.818 0 0 1-.26-.042l-.374-.126-.126-.374a.798.798 0 0 1 .757-1.059M62.998 39.507c.089 0 .176.014.26.042l.374.126.126.374a.799.799 0 0 1-1.322.823.796.796 0 0 1 0-1.132.783.783 0 0 1 .562-.233m11.425-20.858a2.049 2.049 0 0 0-1.942 2.707l-3.655 3.655v8.184l-5.169 5.168a2.06 2.06 0 0 0-.659-.108 2.051 2.051 0 1 0 1.946 1.394l5.701-5.701v-8.184l3.123-3.122c.213.072.436.108.659.108a2.051 2.051 0 0 0-.004-4.101zM88.149 36.869a.801.801 0 0 1 .354 1.518l-.354.175-.354-.175a.797.797 0 0 1-.447-.717c0-.442.36-.801.801-.801m-6.736 14.914c.089 0 .176.014.26.042l.374.126.126.374a.799.799 0 0 1-1.322.823.803.803 0 0 1 0-1.133.783.783 0 0 1 .562-.232m6.736-16.165a2.051 2.051 0 0 0-.909 3.888v5.966l-5.169 5.168a2.06 2.06 0 0 0-.659-.108 2.051 2.051 0 1 0 1.946 1.394l5.701-5.701v-6.719a2.05 2.05 0 0 0-.91-3.888z"></path><path d="M22.676 18.454a.801.801 0 0 1 .354 1.518l-.354.175-.354-.175a.797.797 0 0 1-.447-.717c0-.441.36-.801.801-.801m4.092 34.681l.354.175a.801.801 0 1 1-1.155.717c0-.305.171-.58.447-.717l.354-.175m-4.092-35.931a2.051 2.051 0 0 0-.909 3.888v8.765l4.092 4.092V52.19a2.05 2.05 0 0 0 .909 3.888 2.051 2.051 0 0 0 .909-3.888V33.196l-4.092-4.092v-8.012a2.05 2.05 0 0 0-.909-3.888zM14.492 24.592a.801.801 0 0 1 .354 1.518l-.354.175-.354-.175a.797.797 0 0 1-.447-.717c0-.441.36-.801.801-.801m4.691 8.777c.213 0 .413.083.563.233a.803.803 0 0 1-.566 1.368.792.792 0 0 1-.566-.235.795.795 0 0 1-.19-.823l.126-.374.374-.126a.782.782 0 0 1 .259-.043m-4.691-10.027a2.051 2.051 0 0 0-.909 3.888v2.627l3.655 3.655a2.049 2.049 0 0 0 1.942 2.707 2.051 2.051 0 1 0-.655-3.993l-3.122-3.122V27.23a2.05 2.05 0 0 0-.911-3.888zM30.86 14.362a.801.801 0 0 1 .354 1.518l-.354.175-.354-.175a.797.797 0 0 1-.447-.717c0-.441.36-.801.801-.801m20.455 16.363a.801.801 0 0 1 0 1.602.797.797 0 0 1-.717-.447l-.175-.353.175-.354a.8.8 0 0 1 .717-.448M30.86 13.112A2.051 2.051 0 0 0 29.951 17v4.673l10.763 10.763h8.765a2.05 2.05 0 1 0 0-1.818h-8.012l-9.697-9.697V17a2.05 2.05 0 0 0-.91-3.888z"></path><path d="M45.778 9.669c.214 0 .415.083.566.235a.796.796 0 0 1 .235.566.795.795 0 0 1-.797.799.818.818 0 0 1-.26-.042l-.374-.126-.126-.374a.798.798 0 0 1 .756-1.058m7.583 12.872a.801.801 0 0 1 0 1.602.797.797 0 0 1-.717-.447l-.175-.353.175-.354a.797.797 0 0 1 .717-.448M45.778 8.419a2.049 2.049 0 0 0-1.942 2.707l-6.078 6.078 7.047 7.047h6.719a2.05 2.05 0 1 0 0-1.818h-5.965l-5.229-5.229 4.792-4.792a2.06 2.06 0 0 0 2.107-.491 2.051 2.051 0 0 0-1.451-3.502z"></path><path d="M56.008 9.669a.803.803 0 0 1 .566 1.368.791.791 0 0 1-.563.233.818.818 0 0 1-.26-.042l-.374-.126-.126-.374a.799.799 0 0 1 .757-1.059m-5.286 5.285c.089 0 .176.014.26.042l.374.126.126.374a.799.799 0 0 1-1.322.823.796.796 0 0 1 0-1.132.787.787 0 0 1 .562-.233m5.286-6.535a2.049 2.049 0 0 0-1.942 2.707l-2.686 2.686a2.06 2.06 0 0 0-.659-.108 2.051 2.051 0 1 0 1.946 1.394l2.686-2.686c.213.072.436.108.659.108a2.051 2.051 0 0 0-.004-4.101zM32.311 30.13a.795.795 0 0 1 .756 1.057l-.126.374-.374.126a.818.818 0 0 1-.26.042.791.791 0 0 1-.563-.233.803.803 0 0 1 0-1.133.802.802 0 0 1 .567-.233m-.003 9.377c.089 0 .176.014.26.042l.374.126.126.374a.798.798 0 0 1-1.322.823.803.803 0 0 1 0-1.133.786.786 0 0 1 .562-.232m.003-10.628a2.051 2.051 0 1 0 .655 3.993l1.077 1.076v3.339l-1.076 1.076a2.06 2.06 0 0 0-.659-.108 2.051 2.051 0 1 0 1.946 1.394l1.609-1.609v-4.845l-1.609-1.609a2.049 2.049 0 0 0-1.943-2.707zM80.561 42.406a.803.803 0 0 1 .566 1.368.791.791 0 0 1-.563.233.818.818 0 0 1-.26-.042l-.374-.126-.126-.374a.798.798 0 0 1 .757-1.059M51.326 53.231c.305 0 .58.171.717.447l.175.354-.175.353a.801.801 0 1 1-.717-1.154m29.235-12.075a2.049 2.049 0 0 0-1.942 2.707l-9.261 9.261H53.163a2.05 2.05 0 0 0-3.888.909 2.051 2.051 0 0 0 3.888.909h16.949l9.793-9.793a2.06 2.06 0 0 0 2.107-.491 2.051 2.051 0 0 0-1.451-3.502zM11.851 44.452a.795.795 0 0 1 .756 1.057l-.126.374-.374.126a.818.818 0 0 1-.26.042.791.791 0 0 1-.563-.233.803.803 0 0 1 0-1.133.802.802 0 0 1 .567-.233m2.641 8.683l.354.175a.801.801 0 1 1-1.155.717c0-.305.171-.58.447-.717l.354-.175m-2.641-9.933a2.051 2.051 0 1 0 .655 3.993l1.077 1.076v3.919a2.05 2.05 0 0 0 .909 3.888 2.05 2.05 0 1 0 .909-3.888v-4.673l-1.609-1.609a2.049 2.049 0 0 0-1.941-2.706z"></path></g><!----></svg>